<?xml version="1.0" encoding="UTF-8" standalone="no"?>
<svg
   xmlns:dc="http://purl.org/dc/elements/1.1/"
   xmlns:cc="http://creativecommons.org/ns#"
   xmlns:rdf="http://www.w3.org/1999/02/22-rdf-syntax-ns#"
   xmlns:svg="http://www.w3.org/2000/svg"
   xmlns="http://www.w3.org/2000/svg"
   xmlns:sodipodi="http://sodipodi.sourceforge.net/DTD/sodipodi-0.dtd"
   xmlns:inkscape="http://www.inkscape.org/namespaces/inkscape"
   data-name="Layer 1"
   viewBox="0 0 374.99957 602.00043"
   x="0px"
   y="0px"
   id="svg3207"
   version="1.1"
   inkscape:version="0.48.4 r9939"
   width="100%"
   height="100%"
   sodipodi:docname="icon.svg">
  <metadata
     id="metadata3219">
    <rdf:RDF>
      <cc:Work
         rdf:about="">
        <dc:format>image/svg+xml</dc:format>
        <dc:type
           rdf:resource="http://purl.org/dc/dcmitype/StillImage" />
        <dc:title>09</dc:title>
      </cc:Work>
    </rdf:RDF>
  </metadata>
  <defs
     id="defs3217" />
  <sodipodi:namedview
     pagecolor="#ffffff"
     bordercolor="#666666"
     borderopacity="1"
     objecttolerance="10"
     gridtolerance="10"
     guidetolerance="10"
     inkscape:pageopacity="0"
     inkscape:pageshadow="2"
     inkscape:window-width="1920"
     inkscape:window-height="1060"
     id="namedview3215"
     showgrid="false"
     inkscape:zoom="1.3350176"
     inkscape:cx="230.34629"
     inkscape:cy="301.43494"
     inkscape:window-x="-2"
     inkscape:window-y="-3"
     inkscape:window-maximized="1"
     inkscape:current-layer="svg3207"
     fit-margin-top="1"
     fit-margin-left="1"
     fit-margin-right="1"
     fit-margin-bottom="1" />
  <title
     id="title3209">09</title>
  <path
     sodipodi:type="arc"
     style="fill:none;stroke:#000000;stroke-width:4;stroke-linecap:round;stroke-linejoin:miter;stroke-miterlimit:4;stroke-opacity:1;stroke-dasharray:none"
     id="path3360"
     sodipodi:cx="404.5661"
     sodipodi:cy="616.48138"
     sodipodi:rx="179.30208"
     sodipodi:ry="179.30208"
     d="m 583.86818,616.48138 a 179.30208,179.30208 0 1 1 -358.60416,0 179.30208,179.30208 0 1 1 358.60416,0 z"
     transform="matrix(1.0169289,0,0,1.0097102,-224.93657,-205.5751)" />
  <path
     style="fill:none;stroke:#000000;stroke-width:4.03642082;stroke-linecap:round;stroke-linejoin:miter;stroke-miterlimit:4;stroke-opacity:1"
     d="M 371.88033,406.18229 C 374.93642,488.36202 308.5505,600.62831 188.00643,598.96393 80.661121,597.48178 1.0764391,510.80222 3.113818,416.38237 0.88625482,323.95193 38.182219,116.36707 52.495797,54.672088 53.933873,44.386975 60.726049,35.201074 71.446255,24.606147 79.92845,16.223062 134.57392,3.4150815 187.98061,3.0194585 c 46.16702,-0.117567 93.38255,8.0793495 109.09471,20.9200465 13.46929,11.007736 27.00446,18.298717 30.60672,31.144009 32.54042,116.035386 44.71362,311.531016 44.19829,351.098776 z"
     id="path3362"
     inkscape:connector-curvature="0"
     sodipodi:nodetypes="csccscssc" />
  <path
     sodipodi:type="arc"
     style="fill:none;stroke:#000000;stroke-width:4;stroke-linecap:round;stroke-linejoin:miter;stroke-miterlimit:4;stroke-opacity:1;stroke-dasharray:none"
     id="path3365"
     sodipodi:cx="391.93918"
     sodipodi:cy="598.29858"
     sodipodi:rx="130.30968"
     sodipodi:ry="135.86552"
     d="m 522.24886,598.29858 a 130.30968,135.86552 0 1 1 -260.61936,0 130.30968,135.86552 0 1 1 260.61936,0 z"
     transform="matrix(0.98577981,0,0,0.93167614,-198.86866,-143.0782)" />
  <path
     sodipodi:type="arc"
     style="fill:none;stroke:#000000;stroke-width:4;stroke-linecap:round;stroke-linejoin:miter;stroke-miterlimit:4;stroke-opacity:1;stroke-dasharray:none"
     id="path3367"
     sodipodi:cx="350.52292"
     sodipodi:cy="547.79102"
     sodipodi:rx="110.10663"
     sodipodi:ry="89.398499"
     d="m 460.62955,547.79102 a 110.10663,89.398499 0 1 1 -220.21326,0 110.10663,89.398499 0 1 1 220.21326,0 z"
     transform="matrix(1.0202235,0,0,1.2410559,-170.62399,-265.49691)" />
  <path
     sodipodi:type="arc"
     style="fill:none;stroke:#000000;stroke-width:4;stroke-linecap:round;stroke-linejoin:miter;stroke-miterlimit:4;stroke-opacity:1;stroke-dasharray:none"
     id="path3369"
     sodipodi:cx="355.5737"
     sodipodi:cy="336.16403"
     sodipodi:rx="34.345188"
     sodipodi:ry="40.406101"
     d="m 335.66523,303.23873 a 34.345188,40.406101 0 0 1 41.09159,1.11994"
     transform="matrix(1.0033972,0,0,0.92608634,-170.24967,-135.0477)"
     sodipodi:start="4.0940798"
     sodipodi:end="5.377023"
     sodipodi:open="true" />
  <path
     sodipodi:type="arc"
     style="fill:none;stroke:#000000;stroke-width:4;stroke-linecap:round;stroke-linejoin:miter;stroke-miterlimit:4;stroke-opacity:1;stroke-dasharray:none"
     id="path3371"
     sodipodi:cx="341.43155"
     sodipodi:cy="421.01685"
     sodipodi:rx="52.527931"
     sodipodi:ry="109.09647"
     d="m 325.05151,317.36032 a 52.527931,109.09647 0 0 1 29.04327,-2.22228"
     sodipodi:start="4.3952654"
     sodipodi:end="4.9558636"
     transform="matrix(1.0143996,0,0,0.82620028,-157.83837,-106.71598)"
     sodipodi:open="true" />
  <path
     sodipodi:type="arc"
     style="fill:none;stroke:#000000;stroke-width:4;stroke-linecap:round;stroke-linejoin:miter;stroke-miterlimit:4;stroke-opacity:1;stroke-dasharray:none"
     id="path3373"
     sodipodi:cx="336.88586"
     sodipodi:cy="510.92041"
     sodipodi:rx="51.012703"
     sodipodi:ry="146.47212"
     d="m 329.33998,366.05962 a 51.012703,146.47212 0 0 1 15.23582,0.0625"
     sodipodi:start="4.5639225"
     sodipodi:end="4.8637114"
     transform="matrix(0.97843845,0,0,1.614762,-141.59776,-425.601)"
     sodipodi:open="true" />
  <path
     sodipodi:type="arc"
     style="fill:none;stroke:#000000;stroke-width:4;stroke-linecap:round;stroke-linejoin:miter;stroke-miterlimit:4;stroke-opacity:1;stroke-dasharray:none"
     id="path3375"
     sodipodi:cx="306.5813"
     sodipodi:cy="545.77069"
     sodipodi:rx="12.626906"
     sodipodi:ry="21.718279"
     d="m 319.20821,545.77069 a 12.626906,21.718279 0 1 1 -25.25382,0 12.626906,21.718279 0 1 1 25.25382,0 z"
     transform="matrix(1.0401502,0,0,0.62900277,-181.81876,39.430805)" />
  <path
     sodipodi:type="arc"
     style="fill:none;stroke:#000000;stroke-width:4;stroke-linecap:round;stroke-linejoin:miter;stroke-miterlimit:4;stroke-opacity:1;stroke-dasharray:none"
     id="path3375-3"
     sodipodi:cx="306.5813"
     sodipodi:cy="545.77069"
     sodipodi:rx="12.626906"
     sodipodi:ry="21.718279"
     d="m 319.20821,545.77069 a 12.626906,21.718279 0 1 1 -25.25382,0 12.626906,21.718279 0 1 1 25.25382,0 z"
     transform="matrix(1.0401502,0,0,0.62900277,-81.477615,41.470817)" />
  <path
     style="fill:none;stroke:#000000;stroke-width:6.05463076;stroke-linecap:butt;stroke-linejoin:miter;stroke-miterlimit:4;stroke-opacity:1;stroke-dasharray:none"
     d="m 187.21389,364.9454 0.56639,38.56906"
     id="path3395"
     inkscape:connector-curvature="0"
     sodipodi:nodetypes="cc" />
  <path
     style="fill:none;stroke:#000000;stroke-width:6.05463076;stroke-linecap:butt;stroke-linejoin:miter;stroke-miterlimit:4;stroke-opacity:1;stroke-dasharray:none"
     d="m 142.67462,441.88258 21.39254,33.66029"
     id="path3397"
     inkscape:connector-curvature="0" />
  <path
     style="fill:none;stroke:#000000;stroke-width:6.05463076;stroke-linecap:butt;stroke-linejoin:miter;stroke-miterlimit:4;stroke-opacity:1;stroke-dasharray:none"
     d="M 234.33289,442.3921 212.9884,475.51882"
     id="path3399"
     inkscape:connector-curvature="0" />
  <path
     style="fill:none;stroke:#000000;stroke-width:6.05609369;stroke-linecap:butt;stroke-linejoin:miter;stroke-miterlimit:4;stroke-opacity:1;stroke-dasharray:none"
     d="m 152.83332,363.43621 0.0564,39.59175"
     id="path3395-6-7"
     inkscape:connector-curvature="0"
     sodipodi:nodetypes="cc" />
  <path
     style="fill:none;stroke:#000000;stroke-width:6.05463076;stroke-linecap:butt;stroke-linejoin:miter;stroke-miterlimit:4;stroke-opacity:1;stroke-dasharray:none"
     d="m 222.37225,365.47698 -0.4793,38.57024"
     id="path3395-6-5"
     inkscape:connector-curvature="0"
     sodipodi:nodetypes="cc" />
</svg>
