<?xml version="1.0" encoding="UTF-8" standalone="no"?>
<!-- Created with Inkscape (http://www.inkscape.org/) -->

<svg
   xmlns:dc="http://purl.org/dc/elements/1.1/"
   xmlns:cc="http://creativecommons.org/ns#"
   xmlns:rdf="http://www.w3.org/1999/02/22-rdf-syntax-ns#"
   xmlns:svg="http://www.w3.org/2000/svg"
   xmlns="http://www.w3.org/2000/svg"
   xmlns:sodipodi="http://sodipodi.sourceforge.net/DTD/sodipodi-0.dtd"
   xmlns:inkscape="http://www.inkscape.org/namespaces/inkscape"
   width="64px"
   height="64px"
   id="svg3937"
   version="1.1"
   inkscape:version="0.48.4 r9939"
   sodipodi:docname="New document 12">
  <defs
     id="defs3939" />
  <sodipodi:namedview
     id="base"
     pagecolor="#ffffff"
     bordercolor="#666666"
     borderopacity="1.0"
     inkscape:pageopacity="0.0"
     inkscape:pageshadow="2"
     inkscape:zoom="7.7781746"
     inkscape:cx="21.136269"
     inkscape:cy="34.571297"
     inkscape:current-layer="layer3"
     showgrid="true"
     inkscape:document-units="px"
     inkscape:grid-bbox="true"
     inkscape:window-width="1920"
     inkscape:window-height="1060"
     inkscape:window-x="-2"
     inkscape:window-y="-3"
     inkscape:window-maximized="1" />
  <metadata
     id="metadata3942">
    <rdf:RDF>
      <cc:Work
         rdf:about="">
        <dc:format>image/svg+xml</dc:format>
        <dc:type
           rdf:resource="http://purl.org/dc/dcmitype/StillImage" />
        <dc:title></dc:title>
      </cc:Work>
    </rdf:RDF>
  </metadata>
  <g
     inkscape:groupmode="layer"
     id="layer3"
     inkscape:label="icon">
    <path
       id="path3990-7"
       d="m 38.368124,10.302086 c 1.111729,0 -0.221132,3.936559 -0.46249,5.069188 -0.227874,1.084087 0.193491,1.084087 0.973522,0.621597 0.773963,-0.469232 8.68888,-8.8675395 9.738584,-8.1630175 1.630177,1.098245 -7.134887,15.8925355 -6.975779,18.1854345 0.538673,4.834572 18.164534,-11.844735 20.091351,-11.651245 1.243195,0.117308 -4.779289,10.857057 -6.547673,13.516037 -0.21439,0.310799 -0.538673,0.704523 0.179333,0.434849 1.20207,-0.449006 4.295899,-2.624598 5.096829,-2.714264 1.091504,-0.12405 1.657818,0.393723 1.091504,2.216716 -1.450169,4.661981 -12.059126,20.678566 -13.502553,20.195176 -0.587214,-0.200233 -0.621598,-1.616018 0.994421,-4.966038 1.609277,-3.350019 2.389982,-5.152112 2.756063,-6.892855 0.372824,-1.733327 -1.236453,-3.612277 -2.880113,-2.271999 -1.650402,1.332861 -6.174849,6.478232 -7.307478,5.760226 -1.132629,-0.718006 0.372824,-5.953717 -2.50729,-3.79161 -2.555156,1.913334 -14.621698,15.401729 -16.133892,14.64934 -0.82183,-0.414623 -0.50429,-1.415786 0.428107,-3.059446 0.925654,-1.64366 5.760226,-10.366924 6.996679,-13.557836 1.236453,-3.190912 1.332861,-5.249195 0.304057,-5.145371 -1.028804,0.103824 -4.904013,3.550252 -6.13305,4.171849 -1.236453,0.614856 -0.863629,-1.187911 -1.892434,-1.809509 -1.028804,-0.614856 -3.391144,1.132629 -4.219716,1.858051 -0.82183,0.718005 -6.796447,6.582056 -7.618277,7.300062 -0.82183,0.725422 -2.4520072,1.802767 -2.3272832,0.186749 0.124724,-1.616019 3.0527042,-7.610861 2.7904472,-7.790868 -0.255515,-0.179333 -0.372823,0.08967 -1.18117,0.711264 -0.8009302,0.621597 -6.4580062,4.730747 -7.2036542,5.14537 -0.738905,0.414623 -1.94771703,1.187912 -1.64366,-0.103824 0.304057,-1.28432 2.963038,-4.876371 4.012742,-6.071025 1.056446,-1.194654 7.7632262,-8.274258 8.7711312,-7.610861 0.877113,0.580472 -0.580472,3.971617 0.206975,4.668723 4.494949,-2.737145 7.652077,-8.96205 11.762484,-12.583641 1.671302,-1.436686 -0.365796,5.204168 1.789896,4.150623 3.340694,-1.824014 9.406275,-10.650429 10.552387,-10.657845 z"
       clip-rule="evenodd"
       inkscape:connector-curvature="0"
       style="fill-rule:evenodd"
       sodipodi:nodetypes="ccccccccccccccscccssccccscccccccccc" />
  </g>
</svg>
