<?xml version="1.0" encoding="UTF-8" standalone="no"?>
<svg
   xmlns:dc="http://purl.org/dc/elements/1.1/"
   xmlns:cc="http://creativecommons.org/ns#"
   xmlns:rdf="http://www.w3.org/1999/02/22-rdf-syntax-ns#"
   xmlns:svg="http://www.w3.org/2000/svg"
   xmlns="http://www.w3.org/2000/svg"
   xmlns:sodipodi="http://sodipodi.sourceforge.net/DTD/sodipodi-0.dtd"
   xmlns:inkscape="http://www.inkscape.org/namespaces/inkscape"
   data-name="Layer 1"
   viewBox="0 0 252 417"
   x="0px"
   y="0px"
   id="svg3207"
   version="1.1"
   inkscape:version="0.48.4 r9939"
   width="100%"
   height="100%"
   sodipodi:docname="newicon.svg">
  <metadata
     id="metadata3219">
    <rdf:RDF>
      <cc:Work
         rdf:about="">
        <dc:format>image/svg+xml</dc:format>
        <dc:type
           rdf:resource="http://purl.org/dc/dcmitype/StillImage" />
      </cc:Work>
    </rdf:RDF>
  </metadata>
  <defs
     id="defs3217" />
  <sodipodi:namedview
     pagecolor="#ffffff"
     bordercolor="#666666"
     borderopacity="1"
     objecttolerance="10"
     gridtolerance="10"
     guidetolerance="10"
     inkscape:pageopacity="0"
     inkscape:pageshadow="2"
     inkscape:window-width="1920"
     inkscape:window-height="1060"
     id="namedview3215"
     showgrid="false"
     inkscape:zoom="1.888"
     inkscape:cx="51.007081"
     inkscape:cy="232.99814"
     inkscape:window-x="-2"
     inkscape:window-y="-3"
     inkscape:window-maximized="1"
     inkscape:current-layer="svg3207"
     fit-margin-top="1"
     fit-margin-left="1"
     fit-margin-right="1"
     fit-margin-bottom="1" />
  <title
     id="title3209">09</title>
  <path
     style="fill:none;stroke:#000000;stroke-width:2.24210525;stroke-linecap:round;stroke-linejoin:round;stroke-miterlimit:4;stroke-opacity:1"
     d="M 25.395346,413.00047 C 20.110742,401.24627 14.469915,365.9499 11.17191,345.8386 8.1146662,327.19548 5.6864385,316.13658 2.8802388,283.50812 0.89437245,260.41785 3.0186783,223.22727 7.169035,197.73223 11.17191,173.14314 19.692778,147.49084 27.18341,125.68047 34.740266,103.67728 43.986453,81.941295 55.203534,65.637345 66.54783,49.148495 77.305891,35.896585 90.371654,23.893085 102.23242,12.996615 109.79448,2.6443347 127.11233,2.6443347 c 11.62643,0 22.33592,8.0678003 30.84008,16.2435503 16.96927,16.31398 13.12585,13.40354 21.71478,23.04135 4.75665,5.33754 15.11141,19.21205 23.28991,31.86851 6.31135,9.76699 11.13772,19.78662 14.25671,25.99234 6.50756,12.947755 17.95368,48.139405 21.95338,63.188065 7.13918,25.39517 11.6831,70.75095 10.54453,117.10799 -1.2589,51.2559 -9.083,103.73583 -19.57651,131.81233 l -20.82489,0.4057 -2.57147,1.7683 c -53.08517,0.3354 -106.17648,-0.1089 -159.256002,0.7998 l -2.288772,-1.9783 z"
     id="path3128"
     inkscape:connector-curvature="0"
     sodipodi:nodetypes="cssssssssssscscccccc" />
  <path
     style="fill:none;stroke:#000000;stroke-width:3.2089045;stroke-linecap:butt;stroke-linejoin:miter;stroke-miterlimit:4;stroke-opacity:1;stroke-dasharray:none"
     d="m 45.397759,413.33237 c 164.340011,-0.011 162.722601,-0.4148 162.722601,-0.4148"
     id="path3131"
     inkscape:connector-curvature="0"
     sodipodi:nodetypes="cc" />
  <path
     style="fill:none;stroke:#000000;stroke-width:3.44538736;stroke-linecap:round;stroke-linejoin:round;stroke-miterlimit:4;stroke-opacity:1"
     d="M 34.982028,412.39897 C 26.348458,393.17847 19.407701,348.956 17.504771,306.66442 c -1.362219,-30.27463 -0.984756,-30.25734 -0.178405,-51.17645 1.034855,-26.84748 3.970296,-48.08345 5.883102,-58.29986 6.378009,-34.06526 20.239783,-64.16418 32.974662,-90.22501 9.901875,-20.263315 23.227405,-34.898565 34.396693,-47.727165 7.483431,-8.15374 14.799617,-14.8263 23.818367,-20.16015 4.28617,-2.5324 8.16905,-4.16763 13.99978,-4.16763 5.1808,0 8.0282,2.78158 11.45111,4.95896 5.91666,3.76369 7.06404,4.19674 19.87032,16.25599 18.5843,17.50023 31.64725,39.67744 42.50579,59.571135 14.34117,26.27419 20.23085,40.26246 27.69663,76.69538 2.4154,11.78714 4.11628,23.77542 5.25996,36.79375 2.01083,22.88894 2.17619,51.678 1.04571,79.7166 -1.65315,41.00203 -7.77343,80.9133 -16.6261,102.1234"
     id="path3901"
     inkscape:connector-curvature="0"
     sodipodi:nodetypes="cssssccsssssssc" />
  <path
     style="fill:none;stroke:#000000;stroke-width:2.00143743;stroke-linecap:round;stroke-linejoin:round;stroke-miterlimit:4;stroke-opacity:1"
     d="m 50.259154,412.61097 c -6.085815,-19.5788 -11.072975,-47.76131 -12.09141,-85.34488 -0.617564,-22.79017 -1.263063,-48.94213 1.59613,-80.6416 3.022581,-33.5109 13.720473,-66.84018 25.254318,-91.22538 7.388187,-15.62032 12.928393,-25.776 21.941962,-36.36125 11.196225,-13.14848 25.366066,-25.380375 40.009216,-25.380375 15.92218,0 26.75972,12.975095 39.24459,27.958795 22.30833,26.77333 45.04531,70.28656 47.67497,123.57862 0.97621,19.78358 2.72256,47.53368 2.12078,75.19945 -0.80825,37.15797 -4.93292,74.16382 -12.09981,91.51162"
     id="path3904"
     inkscape:connector-curvature="0"
     sodipodi:nodetypes="cssssssssc" />
</svg>
