<?xml version="1.0" encoding="UTF-8" standalone="no"?>
<!-- Created with Inkscape (http://www.inkscape.org/) -->

<svg
   xmlns:dc="http://purl.org/dc/elements/1.1/"
   xmlns:cc="http://creativecommons.org/ns#"
   xmlns:rdf="http://www.w3.org/1999/02/22-rdf-syntax-ns#"
   xmlns:svg="http://www.w3.org/2000/svg"
   xmlns="http://www.w3.org/2000/svg"
   xmlns:sodipodi="http://sodipodi.sourceforge.net/DTD/sodipodi-0.dtd"
   xmlns:inkscape="http://www.inkscape.org/namespaces/inkscape"
   width="547.18182"
   height="175.20595"
   id="svg2"
   version="1.1"
   inkscape:version="0.48.4 r9939"
   sodipodi:docname="mp1.svg">
  <defs
     id="defs4" />
  <sodipodi:namedview
     id="base"
     pagecolor="#ffffff"
     bordercolor="#666666"
     borderopacity="1.0"
     inkscape:pageopacity="0.0"
     inkscape:pageshadow="2"
     inkscape:zoom="1"
     inkscape:cx="259.98044"
     inkscape:cy="135.68307"
     inkscape:document-units="px"
     inkscape:current-layer="layer1"
     showgrid="false"
     inkscape:window-width="1920"
     inkscape:window-height="1060"
     inkscape:window-x="-2"
     inkscape:window-y="-3"
     inkscape:window-maximized="1"
     fit-margin-top="0"
     fit-margin-left="0"
     fit-margin-right="0"
     fit-margin-bottom="0" />
  <metadata
     id="metadata7">
    <rdf:RDF>
      <cc:Work
         rdf:about="">
        <dc:format>image/svg+xml</dc:format>
        <dc:type
           rdf:resource="http://purl.org/dc/dcmitype/StillImage" />
        <dc:title></dc:title>
      </cc:Work>
    </rdf:RDF>
  </metadata>
  <g
     inkscape:label="Layer 1"
     inkscape:groupmode="layer"
     id="layer1"
     transform="translate(-149.31027,-468.64468)">
    <path
       transform="matrix(0.74804731,0,0,0.49594625,78.345367,237.98598)"
       style="fill:none;stroke:#000000;stroke-width:6;stroke-linecap:round;stroke-linejoin:miter;stroke-miterlimit:4;stroke-opacity:1"
       d="m 797.54949,814.5604 c -31.31183,-0.0377 -668.98471,0.0999 -676.16977,0.11879 -14.55761,0.10281 -23.346745,-13.16649 -23.846398,-35.17013 -0.414342,-18.24672 -0.1723,-256.01624 0.07765,-275.75037 0.217344,-17.15974 7.572498,-35.0306 24.299218,-34.81677 10.74651,-0.44248 651.50785,0.15397 672.37089,-0.11997 13.73947,-0.1804 29.99475,14.9618 29.61681,48.10834 -0.33495,29.37577 -1.07065,212.75684 -0.2103,244.87263 0.88935,33.19832 -8.99989,52.51015 -26.1381,52.75748 z"
       id="path3041"
       inkscape:connector-curvature="0"
       sodipodi:nodetypes="ccsscsssc" />
    <path
       sodipodi:type="arc"
       style="fill:#ff0000;fill-opacity:1;stroke:#ff0000;stroke-width:6;stroke-linecap:round;stroke-linejoin:miter;stroke-miterlimit:4;stroke-opacity:1;stroke-dasharray:none"
       id="path3063"
       sodipodi:cx="420.98108"
       sodipodi:cy="555.36713"
       sodipodi:rx="9.3439112"
       sodipodi:ry="9.0913725"
       d="m 420.96718,564.45849 c -5.16049,-0.007 -9.33768,-4.08386 -9.33,-9.10488 0.008,-4.99815 4.16062,-9.05295 9.29755,-9.07774 l 0.0464,9.09126 z"
       transform="matrix(0.68297745,0,0,0.65747354,137.71635,186.88182)"
       sodipodi:start="1.5722835"
       sodipodi:end="4.7074284" />
    <rect
       style="fill:#ff0000;fill-opacity:1;fill-rule:evenodd;stroke:#ff0000;stroke-width:1px;stroke-linecap:butt;stroke-linejoin:miter;stroke-opacity:1"
       id="rect3833"
       width="3.7880721"
       height="21.465742"
       x="427.67334"
       y="541.35126" />
    <rect
       style="fill:#ff0000;fill-opacity:1;fill-rule:evenodd;stroke:#ff0000;stroke-width:1px;stroke-linecap:butt;stroke-linejoin:miter;stroke-opacity:1"
       id="rect3833-3"
       width="3.7880721"
       height="21.465742"
       x="441.56293"
       y="544.38171" />
    <rect
       style="fill:#ff0000;fill-opacity:1;fill-rule:evenodd;stroke:#ff0000;stroke-width:1px;stroke-linecap:butt;stroke-linejoin:miter;stroke-opacity:1"
       id="rect3833-6"
       width="3.7880721"
       height="21.465742"
       x="454.94745"
       y="541.22491" />
    <path
       sodipodi:type="arc"
       style="fill:#ff0000;fill-opacity:1;stroke:#ff0000;stroke-width:6;stroke-linecap:round;stroke-linejoin:miter;stroke-miterlimit:4;stroke-opacity:1;stroke-dasharray:none"
       id="path3063-7"
       sodipodi:cx="420.98108"
       sodipodi:cy="555.36713"
       sodipodi:rx="9.3439112"
       sodipodi:ry="9.0913725"
       d="m 420.96718,564.45849 c -5.16049,-0.007 -9.33768,-4.08386 -9.33,-9.10488 0.008,-4.99815 4.16062,-9.05295 9.29755,-9.07774 l 0.0464,9.09126 z"
       transform="matrix(-0.68297745,0,0,0.65747354,748.62112,186.94492)"
       sodipodi:start="1.5722835"
       sodipodi:end="4.7074284" />
    <rect
       style="fill:#ff0000;fill-opacity:1;fill-rule:evenodd;stroke:#ff0000;stroke-width:1px;stroke-linecap:butt;stroke-linejoin:miter;stroke-opacity:1"
       id="rect3833-3-5"
       width="3.7880721"
       height="21.465742"
       x="157.82329"
       y="706.21393"
       transform="matrix(0.91927532,-0.39361515,0.39361515,0.91927532,0,0)" />
    <rect
       style="fill:#ff0000;fill-opacity:1;fill-rule:evenodd;stroke:#ff0000;stroke-width:1px;stroke-linecap:butt;stroke-linejoin:miter;stroke-opacity:1"
       id="rect3833-3-5-3"
       width="3.7880721"
       height="21.465742"
       x="655.02594"
       y="354.58899"
       transform="matrix(0.91791189,0.39678427,-0.39678427,0.91791189,0,0)"
       inkscape:transform-center-x="-11.716471"
       inkscape:transform-center-y="-17.009361" />
    <path
       sodipodi:type="arc"
       style="fill:#000000;fill-opacity:1;stroke:#000000;stroke-width:6;stroke-linecap:round;stroke-linejoin:miter;stroke-miterlimit:4;stroke-opacity:1;stroke-dasharray:none"
       id="path3063-5"
       sodipodi:cx="420.98108"
       sodipodi:cy="555.36713"
       sodipodi:rx="9.3439112"
       sodipodi:ry="9.0913725"
       d="m 420.96718,564.45849 c -5.16049,-0.007 -9.33768,-4.08386 -9.33,-9.10488 0.008,-4.99815 4.16062,-9.05295 9.29755,-9.07774 l 0.0464,9.09126 z"
       transform="matrix(0.68297745,0,0,0.65747354,244.54761,187.18767)"
       sodipodi:start="1.5722835"
       sodipodi:end="4.7074284" />
    <rect
       style="fill:#000000;fill-opacity:1;fill-rule:evenodd;stroke:#000000;stroke-width:1px;stroke-linecap:butt;stroke-linejoin:miter;stroke-opacity:1"
       id="rect3833-62"
       width="3.7880721"
       height="21.465742"
       x="534.50458"
       y="541.6571" />
    <rect
       style="fill:#000000;fill-opacity:1;fill-rule:evenodd;stroke:#000000;stroke-width:1px;stroke-linecap:butt;stroke-linejoin:miter;stroke-opacity:1"
       id="rect3833-3-9"
       width="3.7880721"
       height="21.465742"
       x="548.39417"
       y="544.68756" />
    <rect
       style="fill:#000000;fill-opacity:1;fill-rule:evenodd;stroke:#000000;stroke-width:1px;stroke-linecap:butt;stroke-linejoin:miter;stroke-opacity:1"
       id="rect3833-6-1"
       width="3.7880721"
       height="21.465742"
       x="561.77869"
       y="541.53076" />
    <path
       sodipodi:type="arc"
       style="fill:#000000;fill-opacity:1;stroke:#000000;stroke-width:6;stroke-linecap:round;stroke-linejoin:miter;stroke-miterlimit:4;stroke-opacity:1;stroke-dasharray:none"
       id="path3063-7-2"
       sodipodi:cx="420.98108"
       sodipodi:cy="555.36713"
       sodipodi:rx="9.3439112"
       sodipodi:ry="9.0913725"
       d="m 420.96718,564.45849 c -5.16049,-0.007 -9.33768,-4.08386 -9.33,-9.10488 0.008,-4.99815 4.16062,-9.05295 9.29755,-9.07774 l 0.0464,9.09126 z"
       transform="matrix(-0.68297745,0,0,0.65747354,855.45238,187.25077)"
       sodipodi:start="1.5722835"
       sodipodi:end="4.7074284" />
    <rect
       style="fill:#000000;fill-opacity:1;fill-rule:evenodd;stroke:#000000;stroke-width:1px;stroke-linecap:butt;stroke-linejoin:miter;stroke-opacity:1"
       id="rect3833-3-5-7"
       width="3.7880721"
       height="21.465742"
       x="255.91025"
       y="748.54547"
       transform="matrix(0.91927532,-0.39361515,0.39361515,0.91927532,0,0)" />
    <rect
       style="fill:#000000;fill-opacity:1;fill-rule:evenodd;stroke:#000000;stroke-width:1px;stroke-linecap:butt;stroke-linejoin:miter;stroke-opacity:1"
       id="rect3833-3-5-3-0"
       width="3.7880721"
       height="21.465742"
       x="753.20898"
       y="312.48077"
       transform="matrix(0.91791189,0.39678427,-0.39678427,0.91791189,0,0)"
       inkscape:transform-center-x="-11.716471"
       inkscape:transform-center-y="-17.009361" />
    <path
       sodipodi:type="arc"
       style="fill:#ff0000;fill-opacity:1;stroke:#ff0000;stroke-width:6;stroke-linecap:round;stroke-linejoin:miter;stroke-miterlimit:4;stroke-opacity:1;stroke-dasharray:none"
       id="path3063-9"
       sodipodi:cx="420.98108"
       sodipodi:cy="555.36713"
       sodipodi:rx="9.3439112"
       sodipodi:ry="9.0913725"
       d="m 420.96718,564.45849 c -5.16049,-0.007 -9.33768,-4.08386 -9.33,-9.10488 0.008,-4.99815 4.16062,-9.05295 9.29755,-9.07774 l 0.0464,9.09126 z"
       transform="matrix(0.68297745,0,0,0.65747354,30.08333,187.00911)"
       sodipodi:start="1.5722835"
       sodipodi:end="4.7074284" />
    <rect
       style="fill:#ff0000;fill-opacity:1;fill-rule:evenodd;stroke:#ff0000;stroke-width:1px;stroke-linecap:butt;stroke-linejoin:miter;stroke-opacity:1"
       id="rect3833-36"
       width="3.7880721"
       height="21.465742"
       x="320.04031"
       y="541.47852" />
    <rect
       style="fill:#ff0000;fill-opacity:1;fill-rule:evenodd;stroke:#ff0000;stroke-width:1px;stroke-linecap:butt;stroke-linejoin:miter;stroke-opacity:1"
       id="rect3833-3-0"
       width="3.7880721"
       height="21.465742"
       x="333.9299"
       y="544.50897" />
    <rect
       style="fill:#ff0000;fill-opacity:1;fill-rule:evenodd;stroke:#ff0000;stroke-width:1px;stroke-linecap:butt;stroke-linejoin:miter;stroke-opacity:1"
       id="rect3833-6-6"
       width="3.7880721"
       height="21.465742"
       x="347.31442"
       y="541.35217" />
    <path
       sodipodi:type="arc"
       style="fill:#ff0000;fill-opacity:1;stroke:#ff0000;stroke-width:6;stroke-linecap:round;stroke-linejoin:miter;stroke-miterlimit:4;stroke-opacity:1;stroke-dasharray:none"
       id="path3063-7-26"
       sodipodi:cx="420.98108"
       sodipodi:cy="555.36713"
       sodipodi:rx="9.3439112"
       sodipodi:ry="9.0913725"
       d="m 420.96718,564.45849 c -5.16049,-0.007 -9.33768,-4.08386 -9.33,-9.10488 0.008,-4.99815 4.16062,-9.05295 9.29755,-9.07774 l 0.0464,9.09126 z"
       transform="matrix(-0.68297745,0,0,0.65747354,640.9881,187.07221)"
       sodipodi:start="1.5722835"
       sodipodi:end="4.7074284" />
    <rect
       style="fill:#ff0000;fill-opacity:1;fill-rule:evenodd;stroke:#ff0000;stroke-width:1px;stroke-linecap:butt;stroke-linejoin:miter;stroke-opacity:1"
       id="rect3833-3-5-1"
       width="3.7880721"
       height="21.465742"
       x="58.828808"
       y="663.96497"
       transform="matrix(0.91927532,-0.39361515,0.39361515,0.91927532,0,0)" />
    <rect
       style="fill:#ff0000;fill-opacity:1;fill-rule:evenodd;stroke:#ff0000;stroke-width:1px;stroke-linecap:butt;stroke-linejoin:miter;stroke-opacity:1"
       id="rect3833-3-5-3-8"
       width="3.7880721"
       height="21.465742"
       x="556.27881"
       y="397.4129"
       transform="matrix(0.91791189,0.39678427,-0.39678427,0.91791189,0,0)"
       inkscape:transform-center-x="-11.716471"
       inkscape:transform-center-y="-17.009361" />
    <path
       sodipodi:type="arc"
       style="fill:#ff0000;fill-opacity:1;stroke:#ff0000;stroke-width:6;stroke-linecap:round;stroke-linejoin:miter;stroke-miterlimit:4;stroke-opacity:1;stroke-dasharray:none"
       id="path3063-2"
       sodipodi:cx="420.98108"
       sodipodi:cy="555.36713"
       sodipodi:rx="9.3439112"
       sodipodi:ry="9.0913725"
       d="m 420.96718,564.45849 c -5.16049,-0.007 -9.33768,-4.08386 -9.33,-9.10488 0.008,-4.99815 4.16062,-9.05295 9.29755,-9.07774 l 0.0464,9.09126 z"
       transform="matrix(0.68297745,0,0,0.65747354,-77.595241,187.18768)"
       sodipodi:start="1.5722835"
       sodipodi:end="4.7074284" />
    <rect
       style="fill:#ff0000;fill-opacity:1;fill-rule:evenodd;stroke:#ff0000;stroke-width:1px;stroke-linecap:butt;stroke-linejoin:miter;stroke-opacity:1"
       id="rect3833-2"
       width="3.7880721"
       height="21.465742"
       x="212.36174"
       y="541.6571" />
    <rect
       style="fill:#ff0000;fill-opacity:1;fill-rule:evenodd;stroke:#ff0000;stroke-width:1px;stroke-linecap:butt;stroke-linejoin:miter;stroke-opacity:1"
       id="rect3833-3-8"
       width="3.7880721"
       height="21.465742"
       x="226.25133"
       y="544.68756" />
    <rect
       style="fill:#ff0000;fill-opacity:1;fill-rule:evenodd;stroke:#ff0000;stroke-width:1px;stroke-linecap:butt;stroke-linejoin:miter;stroke-opacity:1"
       id="rect3833-6-9"
       width="3.7880721"
       height="21.465742"
       x="239.63585"
       y="541.53076" />
    <path
       sodipodi:type="arc"
       style="fill:#ff0000;fill-opacity:1;stroke:#ff0000;stroke-width:6;stroke-linecap:round;stroke-linejoin:miter;stroke-miterlimit:4;stroke-opacity:1;stroke-dasharray:none"
       id="path3063-7-7"
       sodipodi:cx="420.98108"
       sodipodi:cy="555.36713"
       sodipodi:rx="9.3439112"
       sodipodi:ry="9.0913725"
       d="m 420.96718,564.45849 c -5.16049,-0.007 -9.33768,-4.08386 -9.33,-9.10488 0.008,-4.99815 4.16062,-9.05295 9.29755,-9.07774 l 0.0464,9.09126 z"
       transform="matrix(-0.68297745,0,0,0.65747354,533.30953,187.25078)"
       sodipodi:start="1.5722835"
       sodipodi:end="4.7074284" />
    <rect
       style="fill:#ff0000;fill-opacity:1;fill-rule:evenodd;stroke:#ff0000;stroke-width:1px;stroke-linecap:butt;stroke-linejoin:miter;stroke-opacity:1"
       id="rect3833-3-5-36"
       width="3.7880721"
       height="21.465742"
       x="-40.22773"
       y="621.74518"
       transform="matrix(0.91927532,-0.39361515,0.39361515,0.91927532,0,0)" />
    <rect
       style="fill:#ff0000;fill-opacity:1;fill-rule:evenodd;stroke:#ff0000;stroke-width:1px;stroke-linecap:butt;stroke-linejoin:miter;stroke-opacity:1"
       id="rect3833-3-5-3-1"
       width="3.7880721"
       height="21.465742"
       x="457.51022"
       y="440.302"
       transform="matrix(0.91791189,0.39678427,-0.39678427,0.91791189,0,0)"
       inkscape:transform-center-x="-11.716471"
       inkscape:transform-center-y="-17.009361" />
    <text
       xml:space="preserve"
       style="font-size:40px;font-style:normal;font-weight:normal;line-height:125%;letter-spacing:0px;word-spacing:0px;fill:#000000;fill-opacity:1;stroke:none;font-family:Sans"
       x="223.75"
       y="499.32648"
       id="text4009"
       sodipodi:linespacing="125%"><tspan
         sodipodi:role="line"
         id="tspan4011"
         x="223.75"
         y="499.32648" /></text>
    <text
       xml:space="preserve"
       style="font-size:10px;font-style:normal;font-weight:normal;line-height:125%;letter-spacing:0px;word-spacing:0px;fill:#000000;fill-opacity:1;stroke:none;font-family:Sans"
       x="222.14285"
       y="501.64789"
       id="text4013"
       sodipodi:linespacing="125%"><tspan
         sodipodi:role="line"
         id="tspan4015"
         x="222.14285"
         y="501.64789">s</tspan></text>
    <text
       xml:space="preserve"
       style="font-size:8px;font-style:normal;font-weight:normal;line-height:125%;letter-spacing:0px;word-spacing:0px;fill:#000000;fill-opacity:1;stroke:none;font-family:Sans"
       x="227.15805"
       y="501.87955"
       id="text4017"
       sodipodi:linespacing="125%"><tspan
         sodipodi:role="line"
         id="tspan4019"
         x="227.15805"
         y="501.87955">1</tspan></text>
    <text
       xml:space="preserve"
       style="font-size:10px;font-style:normal;font-weight:normal;line-height:125%;letter-spacing:0px;word-spacing:0px;fill:#000000;fill-opacity:1;stroke:none;font-family:Sans"
       x="330.59222"
       y="502.31094"
       id="text4013-2"
       sodipodi:linespacing="125%"><tspan
         sodipodi:role="line"
         id="tspan4015-9"
         x="330.59222"
         y="502.31094">s</tspan></text>
    <text
       xml:space="preserve"
       style="font-size:8px;font-style:normal;font-weight:normal;line-height:125%;letter-spacing:0px;word-spacing:0px;fill:#000000;fill-opacity:1;stroke:none;font-family:Sans"
       x="335.25"
       y="502.48718"
       id="text4042"
       sodipodi:linespacing="125%"><tspan
         sodipodi:role="line"
         id="tspan4044"
         x="335.25"
         y="502.48718">2</tspan></text>
    <text
       xml:space="preserve"
       style="font-size:10px;font-style:normal;font-weight:normal;line-height:125%;letter-spacing:0px;word-spacing:0px;fill:#000000;fill-opacity:1;stroke:none;font-family:Sans"
       x="437.99316"
       y="502.84167"
       id="text4013-3"
       sodipodi:linespacing="125%"><tspan
         sodipodi:role="line"
         id="tspan4015-1"
         x="437.99316"
         y="502.84167">s</tspan></text>
    <text
       xml:space="preserve"
       style="font-size:8px;font-style:normal;font-weight:normal;line-height:125%;letter-spacing:0px;word-spacing:0px;fill:#000000;fill-opacity:1;stroke:none;font-family:Sans"
       x="443.375"
       y="503.11218"
       id="text4055"
       sodipodi:linespacing="125%"><tspan
         sodipodi:role="line"
         id="tspan4057"
         x="443.375"
         y="503.11218">3</tspan></text>
    <text
       xml:space="preserve"
       style="font-size:8px;font-style:normal;font-weight:normal;line-height:125%;letter-spacing:0px;word-spacing:0px;fill:#000000;fill-opacity:1;stroke:none;font-family:Sans"
       x="548.375"
       y="503.36218"
       id="text4059"
       sodipodi:linespacing="125%"><tspan
         sodipodi:role="line"
         id="tspan4061"
         x="548.375"
         y="503.36218">4</tspan></text>
    <text
       xml:space="preserve"
       style="font-size:10px;font-style:normal;font-weight:normal;line-height:125%;letter-spacing:0px;word-spacing:0px;fill:#000000;fill-opacity:1;stroke:none;font-family:Sans"
       x="542.99316"
       y="503.09167"
       id="text4013-9"
       sodipodi:linespacing="125%"><tspan
         sodipodi:role="line"
         id="tspan4015-4"
         x="542.99316"
         y="503.09167">s</tspan></text>
    <path
       sodipodi:type="arc"
       style="fill:none;stroke:#000000;stroke-width:6;stroke-linecap:round;stroke-linejoin:miter;stroke-miterlimit:4;stroke-opacity:1;stroke-dasharray:none"
       id="path4072"
       sodipodi:cx="648.1875"
       sodipodi:cy="598.29968"
       sodipodi:rx="11.3125"
       sodipodi:ry="11.0625"
       d="m 659.5,598.29968 c 0,6.10965 -5.06478,11.0625 -11.3125,11.0625 -6.24772,0 -11.3125,-4.95285 -11.3125,-11.0625 0,-6.10965 5.06478,-11.0625 11.3125,-11.0625 6.24772,0 11.3125,4.95285 11.3125,11.0625 z"
       transform="matrix(0.95961305,0,0,0.96999975,24.115814,16.011617)" />
    <path
       sodipodi:type="arc"
       style="fill:none;stroke:#000000;stroke-width:6;stroke-linecap:round;stroke-linejoin:miter;stroke-miterlimit:4;stroke-opacity:1;stroke-dasharray:none"
       id="path4074"
       sodipodi:cx="646.1875"
       sodipodi:cy="596.17468"
       sodipodi:rx="2.9375"
       sodipodi:ry="3.0625"
       d="m 649.125,596.17468 c 0,1.69137 -1.31516,3.0625 -2.9375,3.0625 -1.62234,0 -2.9375,-1.37113 -2.9375,-3.0625 0,-1.69137 1.31516,-3.0625 2.9375,-3.0625 1.62234,0 2.9375,1.37113 2.9375,3.0625 z"
       transform="translate(0,0.25)" />
    <path
       style="fill:#000000;fill-opacity:1;stroke:#000000;stroke-width:0.75;stroke-linecap:round;stroke-linejoin:miter;stroke-miterlimit:4;stroke-opacity:1;stroke-dasharray:none"
       d="m 454.49071,551.94468 0,-11.1875 2.30876,0 2.30877,0 0.035,1.59375 0.035,1.59375 1.875,0.20019 c 2.07793,0.22186 2.75752,0.39234 3.94499,0.98964 3.83127,1.92715 5.47282,6.48694 3.66814,10.18914 -1.04058,2.13469 -3.03016,3.7698 -5.30063,4.35625 -0.44688,0.11543 -1.57188,0.27903 -2.5,0.36357 l -1.6875,0.15371 -0.0352,1.4675 -0.0352,1.4675 -2.30853,0 -2.30853,0 0,-11.1875 z"
       id="path4084"
       inkscape:connector-curvature="0" />
    <path
       style="fill:#000000;fill-opacity:1;stroke:#000000;stroke-width:0.75;stroke-linecap:round;stroke-linejoin:miter;stroke-miterlimit:4;stroke-opacity:1;stroke-dasharray:none"
       d="m 441.11571,555.06968 0,-11.1875 2.3125,0 2.3125,0 0,11.1875 0,11.1875 -2.3125,0 -2.3125,0 0,-11.1875 z"
       id="path4086"
       inkscape:connector-curvature="0" />
    <path
       style="fill:#000000;fill-opacity:1;stroke:#000000;stroke-width:0.75;stroke-linecap:round;stroke-linejoin:miter;stroke-miterlimit:4;stroke-opacity:1;stroke-dasharray:none"
       d="m 427.21887,561.16343 c -0.012,-1.15157 -0.0434,-1.85469 -0.0697,-1.5625 -0.0263,0.29218 -0.0949,0.53125 -0.15231,0.53125 -0.64201,0 -3.72891,-0.41551 -4.25616,-0.57289 -2.59793,-0.77549 -4.69993,-2.82542 -5.50087,-5.36461 -0.39668,-1.25758 -0.40027,-3.05883 -0.008,-4.25 0.66168,-2.0117 1.9706,-3.64922 3.73919,-4.67792 1.12396,-0.65375 2.15884,-0.96022 3.81589,-1.13006 0.69672,-0.0714 1.50473,-0.16117 1.7956,-0.19947 l 0.52884,-0.0697 0.0362,2.78855 c 0.0283,2.17788 0.0425,1.851 0.0649,-1.4927 l 0.0287,-4.28125 2.3125,0 2.3125,0 0,11.1875 0,11.1875 -2.3125,0 -2.3125,0 -0.0218,-2.09375 z"
       id="path4088"
       inkscape:connector-curvature="0" />
    <path
       style="fill:#000000;fill-opacity:1;stroke:#000000;stroke-width:0.75;stroke-linecap:round;stroke-linejoin:miter;stroke-miterlimit:4;stroke-opacity:1;stroke-dasharray:none"
       d="m 426.95719,597.28212 c -2.37697,-5.5481 -4.34026,-10.16607 -4.36287,-10.26217 -0.0282,-0.11973 0.61781,-0.46067 2.05192,-1.08298 1.15117,-0.49953 2.11842,-0.86717 2.14944,-0.81698 0.11003,0.17804 8.69503,20.29745 8.69503,20.37728 0,0.0682 -0.88063,0.4615 -3.82463,1.70833 l -0.38713,0.16395 -4.32176,-10.08743 0,0 z"
       id="path4090"
       inkscape:connector-curvature="0" />
    <path
       style="fill:#000000;fill-opacity:1;stroke:#000000;stroke-width:0.75;stroke-linecap:round;stroke-linejoin:miter;stroke-miterlimit:4;stroke-opacity:1;stroke-dasharray:none"
       d="m 453.61571,606.24755 c -1.06563,-0.47306 -1.98288,-0.87642 -2.03834,-0.89636 -0.0794,-0.0285 8.5645,-20.25625 8.74257,-20.45864 0.10326,-0.11738 4.27743,1.76682 4.22276,1.90613 -0.66542,1.69562 -8.7847,20.26162 -8.86938,20.2812 -0.0661,0.0153 -0.99199,-0.35927 -2.05761,-0.83233 z"
       id="path4092"
       inkscape:connector-curvature="0" />
    <path
       style="fill:#000000;fill-opacity:1;stroke:#000000;stroke-width:0.75;stroke-linecap:round;stroke-linejoin:miter;stroke-miterlimit:4;stroke-opacity:1;stroke-dasharray:none"
       d="m 346.86571,552.06968 0,-11.1875 2.30876,0 2.30877,0 0.035,1.59375 0.035,1.59375 1.875,0.19714 c 1.03125,0.10843 2.18437,0.29907 2.5625,0.42365 2.77414,0.91396 4.67754,2.81621 5.48942,5.48612 0.31821,1.04643 0.34961,2.80579 0.0696,3.89807 -0.54523,2.1267 -2.13945,4.07237 -4.184,5.10637 -1.09266,0.5526 -2.0243,0.78473 -3.8125,0.94993 -2.30188,0.21265 -2.0625,0.0164 -2.0625,1.6911 l 0,1.43512 -2.3125,0 -2.3125,0 0,-11.1875 z"
       id="path4094"
       inkscape:connector-curvature="0" />
    <path
       style="fill:#000000;fill-opacity:1;stroke:#000000;stroke-width:0.75;stroke-linecap:round;stroke-linejoin:miter;stroke-miterlimit:4;stroke-opacity:1;stroke-dasharray:none"
       d="m 333.49071,555.19468 0,-11.1875 2.3125,0 2.3125,0 0,11.1875 0,11.1875 -2.3125,0 -2.3125,0 0,-11.1875 z"
       id="path4096"
       inkscape:connector-curvature="0" />
    <path
       style="fill:#000000;fill-opacity:1;stroke:#000000;stroke-width:0.75;stroke-linecap:round;stroke-linejoin:miter;stroke-miterlimit:4;stroke-opacity:1;stroke-dasharray:none"
       d="m 319.58739,559.47593 c -0.0195,-2.69312 -0.0398,-3.17837 -0.0653,-1.5625 -0.0276,1.75092 -0.0758,2.34309 -0.19043,2.34115 -0.78947,-0.0134 -3.67503,-0.4005 -4.21599,-0.56564 -2.18824,-0.66801 -4.04628,-2.22226 -5.01999,-4.19924 -0.5934,-1.20481 -0.7863,-2.048 -0.7824,-3.42002 0.006,-2.06143 0.77122,-3.81003 2.35381,-5.37775 1.50705,-1.49288 3.06281,-2.18102 5.49432,-2.43023 0.69672,-0.0714 1.50492,-0.1612 1.79602,-0.19954 l 0.52926,-0.0697 0.0353,3.47611 c 0.0305,3.00563 0.0393,2.80361 0.0645,-1.49264 l 0.0292,-4.96875 2.3125,0 2.3125,0 0,11.1875 0,11.1875 -2.3125,0 -2.3125,0 -0.0283,-3.90625 z"
       id="path4098"
       inkscape:connector-curvature="0" />
    <path
       style="fill:#000000;fill-opacity:1;stroke:#000000;stroke-width:0.75;stroke-linecap:round;stroke-linejoin:miter;stroke-miterlimit:4;stroke-opacity:1;stroke-dasharray:none"
       d="m 319.32249,597.40751 c -2.37228,-5.55207 -4.33147,-10.17176 -4.35376,-10.26598 -0.0273,-0.11535 0.64645,-0.46941 2.06234,-1.08379 l 2.10286,-0.91248 0.16827,0.39971 c 0.0925,0.21984 2.05719,4.80603 4.36588,10.19154 2.3087,5.38551 4.19763,9.83123 4.19763,9.87938 0,0.0736 -0.87514,0.46589 -3.83375,1.71852 l -0.39624,0.16776 -4.31323,-10.09466 z"
       id="path4100"
       inkscape:connector-curvature="0" />
    <path
       style="fill:#000000;fill-opacity:1;stroke:#000000;stroke-width:0.75;stroke-linecap:round;stroke-linejoin:miter;stroke-miterlimit:4;stroke-opacity:1;stroke-dasharray:none"
       d="m 345.99071,606.37447 c -1.06563,-0.47334 -1.98366,-0.87751 -2.04008,-0.89815 -0.0819,-0.0299 8.56619,-20.26771 8.74274,-20.45933 0.0267,-0.029 0.9996,0.35835 2.162,0.86072 l 2.11347,0.9134 -0.30169,0.70178 c -4.54107,10.56313 -8.53525,19.6939 -8.62415,19.71499 -0.0631,0.015 -0.98667,-0.36006 -2.05229,-0.83341 z"
       id="path4102"
       inkscape:connector-curvature="0" />
    <path
       style="fill:#000000;fill-opacity:1;stroke:#000000;stroke-width:0.75;stroke-linecap:round;stroke-linejoin:miter;stroke-miterlimit:4;stroke-opacity:1;stroke-dasharray:none"
       d="m 211.86571,561.96925 0,-1.53793 -1.78125,-0.15734 c -2.02782,-0.17912 -2.79103,-0.36614 -4.03125,-0.98778 -2.87635,-1.44173 -4.58213,-4.28468 -4.40218,-7.33693 0.11924,-2.02256 0.84007,-3.59019 2.33056,-5.06843 1.63509,-1.62164 3.1298,-2.23418 6.11427,-2.50566 l 1.76985,-0.16098 0,-1.47851 0,-1.47851 2.375,0 2.375,0 0,11.125 0,11.125 -2.375,0 -2.375,0 0,-1.53793 z"
       id="path4104"
       inkscape:connector-curvature="0" />
    <path
       style="fill:#000000;fill-opacity:1;stroke:#000000;stroke-width:0.75;stroke-linecap:round;stroke-linejoin:miter;stroke-miterlimit:4;stroke-opacity:1;stroke-dasharray:none"
       d="m 225.86571,555.44468 0,-11.1875 2.3125,0 2.3125,0 0,11.1875 0,11.1875 -2.3125,0 -2.3125,0 0,-11.1875 z"
       id="path4106"
       inkscape:connector-curvature="0" />
    <path
       style="fill:#000000;fill-opacity:1;stroke:#000000;stroke-width:0.75;stroke-linecap:round;stroke-linejoin:miter;stroke-miterlimit:4;stroke-opacity:1;stroke-dasharray:none"
       d="m 239.24071,552.25718 0,-11.125 2.3125,0 2.3125,0 0,1.5625 c 0,0.85937 0.0221,1.5625 0.0491,1.5625 0.59156,0 3.78909,0.42951 4.30584,0.57838 3.61975,1.04286 6.09927,4.44493 5.85691,8.0361 -0.22062,3.26917 -2.53785,6.07346 -5.8369,7.06378 -0.51701,0.1552 -3.47043,0.54791 -4.28125,0.56927 -0.0516,10e-4 -0.0937,0.64934 -0.0937,1.43997 l 0,1.4375 -2.3125,0 -2.3125,0 0,-11.125 z"
       id="path4108"
       inkscape:connector-curvature="0" />
    <path
       style="fill:#000000;fill-opacity:1;stroke:#000000;stroke-width:0.75;stroke-linecap:round;stroke-linejoin:miter;stroke-miterlimit:4;stroke-opacity:1;stroke-dasharray:none"
       d="m 238.37536,606.5749 c -1.12906,-0.48662 -2.07177,-0.94158 -2.09492,-1.01102 -0.0339,-0.1018 8.6071,-20.2452 8.74299,-20.3811 0.0215,-0.0215 0.98166,0.36613 2.13368,0.8614 1.54793,0.66548 2.08116,0.94943 2.04316,1.088 -0.0371,0.13535 -7.09363,16.49102 -8.63207,20.0075 l -0.13999,0.32 -2.05285,-0.88478 z"
       id="path4110"
       inkscape:connector-curvature="0" />
    <path
       style="fill:#000000;fill-opacity:1;stroke:#000000;stroke-width:0.75;stroke-linecap:round;stroke-linejoin:miter;stroke-miterlimit:4;stroke-opacity:1;stroke-dasharray:none"
       d="m 211.56861,597.43305 c -2.39778,-5.6068 -4.31028,-10.23744 -4.25,-10.29031 0.26741,-0.23455 4.08556,-1.77089 4.16863,-1.67737 0.0675,0.076 6.42346,14.89013 8.57996,19.99764 l 0.16607,0.39334 -2.06833,0.88791 c -1.13758,0.48836 -2.10622,0.88681 -2.15253,0.88545 -0.0463,-0.001 -2.04602,-4.58985 -4.4438,-10.19666 l 0,0 z"
       id="path4112"
       inkscape:connector-curvature="0" />
    <path
       style="fill:none;stroke:#000000;stroke-width:1px;stroke-linecap:butt;stroke-linejoin:miter;stroke-opacity:1"
       d="m 618.1881,494.98526 -0.88388,9.19239"
       id="path4120"
       inkscape:connector-curvature="0" />
    <path
       style="fill:none;stroke:#000000;stroke-width:1px;stroke-linecap:butt;stroke-linejoin:miter;stroke-opacity:1"
       d="m 620.83976,504.35443 -3.71232,-0.17678"
       id="path4122"
       inkscape:connector-curvature="0" />
    <path
       style="fill:none;stroke:#000000;stroke-width:1px;stroke-linecap:butt;stroke-linejoin:miter;stroke-opacity:1"
       d="m 618.1881,495.33881 3.35876,0"
       id="path4124"
       inkscape:connector-curvature="0" />
    <path
       style="fill:none;stroke:#000000;stroke-width:1px;stroke-linecap:butt;stroke-linejoin:miter;stroke-opacity:1"
       d="m 617.65777,499.05113 2.82843,0"
       id="path4126"
       inkscape:connector-curvature="0" />
    <path
       style="fill:none;stroke:#000000;stroke-width:1px;stroke-linecap:butt;stroke-linejoin:miter;stroke-opacity:1"
       d="m 621.72364,495.69237 c 0.17678,0.2357 0.76603,0.53033 0.53033,0.7071 -0.2357,0.17678 -0.73866,-0.91544 -0.53033,-0.7071 0.7298,0.7298 0.70711,0.61189 0.70711,1.23743 0,0.0589 0,0.11786 0,0.17678 0,0.0589 0.0417,0.13511 0,0.17678 -0.0417,0.0417 -0.13511,-0.0417 -0.17678,0 -0.0417,0.0417 0,0.11785 0,0.17678 0,0.0589 0,0.2357 0,0.17677 0,-0.11785 0,-0.4714 0,-0.35355 0,0.29358 0.125,0.55622 -0.17678,0.70711 -0.0527,0.0263 -0.12407,-0.0264 -0.17677,0 -0.0745,0.0373 -0.10225,0.1395 -0.17678,0.17677 -0.0527,0.0263 -0.13511,-0.0417 -0.17678,0 -0.0417,0.0417 0.0417,0.13511 0,0.17678 -0.0417,0.0417 -0.12407,-0.0263 -0.17677,0 -0.0745,0.0373 -0.11786,0.11785 -0.17678,0.17678 -0.0589,0.0589 -0.13951,0.10224 -0.17678,0.17677 -0.0263,0.0527 0.0417,0.13511 0,0.17678 -0.0417,0.0417 -0.11785,0 -0.17677,0 2.6678,-0.69407 0.40664,0.7602 0.7071,1.06066 0.0417,0.0417 0.13511,-0.0417 0.17678,0 0.0417,0.0417 -0.0264,0.12407 0,0.17678 0.0373,0.0745 0.13951,0.10224 0.17678,0.17677 0.032,0.0639 0,0.76093 0,0.88389 0,0.12295 0.032,0.81995 0,0.88388 -0.0373,0.0745 -0.13951,0.10224 -0.17678,0.17678 -0.2357,0.4714 0.17678,-0.0589 0.17678,0.17677 0,0.0589 -0.13511,-0.0417 -0.17678,0 -0.0425,0.0425 0.0425,0.66457 0,0.70711 -0.0361,0.0361 -0.46024,-0.0351 -0.53033,0 -0.5863,0.29315 0,0.12395 0,0.17678 0,0.0833 -0.13951,0.10224 -0.17678,0.17677 -0.0263,0.0527 0.0417,0.13511 0,0.17678 -0.0417,0.0417 -0.17677,0.0589 -0.17677,0 0,-0.0589 0.2357,0 0.17677,0 -0.41248,0 -0.35355,-0.11785 -0.35355,0.17678"
       id="path4128"
       inkscape:connector-curvature="0" />
    <path
       style="fill:none;stroke:#000000;stroke-width:1px;stroke-linecap:butt;stroke-linejoin:miter;stroke-opacity:1"
       d="m 630.3857,498.5208 c -0.28074,0.15789 -0.50687,0.54218 -0.84579,0.517 -0.0855,0.0915 -0.0236,0.29522 -0.21487,0.36688 0.0481,0.11947 -0.0239,0.26302 -0.0221,0.0663 0.0417,-0.15247 0.0142,0.17715 0.0221,0.24474 0.004,0.17879 -0.012,0.35917 0.0176,0.53594 -0.062,0.24445 -0.27165,-0.10021 -0.19497,0.13661 -0.0628,0.17787 0.15891,0.69573 -0.15833,0.59715 -0.0506,0.25618 -0.006,0.55917 -0.0182,0.83256 -0.0853,0.13085 0.075,0.43824 0.18263,0.22179 -0.0215,0.40515 0.0178,0.81397 -0.0231,1.21709 0.0802,0.0804 0.30384,-0.0221 0.20991,0.22026 -0.0709,0.1952 -0.058,0.41134 0.17149,0.36485 -0.11605,0.24348 0.26607,0.32328 0.1843,0.0491 0.1326,0.12643 0.13789,0.34711 0.18175,0.46506 0.53806,0.004 1.07735,-0.0107 1.61485,0.004 0.2588,0.10347 5.7e-4,-0.32899 0.28909,-0.17238 0.0234,-0.13243 -0.008,-0.24935 0.19463,-0.18704 0.0398,-0.15505 -0.11702,-0.449 0.17677,-0.35355 0.0342,-0.19296 -0.0731,-0.41745 0.17678,-0.53033 -0.058,-0.17277 0.029,-0.20938 0.17678,-0.17678 0.0398,-0.15505 -0.11702,-0.449 0.17677,-0.35355 9e-5,-0.34084 0.0171,-0.68496 -0.0176,-1.02374 0.07,-0.095 0.29902,0.0418 0.18411,-0.19585 0.12595,-0.012 0.29299,-0.0149 0.17408,-0.22586 -0.0597,-0.31548 0.10146,0.0375 0.013,-0.005 0.005,-0.21123 -0.0142,-0.42446 0.0176,-0.6336 -0.0467,-0.10711 -0.29832,0.0547 -0.18914,-0.16971 -0.17027,-0.15218 -0.21108,-0.34417 -0.18201,-0.57432 -0.0138,-0.12179 0.0542,-0.244 -0.0729,-0.11334 -0.21931,-0.0185 0.0202,-0.36512 -0.26276,-0.22995 -0.0633,-0.12171 0.005,-0.29684 -0.0178,-0.44318 0.007,-0.25578 -0.0167,-0.51399 0.0176,-0.7676 -0.10729,-0.14294 -0.48315,0.12217 -0.37114,-0.21369 -0.15867,-0.0175 -0.41584,0.0147 -0.53034,-10e-6 0.20684,-0.20704 -0.27392,-0.27079 -0.34967,-0.054 -0.24548,0.1843 -0.47142,0.39269 -0.71098,0.58434 z"
       id="path4134"
       inkscape:connector-curvature="0" />
    <path
       style="fill:none;stroke:#000000;stroke-width:1px;stroke-linecap:butt;stroke-linejoin:miter;stroke-opacity:1"
       d="m 637.81032,498.16724 c -0.29463,0 -0.58926,0 -0.88389,0 -0.0589,0 -0.13511,-0.0417 -0.17677,0 -0.0417,0.0417 0.0417,0.13511 0,0.17678 -0.0833,0.0833 -0.27022,-0.0833 -0.35356,0 -0.0833,0.0833 0.0833,0.27022 0,0.35355 -0.0417,0.0417 -0.12407,-0.0263 -0.17677,0 -0.21845,0.10922 -0.17678,0.17068 -0.17678,0.35356 0,0.0589 0.0589,0.17677 0,0.17677 -0.0528,0 0.11637,-0.58629 -0.17678,0 -0.035,0.0701 0.0361,0.49419 0,0.53033 -0.0417,0.0417 -0.13511,-0.0417 -0.17677,0 -0.0417,0.0417 0.0263,0.12407 0,0.17678 -0.0373,0.0745 -0.11785,0.2357 -0.17678,0.17678 -0.0589,-0.0589 0.17678,-0.26011 0.17678,-0.17678 0,0.13176 -0.13511,0.22855 -0.17678,0.35355 -0.0373,0.11181 0.0833,0.27022 0,0.35356 -0.0417,0.0417 -0.13511,-0.0417 -0.17678,0 -0.0361,0.0361 0.0351,0.46024 0,0.53033 -0.0373,0.0745 -0.1395,0.10224 -0.17677,0.17677 -0.0181,0.0363 -0.0249,0.5054 0,0.53033 0.2357,0.2357 0.17677,-0.29463 0.17677,0.17678 0,0.0649 -0.007,0.69999 0,0.70711 0.0417,0.0417 0.13511,-0.0417 0.17678,0 0.0417,0.0417 -0.0417,0.13511 0,0.17677 0.0417,0.0417 0.13511,-0.0417 0.17678,0 0.0833,0.0833 -0.0833,0.27022 0,0.35356 0.0417,0.0417 0.13511,-0.0417 0.17677,0 0.0833,0.0833 -0.0833,0.27022 0,0.35355 0.0884,0.0884 0.44195,-0.0884 0.53033,0 0.0417,0.0417 -0.0417,0.13511 0,0.17678 0.0417,0.0417 0.13511,-0.0417 0.17678,0 0.2357,0.2357 -0.29463,0.17677 0.17678,0.17677 0.0589,0 0.11785,0 0.17677,0 0.0589,0 0.17678,-0.0589 0.17678,0 0,0.0589 -0.2357,0 -0.17678,0 0.11786,0 0.23571,0 0.35356,0 0.0589,0 0.13511,-0.0417 0.17677,0 0.0417,0.0417 -0.0417,0.13511 0,0.17678 0.0417,0.0417 0.17678,0.0589 0.17678,0 0,-0.0833 -0.26011,-0.17678 -0.17678,-0.17678 0.89305,0 0.13586,0.13586 0.35356,0.35356 0.0417,0.0417 0.13511,0.0417 0.17677,0 0.0417,-0.0417 -0.0417,-0.13511 0,-0.17678 0.0417,-0.0417 0.11786,0 0.17678,0 0.0589,0 0.11785,0 0.17678,0"
       id="path4137"
       inkscape:connector-curvature="0" />
    <path
       style="fill:none;stroke:#000000;stroke-width:1px;stroke-linecap:butt;stroke-linejoin:miter;stroke-opacity:1"
       d="m 638.87098,498.5208 -0.35356,5.65685"
       id="path4139"
       inkscape:connector-curvature="0" />
    <path
       style="fill:none;stroke:#000000;stroke-width:1px;stroke-linecap:butt;stroke-linejoin:miter;stroke-opacity:1"
       d="m 637.27999,497.63691 c 0.35355,0 0.7071,0 1.06066,0 0.0589,0 0.2357,0 0.17677,0 -0.11785,0 -0.4714,0 -0.35355,0 0.17678,0 0.35355,0 0.53033,0"
       id="path4141"
       inkscape:connector-curvature="0" />
    <path
       style="fill:none;stroke:#000000;stroke-width:1px;stroke-linecap:butt;stroke-linejoin:miter;stroke-opacity:1"
       d="m 645.23494,494.63171 -0.17678,9.54594 -2.65165,0"
       id="path4143"
       inkscape:connector-curvature="0" />
    <path
       style="fill:none;stroke:#000000;stroke-width:1px;stroke-linecap:butt;stroke-linejoin:miter;stroke-opacity:1"
       d="m 644.70461,498.16724 c -0.6052,-0.27154 -0.57657,0.37667 -0.88388,0.53033 -0.14143,0.0707 -0.38891,-0.0707 -0.53033,0 -0.0745,0.0373 -0.17678,0.0935 -0.17678,0.17678 0,0.0589 0.17678,-0.0589 0.17678,0 0,0.0589 -0.11786,0 -0.17678,0 -0.0589,0 -0.11785,0 -0.17678,0 -0.0589,0 -0.13511,-0.0417 -0.17677,0 -0.0417,0.0417 0.0589,0.17678 0,0.17678 -0.0589,0 0.0417,-0.13511 0,-0.17678 -0.0417,-0.0417 -0.11786,0 -0.17678,0 -0.0589,0 -0.13511,-0.0417 -0.17678,0 -0.0417,0.0417 0.0417,0.13511 0,0.17678 -0.0833,0.0833 -0.27022,-0.0833 -0.35355,0 -0.0417,0.0417 0,0.11785 0,0.17677 -0.0589,0 -0.13511,-0.0417 -0.17678,0 -0.0425,0.0425 0.0425,0.66457 0,0.70711 -0.0417,0.0417 -0.13511,-0.0417 -0.17677,0 -0.0884,0.0884 0.0884,0.44194 0,0.53033 -0.0417,0.0417 -0.13511,-0.0417 -0.17678,0 -0.0833,0.0833 0.0833,0.27022 0,0.35355 -0.0417,0.0417 -0.13511,-0.0417 -0.17678,0 -0.0417,0.0417 0,0.11785 0,0.17678 0,0.35355 0,0.70711 0,1.06066 0,0.0589 -0.0264,0.12407 0,0.17678 0.0373,0.0745 0.13951,0.10224 0.17678,0.17677 0.0479,0.0959 -0.0484,0.65874 0,0.70711 0.0417,0.0417 0.13511,-0.0417 0.17678,0 0.0884,0.0884 -0.0884,0.44194 0,0.53033 0.0417,0.0417 0.13511,-0.0417 0.17677,0 0.11779,0.11779 -0.11779,0.23576 0,0.35355 0.0417,0.0417 0.13511,-0.0417 0.17678,0 0.0417,0.0417 -0.0417,0.13511 0,0.17678 0.006,0.006 0.48746,0 0.53033,0"
       id="path4153"
       inkscape:connector-curvature="0" />
    <path
       style="fill:none;stroke:#000000;stroke-width:1px;stroke-linecap:butt;stroke-linejoin:miter;stroke-opacity:1"
       d="m 648.24014,494.63171 -0.17677,8.3085"
       id="path4157"
       inkscape:connector-curvature="0" />
    <path
       style="fill:none;stroke:#000000;stroke-width:1px;stroke-linecap:butt;stroke-linejoin:miter;stroke-opacity:1"
       d="m 647.88659,502.94021 1.23744,1.41422"
       id="path4161"
       inkscape:connector-curvature="0" />
    <path
       style="fill:none;stroke:#000000;stroke-width:1px;stroke-linecap:butt;stroke-linejoin:miter;stroke-opacity:1"
       d="m 649.3008,504.17765 2.2981,0"
       id="path4167"
       inkscape:connector-curvature="0" />
    <path
       style="fill:none;stroke:#000000;stroke-width:1.04543996px;stroke-linecap:butt;stroke-linejoin:miter;stroke-opacity:1"
       d="m 654.25055,498.56727 0,6.18263"
       id="path4171"
       inkscape:connector-curvature="0" />
    <path
       style="fill:none;stroke:#000000;stroke-width:1px;stroke-linecap:butt;stroke-linejoin:miter;stroke-opacity:1"
       d="m 656.72542,504.70798 0.35356,-6.36396"
       id="path4173"
       inkscape:connector-curvature="0" />
    <path
       style="fill:none;stroke:#000000;stroke-width:1px;stroke-linecap:butt;stroke-linejoin:miter;stroke-opacity:1"
       d="m 657.25575,497.81369 2.82843,0.17678"
       id="path4181"
       inkscape:connector-curvature="0" />
    <path
       style="fill:none;stroke:#000000;stroke-width:1px;stroke-linecap:butt;stroke-linejoin:miter;stroke-opacity:1"
       d="m 659.55385,504.00087 0.53033,-5.83363"
       id="path4183"
       inkscape:connector-curvature="0" />
    <path
       style="fill:none;stroke:#000000;stroke-width:1px;stroke-linecap:butt;stroke-linejoin:miter;stroke-opacity:1"
       d="m 663.26616,494.45493 -0.17677,9.36917 3.88908,-5.83363"
       id="path4185"
       inkscape:connector-curvature="0" />
    <path
       style="fill:none;stroke:#000000;stroke-width:1px;stroke-linecap:butt;stroke-linejoin:miter;stroke-opacity:1"
       d="m 665.03393,501.34922 1.41421,3.53554"
       id="path4187"
       inkscape:connector-curvature="0" />
    <path
       sodipodi:type="arc"
       style="fill:#000000;fill-opacity:1;stroke:#000000;stroke-width:1;stroke-linecap:round;stroke-linejoin:miter;stroke-miterlimit:1;stroke-opacity:1;stroke-dasharray:none"
       id="path4251"
       sodipodi:cx="633.78864"
       sodipodi:cy="494.05719"
       sodipodi:rx="0.30935922"
       sodipodi:ry="0.30935922"
       d="m 634.09799,494.05719 c 0,0.17085 -0.1385,0.30936 -0.30935,0.30936 -0.17086,0 -0.30936,-0.13851 -0.30936,-0.30936 0,-0.17085 0.1385,-0.30936 0.30936,-0.30936 0.17085,0 0.30935,0.13851 0.30935,0.30936 z"
       transform="matrix(1.8190586,0,0,1.8190586,-518.4471,-403.91047)" />
    <path
       sodipodi:type="arc"
       style="fill:#000000;fill-opacity:1;stroke:#000000;stroke-width:1;stroke-linecap:round;stroke-linejoin:miter;stroke-miterlimit:1;stroke-opacity:1;stroke-dasharray:none"
       id="path4251-4"
       sodipodi:cx="633.78864"
       sodipodi:cy="494.05719"
       sodipodi:rx="0.30935922"
       sodipodi:ry="0.30935922"
       d="m 634.09799,494.05719 c 0,0.17085 -0.1385,0.30936 -0.30935,0.30936 -0.17086,0 -0.30936,-0.13851 -0.30936,-0.30936 0,-0.17085 0.1385,-0.30936 0.30936,-0.30936 0.17085,0 0.30935,0.13851 0.30935,0.30936 z"
       transform="matrix(1.7003415,0,0,1.5574843,-438.47676,-278.30176)" />
    <path
       sodipodi:type="arc"
       style="fill:#000000;fill-opacity:1;stroke:#000000;stroke-width:1;stroke-linecap:round;stroke-linejoin:miter;stroke-miterlimit:1;stroke-opacity:1;stroke-dasharray:none"
       id="path4251-5"
       sodipodi:cx="633.78864"
       sodipodi:cy="494.05719"
       sodipodi:rx="0.30935922"
       sodipodi:ry="0.30935922"
       d="m 634.09799,494.05719 c 0,0.17085 -0.1385,0.30936 -0.30935,0.30936 -0.17086,0 -0.30936,-0.13851 -0.30936,-0.30936 0,-0.17085 0.1385,-0.30936 0.30936,-0.30936 0.17085,0 0.30935,0.13851 0.30935,0.30936 z"
       transform="matrix(1.2846598,0,0,1.4275169,-170.51463,-215.68143)" />
    <path
       sodipodi:type="arc"
       style="fill:#000000;fill-opacity:1;stroke:#000000;stroke-width:1;stroke-linecap:round;stroke-linejoin:miter;stroke-miterlimit:1;stroke-opacity:1;stroke-dasharray:none"
       id="path4251-46"
       sodipodi:cx="633.78864"
       sodipodi:cy="494.05719"
       sodipodi:rx="0.30935922"
       sodipodi:ry="0.30935922"
       d="m 634.09799,494.05719 c 0,0.17085 -0.1385,0.30936 -0.30935,0.30936 -0.17086,0 -0.30936,-0.13851 -0.30936,-0.30936 0,-0.17085 0.1385,-0.30936 0.30936,-0.30936 0.17085,0 0.30935,0.13851 0.30935,0.30936 z"
       transform="matrix(1.318411,0,0,1.1755539,-188.23766,-91.418252)" />
    <path
       sodipodi:type="arc"
       style="fill:#000000;fill-opacity:1;stroke:#000000;stroke-width:1;stroke-linecap:round;stroke-linejoin:miter;stroke-miterlimit:1;stroke-opacity:1;stroke-dasharray:none"
       id="path4251-6"
       sodipodi:cx="633.78864"
       sodipodi:cy="494.05719"
       sodipodi:rx="0.30935922"
       sodipodi:ry="0.30935922"
       d="m 634.09799,494.05719 c 0,0.17085 -0.1385,0.30936 -0.30935,0.30936 -0.17086,0 -0.30936,-0.13851 -0.30936,-0.30936 0,-0.17085 0.1385,-0.30936 0.30936,-0.30936 0.17085,0 0.30935,0.13851 0.30935,0.30936 z"
       transform="matrix(1.1210079,0,0,1.2638651,-60.032234,-134.07675)" />
    <path
       sodipodi:type="arc"
       style="fill:#000000;fill-opacity:1;stroke:#000000;stroke-width:1;stroke-linecap:round;stroke-linejoin:miter;stroke-miterlimit:1;stroke-opacity:1;stroke-dasharray:none"
       id="path4251-3"
       sodipodi:cx="633.78864"
       sodipodi:cy="494.05719"
       sodipodi:rx="0.30935922"
       sodipodi:ry="0.30935922"
       d="m 634.09799,494.05719 c 0,0.17085 -0.1385,0.30936 -0.30935,0.30936 -0.17086,0 -0.30936,-0.13851 -0.30936,-0.30936 0,-0.17085 0.1385,-0.30936 0.30936,-0.30936 0.17085,0 0.30935,0.13851 0.30935,0.30936 z"
       transform="matrix(0.78158441,0,0,0.78158441,157.60961,106.3188)" />
    <path
       sodipodi:type="arc"
       style="fill:#000000;fill-opacity:1;stroke:#000000;stroke-width:1;stroke-linecap:round;stroke-linejoin:miter;stroke-miterlimit:1;stroke-opacity:1;stroke-dasharray:none"
       id="path4251-5-9"
       sodipodi:cx="633.78864"
       sodipodi:cy="494.05719"
       sodipodi:rx="0.30935922"
       sodipodi:ry="0.30935922"
       d="m 634.09799,494.05719 c 0,0.17085 -0.1385,0.30936 -0.30935,0.30936 -0.17086,0 -0.30936,-0.13851 -0.30936,-0.30936 0,-0.17085 0.1385,-0.30936 0.30936,-0.30936 0.17085,0 0.30935,0.13851 0.30935,0.30936 z"
       transform="matrix(1.2846598,0,0,1.4275169,-159.4219,-210.37811)" />
    <path
       style="fill:none;stroke:#000000;stroke-width:1px;stroke-linecap:butt;stroke-linejoin:miter;stroke-opacity:1"
       d="m 624.37529,504.61959 0.35355,-6.54074 1.76777,0.17678"
       id="path4317"
       inkscape:connector-curvature="0" />
  </g>
</svg>
