<?xml version="1.0" encoding="UTF-8" standalone="no"?>
<svg
   xmlns:dc="http://purl.org/dc/elements/1.1/"
   xmlns:cc="http://creativecommons.org/ns#"
   xmlns:rdf="http://www.w3.org/1999/02/22-rdf-syntax-ns#"
   xmlns:svg="http://www.w3.org/2000/svg"
   xmlns="http://www.w3.org/2000/svg"
   xmlns:sodipodi="http://sodipodi.sourceforge.net/DTD/sodipodi-0.dtd"
   xmlns:inkscape="http://www.inkscape.org/namespaces/inkscape"
   data-name="Layer 1"
   viewBox="0 0 702.01856 226.15801"
   x="0px"
   y="0px"
   id="svg3207"
   version="1.1"
   inkscape:version="0.48.4 r9939"
   width="100%"
   height="100%"
   sodipodi:docname="icon.svg">
  <metadata
     id="metadata3219">
    <rdf:RDF>
      <cc:Work
         rdf:about="">
        <dc:format>image/svg+xml</dc:format>
        <dc:type
           rdf:resource="http://purl.org/dc/dcmitype/StillImage" />
        <dc:title>09</dc:title>
      </cc:Work>
    </rdf:RDF>
  </metadata>
  <defs
     id="defs3217" />
  <sodipodi:namedview
     pagecolor="#ffffff"
     bordercolor="#666666"
     borderopacity="1"
     objecttolerance="10"
     gridtolerance="10"
     guidetolerance="10"
     inkscape:pageopacity="0"
     inkscape:pageshadow="2"
     inkscape:window-width="1920"
     inkscape:window-height="1060"
     id="namedview3215"
     showgrid="false"
     inkscape:zoom="1.888"
     inkscape:cx="328.4135"
     inkscape:cy="150.36309"
     inkscape:window-x="-2"
     inkscape:window-y="-3"
     inkscape:window-maximized="1"
     inkscape:current-layer="svg3207"
     fit-margin-top="1"
     fit-margin-left="1"
     fit-margin-right="1"
     fit-margin-bottom="1" />
  <title
     id="title3209">09</title>
  <path
     style="fill:none;stroke:#000000;stroke-width:4.67519236;stroke-linecap:round;stroke-linejoin:miter;stroke-miterlimit:4;stroke-opacity:1"
     d="M 673.4539,222.7315 C 643.48962,222.7076 33.25984,222.7948 26.384005,222.8068 12.452903,222.8721 4.0420193,214.45332 3.563862,200.49299 3.1673485,188.91626 3.3989753,38.062132 3.6381883,25.54172 3.846174,14.654632 10.884797,3.3163659 26.89165,3.4520339 c 10.284022,-0.280739 623.46935,0.09774 643.43452,-0.07612 13.14817,-0.114495 28.70388,9.4925951 28.34221,30.5225871 -0.32054,18.637607 -1.02458,134.984709 -0.20125,155.360739 0.85107,21.06284 -8.61257,33.31533 -25.01321,33.47226 z"
     id="path3041"
     inkscape:connector-curvature="0"
     sodipodi:nodetypes="ccsscsssc" />
  <path
     sodipodi:type="arc"
     style="fill:#ff0000;fill-opacity:1;stroke:#ff0000;stroke-width:6;stroke-linecap:round;stroke-linejoin:miter;stroke-miterlimit:4;stroke-opacity:1;stroke-dasharray:none"
     id="path3063"
     sodipodi:cx="420.98108"
     sodipodi:cy="555.36713"
     sodipodi:rx="9.3439112"
     sodipodi:ry="9.0913725"
     d="m 420.96718,564.45849 a 9.3439112,9.0913725 0 0 1 -0.0324,-18.18262 l 0.0464,9.09126 z"
     transform="matrix(0.87372095,0,0,0.84109425,-13.819741,-359.44727)"
     sodipodi:start="1.5722835"
     sodipodi:end="4.7074284" />
  <rect
     style="fill:#ff0000;fill-opacity:1;fill-rule:evenodd;stroke:#ff0000;stroke-width:1.27928221px;stroke-linecap:butt;stroke-linejoin:miter;stroke-opacity:1"
     id="rect3833"
     width="4.8460135"
     height="27.460743"
     x="357.1171"
     y="94.01918" />
  <rect
     style="fill:#ff0000;fill-opacity:1;fill-rule:evenodd;stroke:#ff0000;stroke-width:1.27928221px;stroke-linecap:butt;stroke-linejoin:miter;stroke-opacity:1"
     id="rect3833-3"
     width="4.8460135"
     height="27.460743"
     x="374.8858"
     y="97.895996" />
  <rect
     style="fill:#ff0000;fill-opacity:1;fill-rule:evenodd;stroke:#ff0000;stroke-width:1.27928221px;stroke-linecap:butt;stroke-linejoin:miter;stroke-opacity:1"
     id="rect3833-6"
     width="4.8460135"
     height="27.460743"
     x="392.00839"
     y="93.857559" />
  <path
     sodipodi:type="arc"
     style="fill:#ff0000;fill-opacity:1;stroke:#ff0000;stroke-width:6;stroke-linecap:round;stroke-linejoin:miter;stroke-miterlimit:4;stroke-opacity:1;stroke-dasharray:none"
     id="path3063-7"
     sodipodi:cx="420.98108"
     sodipodi:cy="555.36713"
     sodipodi:rx="9.3439112"
     sodipodi:ry="9.0913725"
     d="m 420.96718,564.45849 a 9.3439112,9.0913725 0 0 1 -0.0324,-18.18262 l 0.0464,9.09126 z"
     transform="matrix(-0.87372095,0,0,0.84109425,767.69992,-359.36655)"
     sodipodi:start="1.5722835"
     sodipodi:end="4.7074284" />
  <rect
     style="fill:#ff0000;fill-opacity:1;fill-rule:evenodd;stroke:#ff0000;stroke-width:1.27928221px;stroke-linecap:butt;stroke-linejoin:miter;stroke-opacity:1"
     id="rect3833-3-5"
     width="4.8460135"
     height="27.460743"
     x="262.82751"
     y="278.45456"
     transform="matrix(0.91927532,-0.39361515,0.39361515,0.91927532,0,0)" />
  <rect
     style="fill:#ff0000;fill-opacity:1;fill-rule:evenodd;stroke:#ff0000;stroke-width:1.27928221px;stroke-linecap:butt;stroke-linejoin:miter;stroke-opacity:1"
     id="rect3833-3-5-3"
     width="4.8460135"
     height="27.460743"
     x="426.07776"
     y="-20.382805"
     transform="matrix(0.91791189,0.39678427,-0.39678427,0.91791189,0,0)"
     inkscape:transform-center-x="-14.988686"
     inkscape:transform-center-y="-21.759771" />
  <path
     sodipodi:type="arc"
     style="fill:#000000;fill-opacity:1;stroke:#000000;stroke-width:6;stroke-linecap:round;stroke-linejoin:miter;stroke-miterlimit:4;stroke-opacity:1;stroke-dasharray:none"
     id="path3063-5"
     sodipodi:cx="420.98108"
     sodipodi:cy="555.36713"
     sodipodi:rx="9.3439112"
     sodipodi:ry="9.0913725"
     d="m 420.96718,564.45849 a 9.3439112,9.0913725 0 0 1 -0.0324,-18.18262 l 0.0464,9.09126 z"
     transform="matrix(0.87372095,0,0,0.84109425,122.84761,-359.056)"
     sodipodi:start="1.5722835"
     sodipodi:end="4.7074284" />
  <rect
     style="fill:#000000;fill-opacity:1;fill-rule:evenodd;stroke:#000000;stroke-width:1.27928221px;stroke-linecap:butt;stroke-linejoin:miter;stroke-opacity:1"
     id="rect3833-62"
     width="4.8460135"
     height="27.460743"
     x="493.78439"
     y="94.410446" />
  <rect
     style="fill:#000000;fill-opacity:1;fill-rule:evenodd;stroke:#000000;stroke-width:1.27928221px;stroke-linecap:butt;stroke-linejoin:miter;stroke-opacity:1"
     id="rect3833-3-9"
     width="4.8460135"
     height="27.460743"
     x="511.5531"
     y="98.287254" />
  <rect
     style="fill:#000000;fill-opacity:1;fill-rule:evenodd;stroke:#000000;stroke-width:1.27928221px;stroke-linecap:butt;stroke-linejoin:miter;stroke-opacity:1"
     id="rect3833-6-1"
     width="4.8460135"
     height="27.460743"
     x="528.67566"
     y="94.248817" />
  <path
     sodipodi:type="arc"
     style="fill:#000000;fill-opacity:1;stroke:#000000;stroke-width:6;stroke-linecap:round;stroke-linejoin:miter;stroke-miterlimit:4;stroke-opacity:1;stroke-dasharray:none"
     id="path3063-7-2"
     sodipodi:cx="420.98108"
     sodipodi:cy="555.36713"
     sodipodi:rx="9.3439112"
     sodipodi:ry="9.0913725"
     d="m 420.96718,564.45849 a 9.3439112,9.0913725 0 0 1 -0.0324,-18.18262 l 0.0464,9.09126 z"
     transform="matrix(-0.87372095,0,0,0.84109425,904.36725,-358.97528)"
     sodipodi:start="1.5722835"
     sodipodi:end="4.7074284" />
  <rect
     style="fill:#000000;fill-opacity:1;fill-rule:evenodd;stroke:#000000;stroke-width:1.27928221px;stroke-linecap:butt;stroke-linejoin:miter;stroke-opacity:1"
     id="rect3833-3-5-7"
     width="4.8460135"
     height="27.460743"
     x="388.30841"
     y="332.60858"
     transform="matrix(0.91927532,-0.39361515,0.39361515,0.91927532,0,0)" />
  <rect
     style="fill:#000000;fill-opacity:1;fill-rule:evenodd;stroke:#000000;stroke-width:1.27928221px;stroke-linecap:butt;stroke-linejoin:miter;stroke-opacity:1"
     id="rect3833-3-5-3-0"
     width="4.8460135"
     height="27.460743"
     x="551.68152"
     y="-74.251091"
     transform="matrix(0.91791189,0.39678427,-0.39678427,0.91791189,0,0)"
     inkscape:transform-center-x="-14.988654"
     inkscape:transform-center-y="-21.759779" />
  <path
     sodipodi:type="arc"
     style="fill:#ff0000;fill-opacity:1;stroke:#ff0000;stroke-width:6;stroke-linecap:round;stroke-linejoin:miter;stroke-miterlimit:4;stroke-opacity:1;stroke-dasharray:none"
     id="path3063-9"
     sodipodi:cx="420.98108"
     sodipodi:cy="555.36713"
     sodipodi:rx="9.3439112"
     sodipodi:ry="9.0913725"
     d="m 420.96718,564.45849 a 9.3439112,9.0913725 0 0 1 -0.0324,-18.18262 l 0.0464,9.09126 z"
     transform="matrix(0.87372095,0,0,0.84109425,-151.51274,-359.28443)"
     sodipodi:start="1.5722835"
     sodipodi:end="4.7074284" />
  <rect
     style="fill:#ff0000;fill-opacity:1;fill-rule:evenodd;stroke:#ff0000;stroke-width:1.27928221px;stroke-linecap:butt;stroke-linejoin:miter;stroke-opacity:1"
     id="rect3833-36"
     width="4.8460135"
     height="27.460743"
     x="219.42403"
     y="94.181984" />
  <rect
     style="fill:#ff0000;fill-opacity:1;fill-rule:evenodd;stroke:#ff0000;stroke-width:1.27928221px;stroke-linecap:butt;stroke-linejoin:miter;stroke-opacity:1"
     id="rect3833-3-0"
     width="4.8460135"
     height="27.460743"
     x="237.19273"
     y="98.058792" />
  <rect
     style="fill:#ff0000;fill-opacity:1;fill-rule:evenodd;stroke:#ff0000;stroke-width:1.27928221px;stroke-linecap:butt;stroke-linejoin:miter;stroke-opacity:1"
     id="rect3833-6-6"
     width="4.8460135"
     height="27.460743"
     x="254.31535"
     y="94.020355" />
  <path
     sodipodi:type="arc"
     style="fill:#ff0000;fill-opacity:1;stroke:#ff0000;stroke-width:6;stroke-linecap:round;stroke-linejoin:miter;stroke-miterlimit:4;stroke-opacity:1;stroke-dasharray:none"
     id="path3063-7-26"
     sodipodi:cx="420.98108"
     sodipodi:cy="555.36713"
     sodipodi:rx="9.3439112"
     sodipodi:ry="9.0913725"
     d="m 420.96718,564.45849 a 9.3439112,9.0913725 0 0 1 -0.0324,-18.18262 l 0.0464,9.09126 z"
     transform="matrix(-0.87372095,0,0,0.84109425,630.00688,-359.20371)"
     sodipodi:start="1.5722835"
     sodipodi:end="4.7074284" />
  <rect
     style="fill:#ff0000;fill-opacity:1;fill-rule:evenodd;stroke:#ff0000;stroke-width:1.27928221px;stroke-linecap:butt;stroke-linejoin:miter;stroke-opacity:1"
     id="rect3833-3-5-1"
     width="4.8460135"
     height="27.460743"
     x="136.18562"
     y="224.4062"
     transform="matrix(0.91927532,-0.39361515,0.39361515,0.91927532,0,0)" />
  <rect
     style="fill:#ff0000;fill-opacity:1;fill-rule:evenodd;stroke:#ff0000;stroke-width:1.27928221px;stroke-linecap:butt;stroke-linejoin:miter;stroke-opacity:1"
     id="rect3833-3-5-3-8"
     width="4.8460135"
     height="27.460743"
     x="299.75232"
     y="34.40107"
     transform="matrix(0.91791189,0.39678427,-0.39678427,0.91791189,0,0)"
     inkscape:transform-center-x="-14.988676"
     inkscape:transform-center-y="-21.759772" />
  <path
     sodipodi:type="arc"
     style="fill:#ff0000;fill-opacity:1;stroke:#ff0000;stroke-width:6;stroke-linecap:round;stroke-linejoin:miter;stroke-miterlimit:4;stroke-opacity:1;stroke-dasharray:none"
     id="path3063-2"
     sodipodi:cx="420.98108"
     sodipodi:cy="555.36713"
     sodipodi:rx="9.3439112"
     sodipodi:ry="9.0913725"
     d="m 420.96718,564.45849 a 9.3439112,9.0913725 0 0 1 -0.0324,-18.18262 l 0.0464,9.09126 z"
     transform="matrix(0.87372095,0,0,0.84109425,-289.26402,-359.05599)"
     sodipodi:start="1.5722835"
     sodipodi:end="4.7074284" />
  <rect
     style="fill:#ff0000;fill-opacity:1;fill-rule:evenodd;stroke:#ff0000;stroke-width:1.27928221px;stroke-linecap:butt;stroke-linejoin:miter;stroke-opacity:1"
     id="rect3833-2"
     width="4.8460135"
     height="27.460743"
     x="81.672783"
     y="94.410446" />
  <rect
     style="fill:#ff0000;fill-opacity:1;fill-rule:evenodd;stroke:#ff0000;stroke-width:1.27928221px;stroke-linecap:butt;stroke-linejoin:miter;stroke-opacity:1"
     id="rect3833-3-8"
     width="4.8460135"
     height="27.460743"
     x="99.44149"
     y="98.287254" />
  <rect
     style="fill:#ff0000;fill-opacity:1;fill-rule:evenodd;stroke:#ff0000;stroke-width:1.27928221px;stroke-linecap:butt;stroke-linejoin:miter;stroke-opacity:1"
     id="rect3833-6-9"
     width="4.8460135"
     height="27.460743"
     x="116.56407"
     y="94.248817" />
  <path
     sodipodi:type="arc"
     style="fill:#ff0000;fill-opacity:1;stroke:#ff0000;stroke-width:6;stroke-linecap:round;stroke-linejoin:miter;stroke-miterlimit:4;stroke-opacity:1;stroke-dasharray:none"
     id="path3063-7-7"
     sodipodi:cx="420.98108"
     sodipodi:cy="555.36713"
     sodipodi:rx="9.3439112"
     sodipodi:ry="9.0913725"
     d="m 420.96718,564.45849 a 9.3439112,9.0913725 0 0 1 -0.0324,-18.18262 l 0.0464,9.09126 z"
     transform="matrix(-0.87372095,0,0,0.84109425,492.2556,-358.97527)"
     sodipodi:start="1.5722835"
     sodipodi:end="4.7074284" />
  <rect
     style="fill:#ff0000;fill-opacity:1;fill-rule:evenodd;stroke:#ff0000;stroke-width:1.27928221px;stroke-linecap:butt;stroke-linejoin:miter;stroke-opacity:1"
     id="rect3833-3-5-36"
     width="4.8460135"
     height="27.460743"
     x="9.4643412"
     y="170.39519"
     transform="matrix(0.91927532,-0.39361515,0.39361515,0.91927532,0,0)" />
  <rect
     style="fill:#ff0000;fill-opacity:1;fill-rule:evenodd;stroke:#ff0000;stroke-width:1.27928221px;stroke-linecap:butt;stroke-linejoin:miter;stroke-opacity:1"
     id="rect3833-3-5-3-1"
     width="4.8460135"
     height="27.460743"
     x="173.3994"
     y="89.268326"
     transform="matrix(0.91791189,0.39678427,-0.39678427,0.91791189,0,0)"
     inkscape:transform-center-x="-14.988671"
     inkscape:transform-center-y="-21.759775" />
  <text
     xml:space="preserve"
     style="font-size:51.17128754px;font-style:normal;font-weight:normal;line-height:125%;letter-spacing:0px;word-spacing:0px;fill:#000000;fill-opacity:1;stroke:none;font-family:Sans"
     x="96.2416"
     y="40.257633"
     id="text4009"
     sodipodi:linespacing="125%"><tspan
       sodipodi:role="line"
       id="tspan4011"
       x="96.2416"
       y="40.257633" /></text>
  <text
     xml:space="preserve"
     style="font-size:12.79282188px;font-style:normal;font-weight:normal;line-height:125%;letter-spacing:0px;word-spacing:0px;fill:#000000;fill-opacity:1;stroke:none;font-family:Sans"
     x="94.185608"
     y="43.227375"
     id="text4013"
     sodipodi:linespacing="125%"><tspan
       sodipodi:role="line"
       id="tspan4015"
       x="94.185608"
       y="43.227375">s</tspan></text>
  <text
     xml:space="preserve"
     style="font-size:10.2342577px;font-style:normal;font-weight:normal;line-height:125%;letter-spacing:0px;word-spacing:0px;fill:#000000;fill-opacity:1;stroke:none;font-family:Sans"
     x="100.60146"
     y="43.523731"
     id="text4017"
     sodipodi:linespacing="125%"><tspan
       sodipodi:role="line"
       id="tspan4019"
       x="100.60146"
       y="43.523731">1</tspan></text>
  <text
     xml:space="preserve"
     style="font-size:12.79282188px;font-style:normal;font-weight:normal;line-height:125%;letter-spacing:0px;word-spacing:0px;fill:#000000;fill-opacity:1;stroke:none;font-family:Sans"
     x="232.9229"
     y="44.075607"
     id="text4013-2"
     sodipodi:linespacing="125%"><tspan
       sodipodi:role="line"
       id="tspan4015-9"
       x="232.9229"
       y="44.075607">s</tspan></text>
  <text
     xml:space="preserve"
     style="font-size:10.2342577px;font-style:normal;font-weight:normal;line-height:125%;letter-spacing:0px;word-spacing:0px;fill:#000000;fill-opacity:1;stroke:none;font-family:Sans"
     x="238.88152"
     y="44.301067"
     id="text4042"
     sodipodi:linespacing="125%"><tspan
       sodipodi:role="line"
       id="tspan4044"
       x="238.88152"
       y="44.301067">2</tspan></text>
  <text
     xml:space="preserve"
     style="font-size:12.79282188px;font-style:normal;font-weight:normal;line-height:125%;letter-spacing:0px;word-spacing:0px;fill:#000000;fill-opacity:1;stroke:none;font-family:Sans"
     x="370.31906"
     y="44.754562"
     id="text4013-3"
     sodipodi:linespacing="125%"><tspan
       sodipodi:role="line"
       id="tspan4015-1"
       x="370.31906"
       y="44.754562">s</tspan></text>
  <text
     xml:space="preserve"
     style="font-size:10.2342577px;font-style:normal;font-weight:normal;line-height:125%;letter-spacing:0px;word-spacing:0px;fill:#000000;fill-opacity:1;stroke:none;font-family:Sans"
     x="377.20395"
     y="45.10062"
     id="text4055"
     sodipodi:linespacing="125%"><tspan
       sodipodi:role="line"
       id="tspan4057"
       x="377.20395"
       y="45.10062">3</tspan></text>
  <text
     xml:space="preserve"
     style="font-size:10.2342577px;font-style:normal;font-weight:normal;line-height:125%;letter-spacing:0px;word-spacing:0px;fill:#000000;fill-opacity:1;stroke:none;font-family:Sans"
     x="511.52859"
     y="45.420441"
     id="text4059"
     sodipodi:linespacing="125%"><tspan
       sodipodi:role="line"
       id="tspan4061"
       x="511.52859"
       y="45.420441">4</tspan></text>
  <text
     xml:space="preserve"
     style="font-size:12.79282188px;font-style:normal;font-weight:normal;line-height:125%;letter-spacing:0px;word-spacing:0px;fill:#000000;fill-opacity:1;stroke:none;font-family:Sans"
     x="504.64371"
     y="45.074383"
     id="text4013-9"
     sodipodi:linespacing="125%"><tspan
       sodipodi:role="line"
       id="tspan4015-4"
       x="504.64371"
       y="45.074383">s</tspan></text>
  <path
     sodipodi:type="arc"
     style="fill:none;stroke:#000000;stroke-width:6;stroke-linecap:round;stroke-linejoin:miter;stroke-miterlimit:4;stroke-opacity:1;stroke-dasharray:none"
     id="path4072"
     sodipodi:cx="648.1875"
     sodipodi:cy="598.29968"
     sodipodi:rx="11.3125"
     sodipodi:ry="11.0625"
     d="m 659.5,598.29968 a 11.3125,11.0625 0 1 1 -22.625,0 11.3125,11.0625 0 1 1 22.625,0 z"
     transform="matrix(1.227616,0,0,1.2409035,-159.14689,-578.03849)" />
  <path
     sodipodi:type="arc"
     style="fill:none;stroke:#000000;stroke-width:6;stroke-linecap:round;stroke-linejoin:miter;stroke-miterlimit:4;stroke-opacity:1;stroke-dasharray:none"
     id="path4074"
     sodipodi:cx="646.1875"
     sodipodi:cy="596.17468"
     sodipodi:rx="2.9375"
     sodipodi:ry="3.0625"
     d="m 649.125,596.17468 a 2.9375,3.0625 0 1 1 -5.875,0 2.9375,3.0625 0 1 1 5.875,0 z"
     transform="matrix(1.2792822,0,0,1.2792822,-189.99781,-598.20205)" />
  <path
     style="fill:#000000;fill-opacity:1;stroke:#000000;stroke-width:0.95946175;stroke-linecap:round;stroke-linejoin:miter;stroke-miterlimit:4;stroke-opacity:1;stroke-dasharray:none"
     d="m 391.4241,107.57116 0,-14.311966 2.95355,0 2.95357,0 0.0448,2.038856 0.0448,2.038856 2.39866,0.2561 c 2.65826,0.283821 3.52764,0.501913 5.04675,1.266028 4.90128,2.465366 7.00128,8.298626 4.69259,13.034796 -1.3312,2.73087 -3.87643,4.82264 -6.781,5.57288 -0.57169,0.14766 -2.01088,0.35695 -3.19821,0.4651 l -2.15879,0.19664 -0.045,1.87735 -0.045,1.87735 -2.95326,0 -2.95326,0 0,-14.31199 z"
     id="path4084"
     inkscape:connector-curvature="0" />
  <path
     style="fill:#000000;fill-opacity:1;stroke:#000000;stroke-width:0.95946175;stroke-linecap:round;stroke-linejoin:miter;stroke-miterlimit:4;stroke-opacity:1;stroke-dasharray:none"
     d="m 374.3137,111.56893 0,-14.311979 2.95834,0 2.95834,0 0,14.311979 0,14.31197 -2.95834,0 -2.95834,0 0,-14.31197 z"
     id="path4086"
     inkscape:connector-curvature="0" />
  <path
     style="fill:#000000;fill-opacity:1;stroke:#000000;stroke-width:0.95946175;stroke-linecap:round;stroke-linejoin:miter;stroke-miterlimit:4;stroke-opacity:1;stroke-dasharray:none"
     d="m 356.53572,119.36456 c -0.0154,-1.47318 -0.0555,-2.37267 -0.0892,-1.99888 -0.0336,0.37378 -0.1214,0.67962 -0.19484,0.67962 -0.82132,0 -4.77033,-0.53156 -5.44483,-0.73289 -3.32349,-0.99207 -6.01254,-3.61451 -7.03717,-6.86286 -0.50747,-1.6088 -0.51206,-3.91311 -0.0102,-5.43695 0.84647,-2.57353 2.52095,-4.66838 4.78348,-5.984381 1.43786,-0.83633 2.76176,-1.228392 4.8816,-1.445665 0.8913,-0.09134 1.92497,-0.206182 2.29707,-0.255179 l 0.67654,-0.08917 0.0463,3.567345 c 0.0362,2.78612 0.0544,2.36795 0.083,-1.909587 l 0.0367,-5.476927 2.95834,0 2.95834,0 0,14.311974 0,14.31198 -2.95834,0 -2.95834,0 -0.0279,-2.6785 z"
     id="path4088"
     inkscape:connector-curvature="0" />
  <path
     style="fill:#000000;fill-opacity:1;stroke:#000000;stroke-width:0.95946175;stroke-linecap:round;stroke-linejoin:miter;stroke-miterlimit:4;stroke-opacity:1;stroke-dasharray:none"
     d="m 356.20096,165.57056 c -3.04082,-7.09759 -5.55242,-13.00529 -5.58135,-13.12823 -0.0361,-0.15317 0.79036,-0.58933 2.62499,-1.38544 1.47267,-0.63904 2.71006,-1.10936 2.74974,-1.04515 0.14076,0.22777 11.1234,25.96619 11.1234,26.06832 0,0.0873 -1.12658,0.59039 -4.89278,2.18544 l -0.49525,0.20973 -5.52875,-12.90467 0,0 z"
     id="path4090"
     inkscape:connector-curvature="0" />
  <path
     style="fill:#000000;fill-opacity:1;stroke:#000000;stroke-width:0.95946175;stroke-linecap:round;stroke-linejoin:miter;stroke-miterlimit:4;stroke-opacity:1;stroke-dasharray:none"
     d="m 390.30473,177.03988 c -1.36324,-0.60518 -2.53667,-1.12119 -2.60762,-1.1467 -0.10157,-0.0365 10.95642,-25.91348 11.18422,-26.1724 0.1321,-0.15016 5.47204,2.26026 5.4021,2.43848 -0.85126,2.16918 -11.23811,25.92036 -11.34644,25.9454 -0.0846,0.0196 -1.26903,-0.4596 -2.63226,-1.06478 z"
     id="path4092"
     inkscape:connector-curvature="0" />
  <path
     style="fill:#000000;fill-opacity:1;stroke:#000000;stroke-width:0.95946175;stroke-linecap:round;stroke-linejoin:miter;stroke-miterlimit:4;stroke-opacity:1;stroke-dasharray:none"
     d="m 253.74134,107.73107 0,-14.311966 2.95355,0 2.95357,0 0.0448,2.038856 0.0448,2.038856 2.39865,0.252198 c 1.31926,0.138713 2.79443,0.382595 3.27817,0.541968 3.5489,1.169213 5.98389,3.602728 7.02251,7.018298 0.40708,1.33868 0.44725,3.58939 0.089,4.98673 -0.6975,2.72066 -2.73696,5.20972 -5.35252,6.5325 -1.39782,0.70693 -2.58965,1.00389 -4.87726,1.21523 -2.94475,0.27204 -2.63852,0.021 -2.63852,2.16339 l 0,1.83593 -2.95834,0 -2.95834,0 0,-14.31199 z"
     id="path4094"
     inkscape:connector-curvature="0" />
  <path
     style="fill:#000000;fill-opacity:1;stroke:#000000;stroke-width:0.95946175;stroke-linecap:round;stroke-linejoin:miter;stroke-miterlimit:4;stroke-opacity:1;stroke-dasharray:none"
     d="m 236.63094,111.72884 0,-14.311979 2.95834,0 2.95834,0 0,14.311979 0,14.31197 -2.95834,0 -2.95834,0 0,-14.31197 z"
     id="path4096"
     inkscape:connector-curvature="0" />
  <path
     style="fill:#000000;fill-opacity:1;stroke:#000000;stroke-width:0.95946175;stroke-linecap:round;stroke-linejoin:miter;stroke-miterlimit:4;stroke-opacity:1;stroke-dasharray:none"
     d="m 218.84467,117.20577 c -0.025,-3.44526 -0.0509,-4.06603 -0.0835,-1.99888 -0.0353,2.23992 -0.097,2.99748 -0.24361,2.99499 -1.00996,-0.0171 -4.7014,-0.51235 -5.39345,-0.72361 -2.79937,-0.85457 -5.17633,-2.8429 -6.42198,-5.37201 -0.75913,-1.54131 -1.0059,-2.61999 -1.00091,-4.37519 0.008,-2.63715 0.98661,-4.8741 3.01119,-6.87966 1.92794,-1.909811 3.9182,-2.790136 7.02878,-3.108946 0.89131,-0.09134 1.92522,-0.20622 2.29762,-0.255268 l 0.67707,-0.08917 0.0452,4.446924 c 0.039,3.84505 0.0503,3.58661 0.0825,-1.909506 l 0.0374,-6.356434 2.95834,0 2.95834,0 0,14.31197 0,14.31198 -2.95834,0 -2.95834,0 -0.0362,-4.99719 z"
     id="path4098"
     inkscape:connector-curvature="0" />
  <path
     style="fill:#000000;fill-opacity:1;stroke:#000000;stroke-width:0.95946175;stroke-linecap:round;stroke-linejoin:miter;stroke-miterlimit:4;stroke-opacity:1;stroke-dasharray:none"
     d="m 218.50578,165.73097 c -3.03481,-7.10267 -5.54117,-13.01257 -5.56968,-13.13311 -0.0349,-0.14756 0.82699,-0.60051 2.63831,-1.38647 l 2.69015,-1.16732 0.21527,0.51134 c 0.11833,0.28124 2.63172,6.14827 5.58519,13.03788 2.95348,6.88959 5.36995,12.57692 5.36995,12.63852 0,0.0941 -1.11955,0.596 -4.90444,2.19847 l -0.50691,0.21461 -5.51784,-12.91392 z"
     id="path4100"
     inkscape:connector-curvature="0" />
  <path
     style="fill:#000000;fill-opacity:1;stroke:#000000;stroke-width:0.95946175;stroke-linecap:round;stroke-linejoin:miter;stroke-miterlimit:4;stroke-opacity:1;stroke-dasharray:none"
     d="m 252.62196,177.20225 c -1.36324,-0.60554 -2.53766,-1.12259 -2.60983,-1.14899 -0.10478,-0.0383 10.95857,-25.92815 11.18443,-26.17328 0.0342,-0.0371 1.27877,0.45843 2.76581,1.1011 l 2.70372,1.1685 -0.38595,0.89777 c -5.80931,13.51325 -10.91899,25.19408 -11.03272,25.22106 -0.0807,0.0192 -1.26223,-0.46062 -2.62546,-1.06616 z"
     id="path4102"
     inkscape:connector-curvature="0" />
  <path
     style="fill:#000000;fill-opacity:1;stroke:#000000;stroke-width:0.95946175;stroke-linecap:round;stroke-linejoin:miter;stroke-miterlimit:4;stroke-opacity:1;stroke-dasharray:none"
     d="m 81.038229,120.39543 0,-1.96745 -2.278721,-0.20128 c -2.594154,-0.22914 -3.570515,-0.46839 -5.157106,-1.26365 -3.679664,-1.84438 -5.861838,-5.48131 -5.631631,-9.38601 0.152542,-2.58743 1.074687,-4.59287 2.981444,-6.48396 2.091741,-2.074532 4.003897,-2.858143 7.821877,-3.205443 l 2.264137,-0.205939 0,-1.891431 0,-1.891432 3.038296,0 3.038295,0 0,14.232015 0,14.23203 -3.038295,0 -3.038296,0 0,-1.96745 z"
     id="path4104"
     inkscape:connector-curvature="0" />
  <path
     style="fill:#000000;fill-opacity:1;stroke:#000000;stroke-width:0.95946175;stroke-linecap:round;stroke-linejoin:miter;stroke-miterlimit:4;stroke-opacity:1;stroke-dasharray:none"
     d="m 98.948181,112.04866 0,-14.311978 2.958339,0 2.95834,0 0,14.311978 0,14.31197 -2.95834,0 -2.958339,0 0,-14.31197 z"
     id="path4106"
     inkscape:connector-curvature="0" />
  <path
     style="fill:#000000;fill-opacity:1;stroke:#000000;stroke-width:0.95946175;stroke-linecap:round;stroke-linejoin:miter;stroke-miterlimit:4;stroke-opacity:1;stroke-dasharray:none"
     d="m 116.05858,107.97094 0,-14.232015 2.95834,0 2.95834,0 0,1.998878 c 0,1.099377 0.0283,1.998879 0.0628,1.998879 0.75677,0 4.84731,0.549464 5.50838,0.739911 4.63069,1.334112 7.80269,5.686317 7.49265,10.280437 -0.28224,4.18221 -3.24663,7.76968 -7.46705,9.03658 -0.6614,0.19855 -4.43966,0.70093 -5.47693,0.72826 -0.066,0.001 -0.11987,0.83069 -0.11987,1.84213 l 0,1.83897 -2.95834,0 -2.95834,0 0,-14.23203 z"
     id="path4108"
     inkscape:connector-curvature="0" />
  <path
     style="fill:#000000;fill-opacity:1;stroke:#000000;stroke-width:0.95946175;stroke-linecap:round;stroke-linejoin:miter;stroke-miterlimit:4;stroke-opacity:1;stroke-dasharray:none"
     d="m 114.95156,177.45865 c -1.44439,-0.62252 -2.65038,-1.20454 -2.68,-1.29338 -0.0434,-0.13023 11.01091,-25.89935 11.18475,-26.0732 0.0275,-0.0275 1.25582,0.46838 2.72958,1.10197 1.98025,0.85134 2.6624,1.21459 2.61379,1.39186 -0.0475,0.17315 -9.07476,21.0967 -11.04286,25.59527 l -0.17909,0.40937 -2.62617,-1.13189 z"
     id="path4110"
     inkscape:connector-curvature="0" />
  <path
     style="fill:#000000;fill-opacity:1;stroke:#000000;stroke-width:0.95946175;stroke-linecap:round;stroke-linejoin:miter;stroke-miterlimit:4;stroke-opacity:1;stroke-dasharray:none"
     d="m 80.658155,165.76365 c -3.067438,-7.1727 -5.514065,-13.0966 -5.43695,-13.16424 0.342093,-0.30006 5.226585,-2.26547 5.332855,-2.14583 0.08635,0.0972 8.217418,19.0487 10.97619,25.58265 l 0.21245,0.50319 -2.645978,1.13589 c -1.455285,0.62475 -2.694449,1.13448 -2.753693,1.13274 -0.05923,-0.001 -2.617437,-5.87171 -5.684874,-13.0444 l 0,0 z"
     id="path4112"
     inkscape:connector-curvature="0" />
  <path
     style="fill:none;stroke:#000000;stroke-width:1.27928221px;stroke-linecap:butt;stroke-linejoin:miter;stroke-opacity:1"
     d="m 600.83925,34.70399 -1.13074,11.759661"
     id="path4120"
     inkscape:connector-curvature="0" />
  <path
     style="fill:none;stroke:#000000;stroke-width:1.27928221px;stroke-linecap:butt;stroke-linejoin:miter;stroke-opacity:1"
     d="m 604.23147,46.689803 -4.74911,-0.226152"
     id="path4122"
     inkscape:connector-curvature="0" />
  <path
     style="fill:none;stroke:#000000;stroke-width:1.27928221px;stroke-linecap:butt;stroke-linejoin:miter;stroke-opacity:1"
     d="m 600.83925,35.156281 4.2968,0"
     id="path4124"
     inkscape:connector-curvature="0" />
  <path
     style="fill:none;stroke:#000000;stroke-width:1.27928221px;stroke-linecap:butt;stroke-linejoin:miter;stroke-opacity:1"
     d="m 600.16081,39.905386 3.61836,0"
     id="path4126"
     inkscape:connector-curvature="0" />
  <path
     style="fill:none;stroke:#000000;stroke-width:1.27928221px;stroke-linecap:butt;stroke-linejoin:miter;stroke-opacity:1"
     d="m 605.3622,35.608584 c 0.22615,0.301526 0.97997,0.678441 0.67844,0.90458 -0.30152,0.226152 -0.94495,-1.171106 -0.67844,-0.90458 0.93362,0.93362 0.90459,0.78278 0.90459,1.583022 0,0.07535 0,0.150776 0,0.226151 0,0.07535 0.0533,0.172844 0,0.226152 -0.0533,0.05335 -0.17284,-0.05335 -0.22615,0 -0.0533,0.05335 0,0.150763 0,0.226151 0,0.07535 0,0.301527 0,0.226139 0,-0.150763 0,-0.603054 0,-0.45229 0,0.375572 0.15991,0.711562 -0.22615,0.904593 -0.0674,0.03364 -0.15872,-0.03377 -0.22614,0 -0.0953,0.04772 -0.1308,0.17846 -0.22615,0.226139 -0.0674,0.03364 -0.17284,-0.05335 -0.22615,0 -0.0534,0.05335 0.0533,0.172844 0,0.226151 -0.0534,0.05335 -0.15872,-0.03364 -0.22614,0 -0.0953,0.04772 -0.15078,0.150764 -0.22615,0.226152 -0.0754,0.07535 -0.17847,0.130794 -0.22615,0.226139 -0.0336,0.06742 0.0533,0.172843 0,0.226151 -0.0533,0.05335 -0.15077,0 -0.22614,0 3.41287,-0.887911 0.52021,0.97251 0.90458,1.356884 0.0533,0.05335 0.17284,-0.05335 0.22615,0 0.0534,0.05335 -0.0338,0.15872 0,0.226151 0.0477,0.09531 0.17847,0.130794 0.22615,0.226139 0.0409,0.08175 0,0.973444 0,1.130745 0,0.157287 0.0409,1.048947 0,1.130731 -0.0477,0.09531 -0.17847,0.130794 -0.22615,0.226152 -0.30153,0.603054 0.22615,-0.07535 0.22615,0.226139 0,0.07535 -0.17284,-0.05335 -0.22615,0 -0.0544,0.05437 0.0544,0.850172 0,0.904593 -0.0462,0.04618 -0.58878,-0.0449 -0.67844,0 -0.75004,0.375022 0,0.158567 0,0.226151 0,0.106565 -0.17847,0.130794 -0.22615,0.226139 -0.0336,0.06742 0.0533,0.172844 0,0.226152 -0.0533,0.05335 -0.22614,0.07535 -0.22614,0 0,-0.07535 0.30153,0 0.22614,0 -0.52768,0 -0.45229,-0.150764 -0.45229,0.226151"
     id="path4128"
     inkscape:connector-curvature="0" />
  <path
     style="fill:none;stroke:#000000;stroke-width:1.27928221px;stroke-linecap:butt;stroke-linejoin:miter;stroke-opacity:1"
     d="m 616.44342,39.226944 c -0.35915,0.201986 -0.64843,0.693601 -1.082,0.661389 -0.10938,0.117054 -0.0302,0.377669 -0.27488,0.469343 0.0615,0.152836 -0.0306,0.336477 -0.0283,0.08482 0.0533,-0.195052 0.0182,0.226625 0.0283,0.313091 0.005,0.228723 -0.0154,0.45948 0.0225,0.685619 -0.0793,0.31272 -0.34752,-0.128197 -0.24942,0.174763 -0.0803,0.227545 0.20329,0.890035 -0.20255,0.763923 -0.0647,0.327726 -0.008,0.715336 -0.0233,1.065079 -0.10912,0.167394 0.0959,0.560633 0.23363,0.283732 -0.0275,0.518301 0.0228,1.041298 -0.0296,1.557002 0.1026,0.102854 0.3887,-0.02827 0.26854,0.281774 -0.0907,0.249716 -0.0742,0.52622 0.21938,0.466747 -0.14846,0.311479 0.34038,0.413566 0.23577,0.06281 0.16963,0.161739 0.1764,0.444051 0.23251,0.594943 0.68833,0.0051 1.37824,-0.01369 2.06585,0.0051 0.33108,0.132367 7.3e-4,-0.420871 0.36983,-0.220523 0.0299,-0.169415 -0.0102,-0.318989 0.24898,-0.239277 0.0509,-0.198353 -0.1497,-0.574398 0.22614,-0.45229 0.0438,-0.246851 -0.0935,-0.534037 0.22616,-0.678442 -0.0742,-0.221022 0.0371,-0.267856 0.22615,-0.226152 0.0509,-0.198352 -0.1497,-0.574397 0.22614,-0.45229 1.1e-4,-0.43603 0.0219,-0.876257 -0.0225,-1.309652 0.0895,-0.121532 0.38253,0.05347 0.23553,-0.250548 0.16112,-0.01535 0.37482,-0.01906 0.2227,-0.288938 -0.0764,-0.403588 0.12979,0.04797 0.0166,-0.0064 0.006,-0.270223 -0.0182,-0.543004 0.0225,-0.810553 -0.0597,-0.137024 -0.38163,0.06998 -0.24196,-0.217107 -0.21782,-0.194682 -0.27003,-0.440291 -0.23284,-0.734718 -0.0177,-0.155804 0.0693,-0.312145 -0.0933,-0.144994 -0.28056,-0.02367 0.0258,-0.467091 -0.33615,-0.294171 -0.081,-0.155701 0.006,-0.379742 -0.0228,-0.566952 0.009,-0.327215 -0.0214,-0.657538 0.0225,-0.981977 -0.13726,-0.182861 -0.61809,0.15629 -0.4748,-0.27337 -0.20298,-0.02239 -0.53197,0.01881 -0.67845,-1.3e-5 0.26461,-0.264862 -0.35042,-0.346416 -0.44733,-0.06908 -0.31404,0.235772 -0.60308,0.502362 -0.90954,0.747536 z"
     id="path4134"
     inkscape:connector-curvature="0" />
  <path
     style="fill:none;stroke:#000000;stroke-width:1.27928221px;stroke-linecap:butt;stroke-linejoin:miter;stroke-opacity:1"
     d="m 625.9416,38.774641 c -0.37691,0 -0.75383,0 -1.13074,0 -0.0753,0 -0.17284,-0.05335 -0.22614,0 -0.0534,0.05335 0.0534,0.172844 0,0.226151 -0.10656,0.106564 -0.34569,-0.106564 -0.4523,0 -0.10657,0.106564 0.10656,0.345688 0,0.452291 -0.0534,0.05335 -0.15872,-0.03364 -0.22614,0 -0.27946,0.139723 -0.22615,0.218347 -0.22615,0.452303 0,0.07535 0.0753,0.226138 0,0.226138 -0.0675,0 0.14887,-0.75003 -0.22615,0 -0.0448,0.08968 0.0462,0.632209 0,0.678442 -0.0534,0.05335 -0.17285,-0.05335 -0.22614,0 -0.0534,0.05335 0.0336,0.158721 0,0.226152 -0.0477,0.09531 -0.15077,0.301526 -0.22615,0.226151 -0.0753,-0.07535 0.22615,-0.332754 0.22615,-0.226151 0,0.168558 -0.17285,0.292379 -0.22615,0.45229 -0.0477,0.143036 0.10656,0.345687 0,0.452303 -0.0534,0.05335 -0.17285,-0.05335 -0.22616,0 -0.0462,0.04618 0.0449,0.588777 0,0.678442 -0.0477,0.09531 -0.17846,0.130793 -0.22613,0.226138 -0.0232,0.04644 -0.0319,0.646549 0,0.678442 0.30152,0.301527 0.22613,-0.376915 0.22613,0.226151 0,0.08302 -0.009,0.895485 0,0.904594 0.0533,0.05335 0.17285,-0.05335 0.22616,0 0.0533,0.05335 -0.0534,0.172844 0,0.226138 0.0533,0.05335 0.17284,-0.05335 0.22615,0 0.10656,0.106565 -0.10657,0.345688 0,0.452303 0.0533,0.05335 0.17284,-0.05335 0.22614,0 0.10656,0.106565 -0.10657,0.345688 0,0.452291 0.11308,0.113088 0.56537,-0.113089 0.67844,0 0.0533,0.05335 -0.0534,0.172844 0,0.226151 0.0533,0.05335 0.17284,-0.05335 0.22615,0 0.30153,0.301527 -0.37692,0.226139 0.22615,0.226139 0.0754,0 0.15076,0 0.22614,0 0.0754,0 0.22615,-0.07535 0.22615,0 0,0.07535 -0.30153,0 -0.22615,0 0.15078,0 0.30154,0 0.4523,0 0.0753,0 0.17285,-0.05335 0.22614,0 0.0534,0.05335 -0.0534,0.172844 0,0.226151 0.0534,0.05335 0.22615,0.07535 0.22615,0 0,-0.106564 -0.33275,-0.226151 -0.22615,-0.226151 1.14246,0 0.1738,0.173803 0.4523,0.452303 0.0534,0.05335 0.17285,0.05335 0.22614,0 0.0534,-0.05335 -0.0533,-0.172844 0,-0.226152 0.0534,-0.05335 0.15078,0 0.22615,0 0.0754,0 0.15077,0 0.22616,0"
     id="path4137"
     inkscape:connector-curvature="0" />
  <path
     style="fill:none;stroke:#000000;stroke-width:1.27928221px;stroke-linecap:butt;stroke-linejoin:miter;stroke-opacity:1"
     d="m 627.29849,39.226944 -0.45231,7.236707"
     id="path4139"
     inkscape:connector-curvature="0" />
  <path
     style="fill:none;stroke:#000000;stroke-width:1.27928221px;stroke-linecap:butt;stroke-linejoin:miter;stroke-opacity:1"
     d="m 625.26316,38.096199 c 0.45229,0 0.90458,0 1.35689,0 0.0753,0 0.30152,0 0.22613,0 -0.15076,0 -0.60305,0 -0.45229,0 0.22616,0 0.45229,0 0.67845,0"
     id="path4141"
     inkscape:connector-curvature="0" />
  <path
     style="fill:none;stroke:#000000;stroke-width:1.27928221px;stroke-linecap:butt;stroke-linejoin:miter;stroke-opacity:1"
     d="m 635.43979,34.2517 -0.22615,12.211951 -3.39221,0"
     id="path4143"
     inkscape:connector-curvature="0" />
  <path
     style="fill:none;stroke:#000000;stroke-width:1.27928221px;stroke-linecap:butt;stroke-linejoin:miter;stroke-opacity:1"
     d="m 634.76135,38.774641 c -0.77422,-0.347376 -0.7376,0.481867 -1.13074,0.678442 -0.18092,0.09045 -0.49752,-0.09045 -0.67844,0 -0.0953,0.04772 -0.22615,0.119612 -0.22615,0.226151 0,0.07535 0.22615,-0.07535 0.22615,0 0,0.07535 -0.15077,0 -0.22615,0 -0.0753,0 -0.15076,0 -0.22615,0 -0.0754,0 -0.17284,-0.05335 -0.22614,0 -0.0533,0.05335 0.0753,0.226152 0,0.226152 -0.0754,0 0.0534,-0.172844 0,-0.226152 -0.0533,-0.05335 -0.15077,0 -0.22615,0 -0.0753,0 -0.17284,-0.05335 -0.22615,0 -0.0534,0.05335 0.0533,0.172844 0,0.226152 -0.10657,0.106564 -0.34569,-0.106565 -0.45229,0 -0.0534,0.05335 0,0.150763 0,0.226138 -0.0754,0 -0.17285,-0.05335 -0.22615,0 -0.0544,0.05437 0.0544,0.850173 0,0.904594 -0.0534,0.05335 -0.17285,-0.05335 -0.22614,0 -0.11309,0.113088 0.11309,0.565365 0,0.678441 -0.0534,0.05335 -0.17285,-0.05335 -0.22615,0 -0.10657,0.106564 0.10656,0.345688 0,0.45229 -0.0534,0.05335 -0.17285,-0.05335 -0.22616,0 -0.0533,0.05335 0,0.150764 0,0.226152 0,0.45229 0,0.904593 0,1.356883 0,0.07535 -0.0338,0.158721 0,0.226152 0.0477,0.09531 0.17848,0.130794 0.22616,0.226139 0.0613,0.122683 -0.0619,0.842714 0,0.904593 0.0533,0.05335 0.17284,-0.05335 0.22615,0 0.11309,0.113089 -0.11309,0.565366 0,0.678442 0.0533,0.05335 0.17284,-0.05335 0.22614,0 0.15068,0.150686 -0.15069,0.301603 0,0.45229 0.0533,0.05335 0.17284,-0.05335 0.22615,0 0.0533,0.05335 -0.0534,0.172844 0,0.226151 0.008,0.0077 0.6236,0 0.67844,0"
     id="path4153"
     inkscape:connector-curvature="0" />
  <path
     style="fill:none;stroke:#000000;stroke-width:1.27928221px;stroke-linecap:butt;stroke-linejoin:miter;stroke-opacity:1"
     d="m 639.2843,34.2517 -0.22614,10.628916"
     id="path4157"
     inkscape:connector-curvature="0" />
  <path
     style="fill:none;stroke:#000000;stroke-width:1.27928221px;stroke-linecap:butt;stroke-linejoin:miter;stroke-opacity:1"
     d="m 638.83201,44.880616 1.58303,1.809187"
     id="path4161"
     inkscape:connector-curvature="0" />
  <path
     style="fill:none;stroke:#000000;stroke-width:1.27928221px;stroke-linecap:butt;stroke-linejoin:miter;stroke-opacity:1"
     d="m 640.64118,46.463651 2.93992,0"
     id="path4167"
     inkscape:connector-curvature="0" />
  <path
     style="fill:none;stroke:#000000;stroke-width:1.33741271px;stroke-linecap:butt;stroke-linejoin:miter;stroke-opacity:1"
     d="m 646.97331,39.286392 0,7.909329"
     id="path4171"
     inkscape:connector-curvature="0" />
  <path
     style="fill:none;stroke:#000000;stroke-width:1.27928221px;stroke-linecap:butt;stroke-linejoin:miter;stroke-opacity:1"
     d="m 650.13937,47.142093 0.4523,-8.141301"
     id="path4173"
     inkscape:connector-curvature="0" />
  <path
     style="fill:none;stroke:#000000;stroke-width:1.27928221px;stroke-linecap:butt;stroke-linejoin:miter;stroke-opacity:1"
     d="m 650.81781,38.322351 3.61836,0.226151"
     id="path4181"
     inkscape:connector-curvature="0" />
  <path
     style="fill:none;stroke:#000000;stroke-width:1.27928221px;stroke-linecap:butt;stroke-linejoin:miter;stroke-opacity:1"
     d="m 653.75773,46.2375 0.67844,-7.462859"
     id="path4183"
     inkscape:connector-curvature="0" />
  <path
     style="fill:none;stroke:#000000;stroke-width:1.27928221px;stroke-linecap:butt;stroke-linejoin:miter;stroke-opacity:1"
     d="m 658.50682,34.025549 -0.22614,11.985812 4.97523,-7.462859"
     id="path4185"
     inkscape:connector-curvature="0" />
  <path
     style="fill:none;stroke:#000000;stroke-width:1.27928221px;stroke-linecap:butt;stroke-linejoin:miter;stroke-opacity:1"
     d="m 660.7683,42.845291 1.80917,4.522954"
     id="path4187"
     inkscape:connector-curvature="0" />
  <path
     sodipodi:type="arc"
     style="fill:#000000;fill-opacity:1;stroke:#000000;stroke-width:1;stroke-linecap:round;stroke-linejoin:miter;stroke-miterlimit:1;stroke-opacity:1;stroke-dasharray:none"
     id="path4251"
     sodipodi:cx="633.78864"
     sodipodi:cy="494.05719"
     sodipodi:rx="0.30935922"
     sodipodi:ry="0.30935922"
     d="m 634.09799,494.05719 a 0.30935922,0.30935922 0 1 1 -0.61871,0 0.30935922,0.30935922 0 1 1 0.61871,0 z"
     transform="matrix(2.3270895,0,0,2.3270895,-853.23796,-1115.2374)" />
  <path
     sodipodi:type="arc"
     style="fill:#000000;fill-opacity:1;stroke:#000000;stroke-width:1;stroke-linecap:round;stroke-linejoin:miter;stroke-miterlimit:1;stroke-opacity:1;stroke-dasharray:none"
     id="path4251-4"
     sodipodi:cx="633.78864"
     sodipodi:cy="494.05719"
     sodipodi:rx="0.30935922"
     sodipodi:ry="0.30935922"
     d="m 634.09799,494.05719 a 0.30935922,0.30935922 0 1 1 -0.61871,0 0.30935922,0.30935922 0 1 1 0.61871,0 z"
     transform="matrix(2.1752168,0,0,1.9924621,-750.93338,-954.54833)" />
  <path
     sodipodi:type="arc"
     style="fill:#000000;fill-opacity:1;stroke:#000000;stroke-width:1;stroke-linecap:round;stroke-linejoin:miter;stroke-miterlimit:1;stroke-opacity:1;stroke-dasharray:none"
     id="path4251-5"
     sodipodi:cx="633.78864"
     sodipodi:cy="494.05719"
     sodipodi:rx="0.30935922"
     sodipodi:ry="0.30935922"
     d="m 634.09799,494.05719 a 0.30935922,0.30935922 0 1 1 -0.61871,0 0.30935922,0.30935922 0 1 1 0.61871,0 z"
     transform="matrix(1.6434426,0,0,1.8261971,-408.13416,-874.4393)" />
  <path
     sodipodi:type="arc"
     style="fill:#000000;fill-opacity:1;stroke:#000000;stroke-width:1;stroke-linecap:round;stroke-linejoin:miter;stroke-miterlimit:1;stroke-opacity:1;stroke-dasharray:none"
     id="path4251-46"
     sodipodi:cx="633.78864"
     sodipodi:cy="494.05719"
     sodipodi:rx="0.30935922"
     sodipodi:ry="0.30935922"
     d="m 634.09799,494.05719 a 0.30935922,0.30935922 0 1 1 -0.61871,0 0.30935922,0.30935922 0 1 1 0.61871,0 z"
     transform="matrix(1.6866199,0,0,1.5038652,-430.80692,-715.47161)" />
  <path
     sodipodi:type="arc"
     style="fill:#000000;fill-opacity:1;stroke:#000000;stroke-width:1;stroke-linecap:round;stroke-linejoin:miter;stroke-miterlimit:1;stroke-opacity:1;stroke-dasharray:none"
     id="path4251-6"
     sodipodi:cx="633.78864"
     sodipodi:cy="494.05719"
     sodipodi:rx="0.30935922"
     sodipodi:ry="0.30935922"
     d="m 634.09799,494.05719 a 0.30935922,0.30935922 0 1 1 -0.61871,0 0.30935922,0.30935922 0 1 1 0.61871,0 z"
     transform="matrix(1.4340855,0,0,1.6168403,-266.79598,-770.04388)" />
  <path
     sodipodi:type="arc"
     style="fill:#000000;fill-opacity:1;stroke:#000000;stroke-width:1;stroke-linecap:round;stroke-linejoin:miter;stroke-miterlimit:1;stroke-opacity:1;stroke-dasharray:none"
     id="path4251-3"
     sodipodi:cx="633.78864"
     sodipodi:cy="494.05719"
     sodipodi:rx="0.30935922"
     sodipodi:ry="0.30935922"
     d="m 634.09799,494.05719 a 0.30935922,0.30935922 0 1 1 -0.61871,0 0.30935922,0.30935922 0 1 1 0.61871,0 z"
     transform="matrix(0.99986708,0,0,0.99986708,11.629365,-462.51011)" />
  <path
     sodipodi:type="arc"
     style="fill:#000000;fill-opacity:1;stroke:#000000;stroke-width:1;stroke-linecap:round;stroke-linejoin:miter;stroke-miterlimit:1;stroke-opacity:1;stroke-dasharray:none"
     id="path4251-5-9"
     sodipodi:cx="633.78864"
     sodipodi:cy="494.05719"
     sodipodi:rx="0.30935922"
     sodipodi:ry="0.30935922"
     d="m 634.09799,494.05719 a 0.30935922,0.30935922 0 1 1 -0.61871,0 0.30935922,0.30935922 0 1 1 0.61871,0 z"
     transform="matrix(1.6434426,0,0,1.8261971,-393.94343,-867.65486)" />
  <path
     style="fill:none;stroke:#000000;stroke-width:1.27928221px;stroke-linecap:butt;stroke-linejoin:miter;stroke-opacity:1"
     d="m 608.75441,47.029017 0.45229,-8.367452 2.26148,0.226152"
     id="path4317"
     inkscape:connector-curvature="0" />
</svg>
