<?xml version="1.0" encoding="UTF-8" standalone="no"?>
<!-- Created with Inkscape (http://www.inkscape.org/) -->

<svg
   xmlns:dc="http://purl.org/dc/elements/1.1/"
   xmlns:cc="http://creativecommons.org/ns#"
   xmlns:rdf="http://www.w3.org/1999/02/22-rdf-syntax-ns#"
   xmlns:svg="http://www.w3.org/2000/svg"
   xmlns="http://www.w3.org/2000/svg"
   xmlns:sodipodi="http://sodipodi.sourceforge.net/DTD/sodipodi-0.dtd"
   xmlns:inkscape="http://www.inkscape.org/namespaces/inkscape"
   width="730.00006"
   height="180.56075"
   id="svg2"
   version="1.1"
   inkscape:version="0.48.4 r9939"
   sodipodi:docname="logo.svg">
  <defs
     id="defs4" />
  <sodipodi:namedview
     id="base"
     pagecolor="#ffffff"
     bordercolor="#666666"
     borderopacity="1.0"
     inkscape:pageopacity="0.0"
     inkscape:pageshadow="2"
     inkscape:zoom="1.5252328"
     inkscape:cx="207.75814"
     inkscape:cy="-63.857101"
     inkscape:document-units="px"
     inkscape:current-layer="layer2"
     showgrid="true"
     inkscape:snap-grids="false"
     inkscape:window-width="1920"
     inkscape:window-height="1060"
     inkscape:window-x="-2"
     inkscape:window-y="-3"
     inkscape:window-maximized="1"
     fit-margin-top="0"
     fit-margin-left="0"
     fit-margin-right="0"
     fit-margin-bottom="0">
    <inkscape:grid
       type="xygrid"
       id="grid2985"
       empspacing="5"
       visible="true"
       enabled="true"
       snapvisiblegridlinesonly="true"
       originx="0.75813514px"
       originy="-869.27856px" />
  </sodipodi:namedview>
  <metadata
     id="metadata7">
    <rdf:RDF>
      <cc:Work
         rdf:about="">
        <dc:format>image/svg+xml</dc:format>
        <dc:type
           rdf:resource="http://purl.org/dc/dcmitype/StillImage" />
        <dc:title />
      </cc:Work>
    </rdf:RDF>
  </metadata>
  <g
     inkscape:groupmode="layer"
     id="layer2"
     inkscape:label="icon"
     transform="translate(0.75813514,-2.5228611)">
    <g
       id="g3040">
      <text
         transform="scale(1.0625085,0.94116895)"
         sodipodi:linespacing="125%"
         id="text3049"
         y="192.42447"
         x="88.085327"
         style="font-size:161.80177307px;font-style:normal;font-variant:normal;font-weight:normal;font-stretch:normal;text-align:start;line-height:125%;letter-spacing:0px;word-spacing:0px;writing-mode:lr-tb;text-anchor:start;fill:#000000;fill-opacity:1;stroke:none;font-family:Ubuntu;-inkscape-font-specification:Ubuntu"
         xml:space="preserve"><tspan
           y="192.42447"
           x="88.085327"
           id="tspan3053"
           sodipodi:role="line">roadlink</tspan></text>
      <text
         sodipodi:linespacing="125%"
         id="text3045"
         y="182.59351"
         x="-5.0579638"
         style="font-size:160.10998535px;font-style:italic;font-variant:normal;font-weight:normal;font-stretch:normal;text-align:start;line-height:125%;letter-spacing:0px;word-spacing:0px;writing-mode:lr-tb;text-anchor:start;fill:#000000;fill-opacity:1;stroke:none;font-family:Sans;-inkscape-font-specification:Sans Italic"
         xml:space="preserve"><tspan
           y="182.59351"
           x="-5.0579638"
           id="tspan3047"
           sodipodi:role="line">B</tspan></text>
      <path
         transform="matrix(1.7615159,0,0,1.7615159,4.1003637,-26.6841)"
         d="m 156.69877,58.043594 c 0,6.209029 -5.08531,11.242442 -11.35835,11.242442 -6.27304,0 -11.35834,-5.033413 -11.35834,-11.242442 0,-6.209028 5.0853,-11.242441 11.35834,-11.242441 6.27304,0 11.35835,5.033413 11.35835,11.242441 z"
         sodipodi:ry="11.242441"
         sodipodi:rx="11.358343"
         sodipodi:cy="58.043594"
         sodipodi:cx="145.34042"
         id="path3112"
         style="fill:#000000;fill-opacity:1;stroke:#000000;stroke-width:1;stroke-linecap:round;stroke-linejoin:round;stroke-miterlimit:4;stroke-opacity:1;stroke-dasharray:none"
         sodipodi:type="arc" />
      <path
         inkscape:transform-center-y="20.407784"
         inkscape:transform-center-x="49.926183"
         transform="matrix(1.5721315,0,0,1.5721315,89.963702,-53.53923)"
         d="m 156.69877,58.043594 c 0,6.209029 -5.08531,11.242442 -11.35835,11.242442 -6.27304,0 -11.35834,-5.033413 -11.35834,-11.242442 0,-6.209028 5.0853,-11.242441 11.35834,-11.242441 6.27304,0 11.35835,5.033413 11.35835,11.242441 z"
         sodipodi:ry="11.242441"
         sodipodi:rx="11.358343"
         sodipodi:cy="58.043594"
         sodipodi:cx="145.34042"
         id="path3112-3"
         style="fill:#000000;fill-opacity:1;stroke:#000000;stroke-width:1;stroke-linecap:round;stroke-linejoin:round;stroke-miterlimit:4;stroke-opacity:1;stroke-dasharray:none"
         sodipodi:type="arc" />
      <path
         transform="matrix(1.239915,0,0,1.239915,195.14901,-54.08188)"
         d="m 156.69877,58.043594 c 0,6.209029 -5.08531,11.242442 -11.35835,11.242442 -6.27304,0 -11.35834,-5.033413 -11.35834,-11.242442 0,-6.209028 5.0853,-11.242441 11.35834,-11.242441 6.27304,0 11.35835,5.033413 11.35835,11.242441 z"
         sodipodi:ry="11.242441"
         sodipodi:rx="11.358343"
         sodipodi:cy="58.043594"
         sodipodi:cx="145.34042"
         id="path3112-6"
         style="fill:#000000;fill-opacity:1;stroke:#000000;stroke-width:1;stroke-linecap:round;stroke-linejoin:round;stroke-miterlimit:4;stroke-opacity:1;stroke-dasharray:none"
         sodipodi:type="arc" />
      <path
         transform="matrix(1.0486614,0,0,1.0486614,274.16846,-46.04327)"
         d="m 156.69877,58.043594 c 0,6.209029 -5.08531,11.242442 -11.35835,11.242442 -6.27304,0 -11.35834,-5.033413 -11.35834,-11.242442 0,-6.209028 5.0853,-11.242441 11.35834,-11.242441 6.27304,0 11.35835,5.033413 11.35835,11.242441 z"
         sodipodi:ry="11.242441"
         sodipodi:rx="11.358343"
         sodipodi:cy="58.043594"
         sodipodi:cx="145.34042"
         id="path3112-7"
         style="fill:#000000;fill-opacity:1;stroke:#000000;stroke-width:1;stroke-linecap:round;stroke-linejoin:round;stroke-miterlimit:4;stroke-opacity:1;stroke-dasharray:none"
         sodipodi:type="arc" />
      <path
         transform="matrix(0.73502108,0,0,0.73502108,364.62443,-17.638326)"
         d="m 156.69877,58.043594 c 0,6.209029 -5.08531,11.242442 -11.35835,11.242442 -6.27304,0 -11.35834,-5.033413 -11.35834,-11.242442 0,-6.209028 5.0853,-11.242441 11.35834,-11.242441 6.27304,0 11.35835,5.033413 11.35835,11.242441 z"
         sodipodi:ry="11.242441"
         sodipodi:rx="11.358343"
         sodipodi:cy="58.043594"
         sodipodi:cx="145.34042"
         id="path3112-5"
         style="fill:#000000;fill-opacity:1;stroke:#000000;stroke-width:1;stroke-linecap:round;stroke-linejoin:round;stroke-miterlimit:4;stroke-opacity:1;stroke-dasharray:none"
         sodipodi:type="arc" />
      <path
         transform="matrix(0.50916397,0,0,0.50916397,427.43829,15.276965)"
         d="m 156.69877,58.043594 c 0,6.209029 -5.08531,11.242442 -11.35835,11.242442 -6.27304,0 -11.35834,-5.033413 -11.35834,-11.242442 0,-6.209028 5.0853,-11.242441 11.35834,-11.242441 6.27304,0 11.35835,5.033413 11.35835,11.242441 z"
         sodipodi:ry="11.242441"
         sodipodi:rx="11.358343"
         sodipodi:cy="58.043594"
         sodipodi:cx="145.34042"
         id="path3112-35"
         style="fill:#000000;fill-opacity:1;stroke:#000000;stroke-width:1;stroke-linecap:round;stroke-linejoin:round;stroke-miterlimit:4;stroke-opacity:1;stroke-dasharray:none"
         sodipodi:type="arc" />
    </g>
  </g>
</svg>
