<?xml version="1.0" encoding="UTF-8" standalone="no"?>
<svg
   xmlns:dc="http://purl.org/dc/elements/1.1/"
   xmlns:cc="http://creativecommons.org/ns#"
   xmlns:rdf="http://www.w3.org/1999/02/22-rdf-syntax-ns#"
   xmlns:svg="http://www.w3.org/2000/svg"
   xmlns="http://www.w3.org/2000/svg"
   xmlns:sodipodi="http://sodipodi.sourceforge.net/DTD/sodipodi-0.dtd"
   xmlns:inkscape="http://www.inkscape.org/namespaces/inkscape"
   data-name="Layer 1"
   viewBox="0 0 100 125"
   x="0px"
   y="0px"
   id="svg3207"
   version="1.1"
   inkscape:version="0.48.4 r9939"
   width="100%"
   height="100%"
   sodipodi:docname="noiselevel.svg">
  <metadata
     id="metadata3219">
    <rdf:RDF>
      <cc:Work
         rdf:about="">
        <dc:format>image/svg+xml</dc:format>
        <dc:type
           rdf:resource="http://purl.org/dc/dcmitype/StillImage" />
      </cc:Work>
    </rdf:RDF>
  </metadata>
  <defs
     id="defs3217" />
  <sodipodi:namedview
     pagecolor="#ffffff"
     bordercolor="#666666"
     borderopacity="1"
     objecttolerance="10"
     gridtolerance="10"
     guidetolerance="10"
     inkscape:pageopacity="0"
     inkscape:pageshadow="2"
     inkscape:window-width="1920"
     inkscape:window-height="1060"
     id="namedview3215"
     showgrid="false"
     inkscape:zoom="1.888"
     inkscape:cx="50"
     inkscape:cy="62.5"
     inkscape:window-x="-2"
     inkscape:window-y="-3"
     inkscape:window-maximized="1"
     inkscape:current-layer="svg3207" />
  <title
     id="title3209">09</title>
  <path
     id="path3990-7"
     d="m 60.991637,16.823382 c 1.79558,0 -0.357156,9.117945 -0.746978,11.741366 -0.368044,2.510986 0.312511,2.510986 1.572358,1.439757 1.250046,-1.086846 14.033612,-20.5391905 15.729013,-18.907362 2.632938,2.54378 -11.523722,36.810646 -11.266743,42.121509 0.870023,11.197939 29.337958,-27.435041 32.450009,-26.986875 2.007924,0.271712 -7.719142,25.147359 -10.575298,31.306143 -0.346267,0.719882 -0.870024,1.631825 0.289644,1.007209 1.941492,-1.040006 6.938408,-6.079149 8.232009,-6.286836 1.762907,-0.287327 2.677584,0.91195 1.762907,5.1344 -2.342203,10.798182 -19.47697,47.896157 -21.808283,46.776527 -0.948422,-0.46378 -1.003957,-3.74307 1.606113,-11.502457 2.599181,-7.759388 3.860115,-11.933429 4.451382,-15.96537 0.602156,-4.014777 -1.997025,-8.366843 -4.651739,-5.262457 -2.665602,3.0872 -9.973142,15.005017 -11.802477,13.34195 -1.829335,-1.663047 0.602156,-13.790115 -4.049583,-8.782211 -4.126892,4.43172 -23.615845,35.673825 -26.058224,33.931125 -1.327357,-0.96035 -0.814491,-3.27926 0.691445,-7.08634 1.495046,-3.807089 9.303476,-24.012115 11.3005,-31.402972 1.997023,-7.390856 2.152734,-12.15829 0.491089,-11.91782 -1.661646,0.24047 -7.920586,8.223168 -9.905632,9.662932 -1.997025,1.424129 -1.394867,-2.751464 -3.056514,-4.191228 -1.661646,-1.424152 -5.477115,2.623423 -6.815362,4.303657 -1.327356,1.663071 -10.9771,15.245514 -12.304456,16.908564 -1.327358,1.68023 -3.960294,4.17561 -3.758849,0.43255 0.201444,-3.74306 4.930493,-17.628441 4.506916,-18.045384 -0.412688,-0.415369 -0.602156,0.207765 -1.907736,1.647459 C 14.073547,71.680958 4.9366724,81.198663 3.732359,82.159038 2.5389363,83.11939 0.58655585,84.910502 1.0776454,81.918545 1.568735,78.943774 5.8633171,70.623788 7.5587185,67.856713 9.265009,65.089615 20.097286,48.691691 21.725176,50.228266 c 1.416646,1.344502 -0.937533,9.199136 0.33429,10.813797 7.259898,-6.339824 12.359048,-20.758097 18.997862,-29.146509 2.699359,-3.327684 -0.590805,12.054012 2.890903,9.613768 5.395633,-4.224822 15.192294,-24.668763 17.043406,-24.68594 z"
     clip-rule="evenodd"
     inkscape:connector-curvature="0"
     style="fill-rule:evenodd"
     sodipodi:nodetypes="ccccccccccccccscccssccccscccccccccc" />
</svg>
