<?xml version="1.0" encoding="UTF-8" standalone="no"?>
<svg
   xmlns:dc="http://purl.org/dc/elements/1.1/"
   xmlns:cc="http://creativecommons.org/ns#"
   xmlns:rdf="http://www.w3.org/1999/02/22-rdf-syntax-ns#"
   xmlns:svg="http://www.w3.org/2000/svg"
   xmlns="http://www.w3.org/2000/svg"
   xmlns:sodipodi="http://sodipodi.sourceforge.net/DTD/sodipodi-0.dtd"
   xmlns:inkscape="http://www.inkscape.org/namespaces/inkscape"
   data-name="Layer 1"
   viewBox="0 0 275 502"
   x="0px"
   y="0px"
   id="svg3207"
   version="1.1"
   inkscape:version="0.48.4 r9939"
   width="100%"
   height="100%"
   sodipodi:docname="icon.svg">
  <metadata
     id="metadata3219">
    <rdf:RDF>
      <cc:Work
         rdf:about="">
        <dc:format>image/svg+xml</dc:format>
        <dc:type
           rdf:resource="http://purl.org/dc/dcmitype/StillImage" />
        <dc:title>09</dc:title>
      </cc:Work>
    </rdf:RDF>
  </metadata>
  <defs
     id="defs3217" />
  <sodipodi:namedview
     pagecolor="#ffffff"
     bordercolor="#666666"
     borderopacity="1"
     objecttolerance="10"
     gridtolerance="10"
     guidetolerance="10"
     inkscape:pageopacity="0"
     inkscape:pageshadow="2"
     inkscape:window-width="1920"
     inkscape:window-height="1060"
     id="namedview3215"
     showgrid="false"
     inkscape:zoom="1.3350176"
     inkscape:cx="231.34629"
     inkscape:cy="302.43494"
     inkscape:window-x="-2"
     inkscape:window-y="-3"
     inkscape:window-maximized="1"
     inkscape:current-layer="svg3207"
     fit-margin-top="1"
     fit-margin-left="1"
     fit-margin-right="1"
     fit-margin-bottom="1" />
  <title
     id="title3209">09</title>
  <path
     style="fill:none;stroke:#000000;stroke-width:6.53084135;stroke-linecap:round;stroke-linejoin:miter;stroke-miterlimit:4;stroke-opacity:1;stroke-dasharray:none"
     d="m 270.60204,229.54623 c 0,40.94398 2.06447,108.65387 -10.10231,196.43674 -11.22229,53.81695 -37.40366,70.24723 -72.89157,71.75161 -47.51315,-0.14019 -51.38504,0.0484 -102.468197,-0.0447 C 43.348914,495.35181 17.4548,471.7042 13.861944,424.56498 0.36323441,308.49551 5.054067,277.45145 5.054067,231.95918 7.5256312,148.89584 12.552148,93.269262 20.20364,58.176762 30.789844,13.263032 65.352811,6.6460918 88.75285,5.4395918 c 37.72464,-1.48194 46.67663,-1.79029 103.12036,0.42614 24.16491,0.85276 56.33423,10.5766202 67.90743,59.4731802 10.16706,51.739108 9.01494,92.768078 10.8214,164.207278 z"
     id="path3040"
     inkscape:connector-curvature="0"
     sodipodi:nodetypes="sccccccccccs" />
  <path
     sodipodi:type="arc"
     style="fill:none;stroke:#000000;stroke-width:5.92987394;stroke-linecap:round;stroke-linejoin:miter;stroke-miterlimit:4;stroke-opacity:1;stroke-dasharray:none"
     id="path3811"
     sodipodi:cx="243.63234"
     sodipodi:cy="143.96457"
     sodipodi:rx="35.437431"
     sodipodi:ry="38.205978"
     d="m 279.06977,143.96457 a 35.437431,38.205978 0 1 1 -70.87486,0 35.437431,38.205978 0 1 1 70.87486,0 z"
     transform="matrix(1.1467724,0,0,1.0577185,-140.96066,-17.136036)" />
  <path
     transform="matrix(1.0874821,0,0,1.0894658,-134.64465,-17.483793)"
     sodipodi:type="arc"
     style="fill:none;stroke:#000000;stroke-width:6;stroke-linecap:round;stroke-linejoin:miter;stroke-miterlimit:4;stroke-opacity:1;stroke-dasharray:none"
     id="path3813"
     sodipodi:cx="202.93466"
     sodipodi:cy="339.97784"
     sodipodi:rx="12.458471"
     sodipodi:ry="12.181617"
     d="m 215.39313,339.97784 a 12.458471,12.181617 0 1 1 -24.91694,0 12.458471,12.181617 0 1 1 24.91694,0 z" />
  <path
     transform="matrix(1.0874821,0,0,1.0894658,-36.795346,-16.880534)"
     sodipodi:type="arc"
     style="fill:none;stroke:#000000;stroke-width:6;stroke-linecap:round;stroke-linejoin:miter;stroke-miterlimit:4;stroke-opacity:1;stroke-dasharray:none"
     id="path3813-3"
     sodipodi:cx="202.93466"
     sodipodi:cy="339.97784"
     sodipodi:rx="12.458471"
     sodipodi:ry="12.181617"
     d="m 215.39313,339.97784 a 12.458471,12.181617 0 1 1 -24.91694,0 12.458471,12.181617 0 1 1 24.91694,0 z" />
  <rect
     style="fill:none;stroke:#000000;stroke-width:6.53084135;stroke-linecap:butt;stroke-linejoin:miter;stroke-miterlimit:4;stroke-opacity:1;stroke-dasharray:none"
     id="rect3833"
     width="13.583335"
     height="16.624353"
     x="130.91167"
     y="255.56381" />
  <path
     sodipodi:type="arc"
     style="fill:none;stroke:#000000;stroke-width:6.01020861;stroke-linecap:round;stroke-linejoin:miter;stroke-miterlimit:4;stroke-opacity:1;stroke-dasharray:none"
     id="path3853"
     sodipodi:cx="291.52823"
     sodipodi:cy="364.61795"
     sodipodi:rx="109.3577"
     sodipodi:ry="106.03544"
     d="m 400.88593,364.61795 a 109.3577,106.03544 0 1 1 -218.7154,0 109.3577,106.03544 0 1 1 218.7154,0 z"
     transform="matrix(1.0690172,0,0,1.1045223,-173.00865,-42.911359)" />
  <path
     sodipodi:type="arc"
     style="fill:none;stroke:#000000;stroke-width:6.7264514;stroke-linecap:round;stroke-linejoin:miter;stroke-miterlimit:4;stroke-opacity:1;stroke-dasharray:none"
     id="path3853-7"
     sodipodi:cx="291.52823"
     sodipodi:cy="364.61795"
     sodipodi:rx="109.3577"
     sodipodi:ry="106.03544"
     d="m 400.88593,364.61795 a 109.3577,106.03544 0 1 1 -218.7154,0 109.3577,106.03544 0 1 1 218.7154,0 z"
     transform="matrix(0.95518664,0,0,0.98691107,-139.48769,-0.07614818)" />
  <rect
     style="fill:none;stroke:#000000;stroke-width:6.53084135;stroke-linecap:butt;stroke-linejoin:miter;stroke-miterlimit:4;stroke-opacity:1;stroke-dasharray:none"
     id="rect3833-5"
     width="13.583335"
     height="16.624353"
     x="131.06548"
     y="445.99506" />
  <path
     style="fill:none;stroke:#000000;stroke-width:6.53084135;stroke-linecap:butt;stroke-linejoin:miter;stroke-miterlimit:4;stroke-opacity:1;stroke-dasharray:none"
     d="m 49.29406,307.14378 0,35.40454 -12.773522,0"
     id="path3891"
     inkscape:connector-curvature="0" />
  <path
     style="fill:none;stroke:#000000;stroke-width:6.53084135;stroke-linecap:butt;stroke-linejoin:miter;stroke-miterlimit:4;stroke-opacity:1;stroke-dasharray:none"
     d="m 36.094756,368.99508 13.625086,0 0,44.36232"
     id="path3893"
     inkscape:connector-curvature="0" />
  <path
     style="fill:none;stroke:#000000;stroke-width:6.53084135;stroke-linecap:butt;stroke-linejoin:miter;stroke-miterlimit:4;stroke-opacity:1;stroke-dasharray:none"
     d="m 243.02581,368.99508 -17.03135,0 0,46.92168"
     id="path3895"
     inkscape:connector-curvature="0" />
  <path
     style="fill:none;stroke:#000000;stroke-width:6.53084135;stroke-linecap:butt;stroke-linejoin:miter;stroke-miterlimit:4;stroke-opacity:1;stroke-dasharray:none"
     d="m 240.8969,343.40144 -15.32823,0 0,-41.80295"
     id="path3897"
     inkscape:connector-curvature="0" />
</svg>
