<?xml version="1.0" encoding="UTF-8" standalone="no"?>
<!-- Created with Inkscape (http://www.inkscape.org/) -->

<svg
   xmlns:dc="http://purl.org/dc/elements/1.1/"
   xmlns:cc="http://creativecommons.org/ns#"
   xmlns:rdf="http://www.w3.org/1999/02/22-rdf-syntax-ns#"
   xmlns:svg="http://www.w3.org/2000/svg"
   xmlns="http://www.w3.org/2000/svg"
   xmlns:sodipodi="http://sodipodi.sourceforge.net/DTD/sodipodi-0.dtd"
   xmlns:inkscape="http://www.inkscape.org/namespaces/inkscape"
   id="svg3030"
   version="1.1"
   inkscape:version="0.48.4 r9939"
   width="500"
   height="500"
   sodipodi:docname="SP3S_500x500.jpg">
  <metadata
     id="metadata3036">
    <rdf:RDF>
      <cc:Work
         rdf:about="">
        <dc:format>image/svg+xml</dc:format>
        <dc:type
           rdf:resource="http://purl.org/dc/dcmitype/StillImage" />
        <dc:title></dc:title>
      </cc:Work>
    </rdf:RDF>
  </metadata>
  <defs
     id="defs3034" />
  <sodipodi:namedview
     pagecolor="#ffffff"
     bordercolor="#666666"
     borderopacity="1"
     objecttolerance="10"
     gridtolerance="10"
     guidetolerance="10"
     inkscape:pageopacity="0"
     inkscape:pageshadow="2"
     inkscape:window-width="1920"
     inkscape:window-height="1060"
     id="namedview3032"
     showgrid="false"
     inkscape:zoom="0.31925871"
     inkscape:cx="219.06815"
     inkscape:cy="-351.48071"
     inkscape:window-x="-2"
     inkscape:window-y="-3"
     inkscape:window-maximized="1"
     inkscape:current-layer="svg3030" />
  <path
     style="fill:none;stroke:#000000;stroke-width:6;stroke-linecap:round;stroke-linejoin:miter;stroke-miterlimit:4;stroke-opacity:1;stroke-dasharray:none"
     d="m 372.64674,226.74418 c 0,37.5817 1.8984,99.73132 -9.28963,180.30555 -10.31951,49.39756 -34.39474,64.4786 -67.02783,65.85944 -43.69096,-0.12868 -47.25138,0.0444 -94.22517,-0.041 -38.42918,-2.1461 -62.24025,-23.85179 -65.54408,-67.11999 -12.41281,-106.53796 -8.09933,-135.03271 -8.09933,-176.7892 2.27274,-76.24227 6.8949,-127.30085 13.93087,-159.511593 9.7346,-41.225455 41.51716,-47.29903 63.03479,-48.40645 34.68989,-1.360245 42.92175,-1.643267 94.82487,0.391146 22.22097,0.782733 51.80244,9.708071 62.44464,54.589303 9.34917,47.490344 8.28974,85.150064 9.95087,150.722754 z"
     id="path3040"
     inkscape:connector-curvature="0"
     sodipodi:nodetypes="sccccccccccs" />
  <path
     sodipodi:type="arc"
     style="fill:none;stroke:#000000;stroke-width:5.9298741;stroke-linecap:round;stroke-linejoin:miter;stroke-miterlimit:4;stroke-opacity:1;stroke-dasharray:none"
     id="path3811"
     sodipodi:cx="243.63234"
     sodipodi:cy="143.96457"
     sodipodi:rx="35.437431"
     sodipodi:ry="38.205978"
     d="m 279.06977,143.96457 a 35.437431,38.205978 0 1 1 -70.87486,0 35.437431,38.205978 0 1 1 70.87486,0 z"
     transform="matrix(1.0545206,0,0,0.97085973,-5.8079088,0.31919789)" />
  <path
     sodipodi:type="arc"
     style="fill:none;stroke:#000000;stroke-width:6;stroke-linecap:round;stroke-linejoin:miter;stroke-miterlimit:4;stroke-opacity:1;stroke-dasharray:none"
     id="path3813"
     sodipodi:cx="202.93466"
     sodipodi:cy="339.97784"
     sodipodi:rx="12.458471"
     sodipodi:ry="12.181617"
     d="m 215.39313,339.97784 a 12.458471,12.181617 0 1 1 -24.91694,0 12.458471,12.181617 0 1 1 24.91694,0 z" />
  <path
     transform="translate(89.977853,0.55372167)"
     sodipodi:type="arc"
     style="fill:none;stroke:#000000;stroke-width:6;stroke-linecap:round;stroke-linejoin:miter;stroke-miterlimit:4;stroke-opacity:1;stroke-dasharray:none"
     id="path3813-3"
     sodipodi:cx="202.93466"
     sodipodi:cy="339.97784"
     sodipodi:rx="12.458471"
     sodipodi:ry="12.181617"
     d="m 215.39313,339.97784 a 12.458471,12.181617 0 1 1 -24.91694,0 12.458471,12.181617 0 1 1 24.91694,0 z" />
  <rect
     style="fill:none;stroke:#000000;stroke-width:6;stroke-linecap:butt;stroke-linejoin:miter;stroke-opacity:1;stroke-miterlimit:4;stroke-dasharray:none"
     id="rect3833"
     width="12.490628"
     height="15.259178"
     x="244.19373"
     y="250.6252" />
  <path
     sodipodi:type="arc"
     style="fill:none;stroke:#000000;stroke-width:6.01020871;stroke-linecap:round;stroke-linejoin:miter;stroke-miterlimit:4;stroke-opacity:1;stroke-dasharray:none"
     id="path3853"
     sodipodi:cx="291.52823"
     sodipodi:cy="364.61795"
     sodipodi:rx="109.3577"
     sodipodi:ry="106.03544"
     d="m 400.88593,364.61795 a 109.3577,106.03544 0 1 1 -218.7154,0 109.3577,106.03544 0 1 1 218.7154,0 z"
     transform="matrix(0.98302042,0,0,1.01382,-35.277806,-23.339486)" />
  <path
     sodipodi:type="arc"
     style="fill:none;stroke:#000000;stroke-width:6.72645117;stroke-linecap:round;stroke-linejoin:miter;stroke-miterlimit:4;stroke-opacity:1;stroke-dasharray:none"
     id="path3853-7"
     sodipodi:cx="291.52823"
     sodipodi:cy="364.61795"
     sodipodi:rx="109.3577"
     sodipodi:ry="106.03544"
     d="m 400.88593,364.61795 a 109.3577,106.03544 0 1 1 -218.7154,0 109.3577,106.03544 0 1 1 218.7154,0 z"
     transform="matrix(0.87834695,0,0,0.90586695,-4.4534305,15.978149)" />
  <rect
     style="fill:none;stroke:#000000;stroke-width:6;stroke-linecap:butt;stroke-linejoin:miter;stroke-opacity:1;stroke-miterlimit:4;stroke-dasharray:none"
     id="rect3833-5"
     width="12.490628"
     height="15.259178"
     x="244.33516"
     y="425.41843" />
  <path
     style="fill:none;stroke:#000000;stroke-width:6;stroke-linecap:butt;stroke-linejoin:miter;stroke-opacity:1;stroke-miterlimit:4;stroke-dasharray:none"
     d="m 169.14182,297.96949 0,32.49716 -11.74596,0"
     id="path3891"
     inkscape:connector-curvature="0" />
  <path
     style="fill:none;stroke:#000000;stroke-width:6;stroke-linecap:butt;stroke-linejoin:miter;stroke-opacity:1;stroke-miterlimit:4;stroke-dasharray:none"
     d="m 157.00433,354.74163 12.52902,0 0,40.71933"
     id="path3893"
     inkscape:connector-curvature="0" />
  <path
     style="fill:none;stroke:#000000;stroke-width:6;stroke-linecap:butt;stroke-linejoin:miter;stroke-opacity:1;stroke-miterlimit:4;stroke-dasharray:none"
     d="m 347.28888,354.74163 -15.66128,0 0,43.06852"
     id="path3895"
     inkscape:connector-curvature="0" />
  <path
     style="fill:none;stroke:#000000;stroke-width:6;stroke-linecap:butt;stroke-linejoin:miter;stroke-opacity:1;stroke-miterlimit:4;stroke-dasharray:none"
     d="m 345.33122,331.24971 -14.09515,0 0,-38.37013"
     id="path3897"
     inkscape:connector-curvature="0" />
</svg>
