<?xml version="1.0" encoding="UTF-8" standalone="no"?>
<!-- Created with Inkscape (http://www.inkscape.org/) -->

<svg
   xmlns:dc="http://purl.org/dc/elements/1.1/"
   xmlns:cc="http://creativecommons.org/ns#"
   xmlns:rdf="http://www.w3.org/1999/02/22-rdf-syntax-ns#"
   xmlns:svg="http://www.w3.org/2000/svg"
   xmlns="http://www.w3.org/2000/svg"
   xmlns:sodipodi="http://sodipodi.sourceforge.net/DTD/sodipodi-0.dtd"
   xmlns:inkscape="http://www.inkscape.org/namespaces/inkscape"
   width="744.09448819"
   height="1052.3622047"
   id="svg2"
   version="1.1"
   inkscape:version="0.48.4 r9939"
   sodipodi:docname="rm-pro.svg">
  <defs
     id="defs4" />
  <sodipodi:namedview
     id="base"
     pagecolor="#ffffff"
     bordercolor="#666666"
     borderopacity="1.0"
     inkscape:pageopacity="0.0"
     inkscape:pageshadow="2"
     inkscape:zoom="1.7231868"
     inkscape:cx="479.44527"
     inkscape:cy="387.93951"
     inkscape:document-units="px"
     inkscape:current-layer="layer2"
     showgrid="true"
     inkscape:snap-to-guides="false"
     inkscape:snap-grids="false"
     inkscape:window-width="1920"
     inkscape:window-height="1060"
     inkscape:window-x="-2"
     inkscape:window-y="-3"
     inkscape:window-maximized="1">
    <inkscape:grid
       type="xygrid"
       id="grid2985"
       empspacing="5"
       visible="true"
       enabled="true"
       snapvisiblegridlinesonly="true" />
  </sodipodi:namedview>
  <metadata
     id="metadata7">
    <rdf:RDF>
      <cc:Work
         rdf:about="">
        <dc:format>image/svg+xml</dc:format>
        <dc:type
           rdf:resource="http://purl.org/dc/dcmitype/StillImage" />
        <dc:title></dc:title>
      </cc:Work>
    </rdf:RDF>
  </metadata>
  <g
     inkscape:groupmode="layer"
     id="layer2"
     inkscape:label="icon">
    <path
       sodipodi:type="arc"
       style="fill:none;stroke:#000000;stroke-width:0.63288391;stroke-linecap:round;stroke-linejoin:round;stroke-miterlimit:4;stroke-opacity:1;stroke-dasharray:none"
       id="path3066"
       sodipodi:cx="255.35715"
       sodipodi:cy="540.93359"
       sodipodi:rx="235.35715"
       sodipodi:ry="199.27104"
       d="M 43.350255,454.39832 A 235.35715,199.27104 0 0 1 129.09627,372.76427"
       transform="matrix(3.0091152,0,0,3.3187385,-108.46029,-773.78351)"
       sodipodi:start="3.5908083"
       sodipodi:end="4.1461462"
       sodipodi:open="true" />
    <path
       sodipodi:type="arc"
       style="fill:none;stroke:#000000;stroke-width:1.23220479;stroke-linecap:round;stroke-linejoin:round;stroke-miterlimit:4;stroke-opacity:1;stroke-dasharray:none"
       id="path3095"
       sodipodi:cx="285"
       sodipodi:cy="742.36218"
       sodipodi:rx="105"
       sodipodi:ry="150"
       d="m 234.12638,611.14438 a 105,150 0 0 1 101.05612,-0.542"
       transform="matrix(1.7929512,0,0,1.4693515,-139.56251,-435.14312)"
       sodipodi:start="4.2065853"
       sodipodi:end="5.210684"
       sodipodi:open="true" />
    <path
       sodipodi:type="arc"
       style="fill:none;stroke:#000000;stroke-width:2.64580226;stroke-linecap:round;stroke-linejoin:round;stroke-miterlimit:4;stroke-opacity:1;stroke-dasharray:none"
       id="path3097-6"
       sodipodi:cx="165"
       sodipodi:cy="717.36218"
       sodipodi:rx="145"
       sodipodi:ry="85"
       d="M 121.78327,798.49905 A 145,85 0 0 1 21.018634,707.30457"
       transform="matrix(0.76534846,0,0,0.74515448,5.2963711,217.74435)"
       sodipodi:start="1.8734417"
       sodipodi:end="3.2601954"
       sodipodi:open="true" />
    <path
       sodipodi:type="arc"
       style="fill:none;stroke:#000000;stroke-width:2.64580226;stroke-linecap:round;stroke-linejoin:round;stroke-miterlimit:4;stroke-opacity:1;stroke-dasharray:none"
       id="path3097"
       sodipodi:cx="165"
       sodipodi:cy="717.36218"
       sodipodi:rx="145"
       sodipodi:ry="85"
       d="M 121.78327,798.49905 A 145,85 0 0 1 21.018634,707.30457"
       transform="matrix(0.77286401,0,0,0.74504873,5.8048516,205.10969)"
       sodipodi:start="1.8734417"
       sodipodi:end="3.2601954"
       sodipodi:open="true" />
    <path
       sodipodi:type="arc"
       style="fill:none;stroke:#000000;stroke-width:2.64580226;stroke-linecap:round;stroke-linejoin:round;stroke-miterlimit:4;stroke-opacity:1;stroke-dasharray:none"
       id="path3097-6-7"
       sodipodi:cx="165"
       sodipodi:cy="717.36218"
       sodipodi:rx="144.78465"
       sodipodi:ry="85"
       d="M 121.84746,798.49905 A 144.78465,85 0 0 1 21.232469,707.30457"
       transform="matrix(0.77286401,0,0,0.74504873,4.3762849,230.13384)"
       sodipodi:start="1.8734417"
       sodipodi:end="3.2601954"
       sodipodi:open="true" />
    <path
       sodipodi:type="arc"
       style="fill:none;stroke:#000000;stroke-width:2.64580226;stroke-linecap:round;stroke-linejoin:round;stroke-miterlimit:4;stroke-opacity:1;stroke-dasharray:none"
       id="path3097-5"
       sodipodi:cx="165"
       sodipodi:cy="717.36218"
       sodipodi:rx="145"
       sodipodi:ry="85"
       d="M 121.78327,798.49905 A 145,85 0 0 1 21.018634,707.30457"
       transform="matrix(-0.77885623,0,0,0.74653244,736.23107,216.1114)"
       sodipodi:start="1.8734417"
       sodipodi:end="3.2601954"
       sodipodi:open="true" />
    <path
       sodipodi:type="arc"
       style="fill:none;stroke:#000000;stroke-width:2.64580226;stroke-linecap:round;stroke-linejoin:round;stroke-miterlimit:4;stroke-opacity:1;stroke-dasharray:none"
       id="path3097-5-3"
       sodipodi:cx="165"
       sodipodi:cy="717.36218"
       sodipodi:rx="145"
       sodipodi:ry="85"
       d="M 121.78327,798.49905 A 145,85 0 0 1 21.018634,707.30457"
       transform="matrix(-0.77733251,0,0,0.74812147,735.76984,202.04581)"
       sodipodi:start="1.8734417"
       sodipodi:end="3.2601954"
       sodipodi:open="true" />
    <path
       sodipodi:type="arc"
       style="fill:none;stroke:#000000;stroke-width:2.64580226;stroke-linecap:round;stroke-linejoin:round;stroke-miterlimit:4;stroke-opacity:1;stroke-dasharray:none"
       id="path3097-5-5"
       sodipodi:cx="165"
       sodipodi:cy="717.36218"
       sodipodi:rx="145"
       sodipodi:ry="85"
       d="M 121.78327,798.49905 A 145,85 0 0 1 21.018634,707.30457"
       transform="matrix(-0.78785517,0,0,0.74797441,737.0843,227.27736)"
       sodipodi:start="1.8734417"
       sodipodi:end="3.2601954"
       sodipodi:open="true" />
    <path
       sodipodi:type="arc"
       style="fill:none;stroke:#000000;stroke-width:2.26525593;stroke-linecap:round;stroke-linejoin:round;stroke-miterlimit:4;stroke-opacity:1;stroke-dasharray:none"
       id="path3983"
       sodipodi:cx="530"
       sodipodi:cy="512.36218"
       sodipodi:rx="750"
       sodipodi:ry="320"
       d="m 803.62063,810.30622 a 750,320 0 0 1 -542.02015,0.8633"
       transform="matrix(1.0001561,0,0,0.77939506,-162.08274,167.74031)"
       sodipodi:start="1.1973488"
       sodipodi:end="1.9367779"
       sodipodi:open="true" />
    <path
       sodipodi:type="arc"
       style="fill:none;stroke:#000000;stroke-width:2.26525593;stroke-linecap:round;stroke-linejoin:round;stroke-miterlimit:4;stroke-opacity:1;stroke-dasharray:none"
       id="path3983-6"
       sodipodi:cx="530"
       sodipodi:cy="512.36218"
       sodipodi:rx="750"
       sodipodi:ry="320"
       d="m 803.62063,810.30622 a 750,320 0 0 1 -542.02015,0.8633"
       transform="matrix(1.0001561,0,0,0.77939506,-162.36436,180.63124)"
       sodipodi:start="1.1973488"
       sodipodi:end="1.9367779"
       sodipodi:open="true" />
    <path
       sodipodi:type="arc"
       style="fill:none;stroke:#000000;stroke-width:2.26525593;stroke-linecap:round;stroke-linejoin:round;stroke-miterlimit:4;stroke-opacity:1;stroke-dasharray:none"
       id="path3983-2"
       sodipodi:cx="530"
       sodipodi:cy="512.36218"
       sodipodi:rx="750"
       sodipodi:ry="320"
       d="m 803.62063,810.30622 a 750,320 0 0 1 -542.02015,0.8633"
       transform="matrix(1.0001561,0,0,0.77939506,-162.44063,192.94081)"
       sodipodi:start="1.1973488"
       sodipodi:end="1.9367779"
       sodipodi:open="true" />
    <path
       sodipodi:type="arc"
       style="fill:none;stroke:#000000;stroke-width:0.63341671;stroke-linecap:round;stroke-linejoin:round;stroke-miterlimit:4;stroke-opacity:1;stroke-dasharray:none"
       id="path3066-9"
       sodipodi:cx="255.35715"
       sodipodi:cy="540.93359"
       sodipodi:rx="235.35715"
       sodipodi:ry="199.27104"
       d="M 43.350255,454.39832 A 235.35715,199.27104 0 0 1 129.09627,372.76427"
       transform="matrix(-3.0040305,0,0,3.3187658,850.29845,-774.2192)"
       sodipodi:start="3.5908083"
       sodipodi:end="4.1461462"
       sodipodi:open="true" />
    <rect
       style="fill:none;stroke:#000000;stroke-width:2;stroke-linecap:butt;stroke-linejoin:miter;stroke-miterlimit:4;stroke-opacity:1;stroke-dasharray:none"
       id="rect4030"
       width="30.799284"
       height="6.4872026"
       x="323.14111"
       y="832.25616" />
    <rect
       style="fill:none;stroke:#000000;stroke-width:2;stroke-linecap:butt;stroke-linejoin:miter;stroke-miterlimit:4;stroke-opacity:1;stroke-dasharray:none"
       id="rect4030-1"
       width="30.799284"
       height="6.4872026"
       x="384.14111"
       y="832.25616" />
    <path
       sodipodi:type="arc"
       style="fill:none;stroke:#000000;stroke-width:1.83187485;stroke-linecap:round;stroke-linejoin:round;stroke-miterlimit:4;stroke-opacity:1;stroke-dasharray:none"
       id="path4050"
       sodipodi:cx="370"
       sodipodi:cy="652.36218"
       sodipodi:rx="320"
       sodipodi:ry="70"
       d="M 606.1391,699.60323 A 320,70 0 0 1 130.88082,698.8804"
       transform="matrix(1.1935433,0,0,0.99868889,-68.96642,147.41377)"
       sodipodi:start="0.74079143"
       sodipodi:end="2.4147067"
       sodipodi:open="true" />
    <path
       sodipodi:type="arc"
       style="fill:none;stroke:#000000;stroke-width:2;stroke-linecap:round;stroke-linejoin:round;stroke-miterlimit:4;stroke-opacity:1;stroke-dasharray:none"
       id="path4072"
       sodipodi:cx="142.5"
       sodipodi:cy="752.36218"
       sodipodi:rx="122.5"
       sodipodi:ry="110"
       d="M 89.255192,851.42804 A 122.5,110 0 0 1 25.88379,786.04355"
       transform="matrix(1.0000774,0,0,0.98105262,-2.0110285,10.161598)"
       sodipodi:start="2.0204476"
       sodipodi:end="2.8304"
       sodipodi:open="true" />
    <path
       sodipodi:type="arc"
       style="fill:none;stroke:#000000;stroke-width:2;stroke-linecap:round;stroke-linejoin:round;stroke-miterlimit:4;stroke-opacity:1;stroke-dasharray:none"
       id="path4072-7"
       sodipodi:cx="142.5"
       sodipodi:cy="752.36218"
       sodipodi:rx="122.5"
       sodipodi:ry="110"
       d="M 89.255192,851.42804 A 122.5,110 0 0 1 25.88379,786.04355"
       transform="matrix(-0.98880461,0,0,0.98122127,742.00904,10.987328)"
       sodipodi:start="2.0204476"
       sodipodi:end="2.8304"
       sodipodi:open="true" />
    <path
       sodipodi:type="arc"
       style="fill:none;stroke:#000000;stroke-width:1.48422348;stroke-linecap:round;stroke-linejoin:round;stroke-miterlimit:4;stroke-opacity:1;stroke-dasharray:none"
       id="path4116"
       sodipodi:cx="357.5"
       sodipodi:cy="522.36218"
       sodipodi:rx="27.5"
       sodipodi:ry="25"
       d="m 333.44866,510.24079 a 27.5,25 0 0 1 48.31517,0.35519"
       transform="matrix(2.0002857,0,0,0.90775654,-345.27041,14.163229)"
       sodipodi:start="3.6477908"
       sodipodi:end="5.7931603"
       sodipodi:open="true" />
    <path
       sodipodi:type="arc"
       style="fill:none;stroke:#000000;stroke-width:1.51042306;stroke-linecap:round;stroke-linejoin:round;stroke-miterlimit:4;stroke-opacity:1;stroke-dasharray:none"
       id="path4116-0"
       sodipodi:cx="357.5"
       sodipodi:cy="522.36218"
       sodipodi:rx="27.5"
       sodipodi:ry="25"
       d="m 333.44866,510.24079 a 27.5,25 0 0 1 48.31517,0.35519"
       transform="matrix(1.9259341,0,0,0.91037709,-318.92049,17.707978)"
       sodipodi:start="3.6477908"
       sodipodi:end="5.7931603"
       sodipodi:open="true" />
    <path
       sodipodi:type="arc"
       style="fill:none;stroke:#000000;stroke-width:1.71938396;stroke-linecap:round;stroke-linejoin:round;stroke-miterlimit:4;stroke-opacity:1;stroke-dasharray:none"
       id="path4116-9"
       sodipodi:cx="357.5"
       sodipodi:cy="522.36218"
       sodipodi:rx="27.5"
       sodipodi:ry="25"
       d="m 333.44866,510.24079 a 27.5,25 0 0 1 48.31517,0.35519"
       transform="matrix(1.6305993,0,0,0.82978777,-213.27117,64.043265)"
       sodipodi:start="3.6477908"
       sodipodi:end="5.7931603"
       sodipodi:open="true" />
    <path
       transform="matrix(1.0052521,0,0,0.5603481,-2.9508585,282.47822)"
       sodipodi:type="arc"
       style="fill:none;stroke:#000000;stroke-width:2.66479349;stroke-linecap:round;stroke-linejoin:round;stroke-miterlimit:4;stroke-opacity:1;stroke-dasharray:none"
       id="path4161"
       sodipodi:cx="462.5"
       sodipodi:cy="559.86218"
       sodipodi:rx="47.5"
       sodipodi:ry="47.5"
       d="m 509.99386,559.09837 a 47.5,47.5 0 0 1 -49.0978,48.23672"
       sodipodi:start="6.2671043"
       sodipodi:end="7.8877552"
       sodipodi:open="true" />
    <path
       sodipodi:type="arc"
       style="fill:none;stroke:#000000;stroke-width:2;stroke-linecap:round;stroke-linejoin:round;stroke-miterlimit:4;stroke-opacity:1;stroke-dasharray:none"
       id="path4183"
       sodipodi:cx="480"
       sodipodi:cy="579.86218"
       sodipodi:rx="15"
       sodipodi:ry="12.5"
       d="m 491.50985,571.84642 a 15,12.5 0 0 1 3.47725,8.53412"
       sodipodi:start="5.5870453"
       sodipodi:end="6.3246661"
       transform="translate(14.567366,14.772539)"
       sodipodi:open="true" />
    <path
       transform="matrix(1.1881177,0,0,0.57137298,-87.332471,276.10479)"
       sodipodi:type="arc"
       style="fill:none;stroke:#000000;stroke-width:2.42739487;stroke-linecap:round;stroke-linejoin:round;stroke-miterlimit:4;stroke-opacity:1;stroke-dasharray:none"
       id="path4161-3"
       sodipodi:cx="462.5"
       sodipodi:cy="559.86218"
       sodipodi:rx="47.5"
       sodipodi:ry="47.5"
       d="m 509.99386,559.09837 a 47.5,47.5 0 0 1 -49.0978,48.23672"
       sodipodi:start="6.2671043"
       sodipodi:end="7.8877552"
       sodipodi:open="true" />
    <path
       sodipodi:type="arc"
       style="fill:none;stroke:#000000;stroke-width:1.7646184;stroke-linecap:round;stroke-linejoin:round;stroke-miterlimit:4;stroke-opacity:1;stroke-dasharray:none"
       id="path4221"
       sodipodi:cx="492.5"
       sodipodi:cy="577.36218"
       sodipodi:rx="27.5"
       sodipodi:ry="20"
       d="m 516.09453,567.08862 a 27.5,20 0 0 1 3.85442,11.49163"
       transform="matrix(0.99514947,0,0,1.2908331,1.1578403,-151.50208)"
       sodipodi:start="5.7437188"
       sodipodi:end="6.3441264"
       sodipodi:open="true" />
    <path
       sodipodi:type="arc"
       style="fill:none;stroke:#000000;stroke-width:1.7646184;stroke-linecap:round;stroke-linejoin:round;stroke-miterlimit:4;stroke-opacity:1;stroke-dasharray:none"
       id="path4221-0"
       sodipodi:cx="492.5"
       sodipodi:cy="577.36218"
       sodipodi:rx="27.5"
       sodipodi:ry="20"
       d="m 516.09453,567.08862 a 27.5,20 0 0 1 3.85442,11.49163"
       transform="matrix(0.99514947,0,0,1.2908331,6.5904789,-154.80715)"
       sodipodi:start="5.7437188"
       sodipodi:end="6.3441264"
       sodipodi:open="true" />
    <path
       transform="matrix(1.2643724,0,0,0.64543359,-120.68504,237.01977)"
       sodipodi:type="arc"
       style="fill:none;stroke:#000000;stroke-width:2.21394444;stroke-linecap:round;stroke-linejoin:round;stroke-miterlimit:4;stroke-opacity:1;stroke-dasharray:none"
       id="path4161-3-6"
       sodipodi:cx="462.5"
       sodipodi:cy="559.86218"
       sodipodi:rx="47.5"
       sodipodi:ry="47.5"
       d="m 509.99386,559.09837 a 47.5,47.5 0 0 1 -49.0978,48.23672"
       sodipodi:start="6.2671043"
       sodipodi:end="7.8877552"
       sodipodi:open="true" />
    <path
       style="fill:none;stroke:#000000;stroke-width:2;stroke-linecap:butt;stroke-linejoin:miter;stroke-miterlimit:4;stroke-opacity:1;stroke-dasharray:none"
       d="m 524.11921,591.64559 c 0,6.92852 0,6.92852 0,6.92852 l 0,0"
       id="path4259"
       inkscape:connector-curvature="0" />
    <path
       transform="matrix(-1.0052521,0,0,0.5603481,743.23436,282.16885)"
       sodipodi:type="arc"
       style="fill:none;stroke:#000000;stroke-width:2.66479349;stroke-linecap:round;stroke-linejoin:round;stroke-miterlimit:4;stroke-opacity:1;stroke-dasharray:none"
       id="path4161-2"
       sodipodi:cx="462.5"
       sodipodi:cy="559.86218"
       sodipodi:rx="47.5"
       sodipodi:ry="47.5"
       d="m 509.99386,559.09837 a 47.5,47.5 0 0 1 -49.0978,48.23672"
       sodipodi:start="6.2671043"
       sodipodi:end="7.8877552"
       sodipodi:open="true" />
    <path
       transform="matrix(-1.1857298,0,0,0.5569196,825.71757,284.37363)"
       sodipodi:type="arc"
       style="fill:none;stroke:#000000;stroke-width:2.4611659;stroke-linecap:round;stroke-linejoin:round;stroke-miterlimit:4;stroke-opacity:1;stroke-dasharray:none"
       id="path4161-3-61"
       sodipodi:cx="462.5"
       sodipodi:cy="559.86218"
       sodipodi:rx="47.5"
       sodipodi:ry="47.5"
       d="m 509.99386,559.09837 a 47.5,47.5 0 0 1 -49.0978,48.23672"
       sodipodi:start="6.2671043"
       sodipodi:end="7.8877552"
       sodipodi:open="true" />
    <path
       transform="matrix(-1.2643724,0,0,0.64543359,861.02203,237.05825)"
       sodipodi:type="arc"
       style="fill:none;stroke:#000000;stroke-width:2.21394444;stroke-linecap:round;stroke-linejoin:round;stroke-miterlimit:4;stroke-opacity:1;stroke-dasharray:none"
       id="path4161-3-6-8"
       sodipodi:cx="462.5"
       sodipodi:cy="559.86218"
       sodipodi:rx="47.5"
       sodipodi:ry="47.5"
       d="m 509.99386,559.09837 a 47.5,47.5 0 0 1 -49.0978,48.23672"
       sodipodi:start="6.2671043"
       sodipodi:end="7.8877552"
       sodipodi:open="true" />
    <path
       sodipodi:type="arc"
       style="fill:none;stroke:#000000;stroke-width:2;stroke-linecap:round;stroke-linejoin:round;stroke-miterlimit:4;stroke-opacity:1;stroke-dasharray:none"
       id="path4183-7"
       sodipodi:cx="480"
       sodipodi:cy="579.86218"
       sodipodi:rx="15"
       sodipodi:ry="12.5"
       d="m 491.50985,571.84642 a 15,12.5 0 0 1 3.47725,8.53412"
       sodipodi:start="5.5870453"
       sodipodi:end="6.3246661"
       transform="matrix(-1,0,0,1,725.51518,15.042086)"
       sodipodi:open="true" />
    <path
       sodipodi:type="arc"
       style="fill:none;stroke:#000000;stroke-width:1.7646184;stroke-linecap:round;stroke-linejoin:round;stroke-miterlimit:4;stroke-opacity:1;stroke-dasharray:none"
       id="path4221-9"
       sodipodi:cx="492.5"
       sodipodi:cy="577.36218"
       sodipodi:rx="27.5"
       sodipodi:ry="20"
       d="m 516.09453,567.08862 a 27.5,20 0 0 1 3.85442,11.49163"
       transform="matrix(-0.99514947,0,0,1.2908331,738.42211,-150.89556)"
       sodipodi:start="5.7437188"
       sodipodi:end="6.3441264"
       sodipodi:open="true" />
    <path
       sodipodi:type="arc"
       style="fill:none;stroke:#000000;stroke-width:1.7646184;stroke-linecap:round;stroke-linejoin:round;stroke-miterlimit:4;stroke-opacity:1;stroke-dasharray:none"
       id="path4221-0-2"
       sodipodi:cx="492.5"
       sodipodi:cy="577.36218"
       sodipodi:rx="27.5"
       sodipodi:ry="20"
       d="m 516.09453,567.08862 a 27.5,20 0 0 1 3.85442,11.49163"
       transform="matrix(-0.99514947,0,0,1.2908331,733.5925,-153.85475)"
       sodipodi:start="5.7437188"
       sodipodi:end="6.3441264"
       sodipodi:open="true" />
    <path
       style="fill:none;stroke:#000000;stroke-width:2;stroke-linecap:butt;stroke-linejoin:miter;stroke-miterlimit:4;stroke-opacity:1;stroke-dasharray:none"
       d="m 216.2175,590.95347 c 0,6.92852 0,6.92852 0,6.92852 l 0,0"
       id="path4259-0"
       inkscape:connector-curvature="0" />
    <path
       style="fill:none;stroke:#000000;stroke-width:2;stroke-linecap:butt;stroke-linejoin:miter;stroke-miterlimit:4;stroke-opacity:1;stroke-dasharray:none"
       d="M 219.79626,578.3857 321.78752,477.11983"
       id="path4393"
       inkscape:connector-curvature="0" />
    <path
       style="fill:none;stroke:#000000;stroke-width:2;stroke-linecap:butt;stroke-linejoin:miter;stroke-miterlimit:4;stroke-opacity:1;stroke-dasharray:none"
       d="m 224.5839,581.2873 98.7995,-99.23474"
       id="path4395"
       inkscape:connector-curvature="0" />
    <path
       style="fill:none;stroke:#000000;stroke-width:2;stroke-linecap:butt;stroke-linejoin:miter;stroke-miterlimit:4;stroke-opacity:1;stroke-dasharray:none"
       d="m 233.86902,586.80034 96.76839,-99.37982"
       id="path4397"
       inkscape:connector-curvature="0" />
    <path
       style="fill:none;stroke:#000000;stroke-width:2;stroke-linecap:butt;stroke-linejoin:miter;stroke-miterlimit:4;stroke-opacity:1;stroke-dasharray:none"
       d="m 279.13399,622.63511 181.49513,0.29016"
       id="path4399"
       inkscape:connector-curvature="0" />
    <path
       style="fill:none;stroke:#000000;stroke-width:2;stroke-linecap:butt;stroke-linejoin:miter;stroke-miterlimit:4;stroke-opacity:1;stroke-dasharray:none"
       d="m 278.11843,629.01863 184.25165,0.14508"
       id="path4401"
       inkscape:connector-curvature="0" />
    <path
       style="fill:none;stroke:#000000;stroke-width:4;stroke-linecap:butt;stroke-linejoin:miter;stroke-miterlimit:4;stroke-opacity:1;stroke-dasharray:none"
       d="m 289.79954,681.98183 -1.02588,23.80021 0,0"
       id="path4407"
       inkscape:connector-curvature="0" />
    <path
       style="fill:none;stroke:#000000;stroke-width:1.5;stroke-linecap:butt;stroke-linejoin:miter;stroke-miterlimit:4;stroke-opacity:1;stroke-dasharray:none"
       d="m 290.52661,682.84353 c 8.20696,0 7.59144,0 8.41214,0"
       id="path4427"
       inkscape:connector-curvature="0" />
    <path
       style="fill:none;stroke:#000000;stroke-width:1.5;stroke-linecap:butt;stroke-linejoin:miter;stroke-miterlimit:4;stroke-opacity:1;stroke-dasharray:none"
       d="m 290.52661,692.07636 c 7.18109,0.20518 7.18109,0.20518 7.18109,0.20518 l 0,0 0,0"
       id="path4429"
       inkscape:connector-curvature="0" />
    <path
       style="fill:none;stroke:#000000;stroke-width:1.5;stroke-linecap:butt;stroke-linejoin:miter;stroke-miterlimit:4;stroke-opacity:1;stroke-dasharray:none"
       d="m 289.09039,704.96512 6.77074,0.0744"
       id="path4431"
       inkscape:connector-curvature="0" />
    <path
       sodipodi:type="arc"
       style="fill:none;stroke:#000000;stroke-width:2.29653764;stroke-linecap:round;stroke-linejoin:round;stroke-miterlimit:4;stroke-opacity:1;stroke-dasharray:none"
       id="path4435"
       sodipodi:cx="315.14749"
       sodipodi:cy="673.91846"
       sodipodi:rx="16.824282"
       sodipodi:ry="9.13025"
       d="m 327.95643,667.9988 a 16.824282,9.13025 0 0 1 -0.57467,12.18709"
       transform="matrix(1.0105212,0,0,0.75052893,-32.908732,181.56478)"
       sodipodi:start="5.5777612"
       sodipodi:end="7.0397775"
       sodipodi:open="true" />
    <path
       sodipodi:type="arc"
       style="fill:none;stroke:#000000;stroke-width:1.98497927;stroke-linecap:round;stroke-linejoin:round;stroke-miterlimit:4;stroke-opacity:1;stroke-dasharray:none"
       id="path4435-2"
       sodipodi:cx="315.14749"
       sodipodi:cy="673.91846"
       sodipodi:rx="16.824282"
       sodipodi:ry="9.13025"
       d="m 326.9006,667.38547 a 16.824282,9.13025 0 0 1 0.48116,12.80042"
       transform="matrix(1.175763,0.21681692,-0.25774383,0.98291963,86.186463,-34.748986)"
       sodipodi:start="5.4858005"
       sodipodi:end="7.0397775"
       sodipodi:open="true" />
    <path
       style="fill:none;stroke:#000000;stroke-width:4;stroke-linecap:butt;stroke-linejoin:miter;stroke-miterlimit:4;stroke-opacity:1;stroke-dasharray:none"
       d="m 353.44989,690.43452 c -0.8207,14.46478 -0.8207,14.46478 -0.8207,14.46478"
       id="path4459"
       inkscape:connector-curvature="0" />
    <path
       sodipodi:type="arc"
       style="fill:none;stroke:#000000;stroke-width:2.15883327;stroke-linecap:round;stroke-linejoin:round;stroke-miterlimit:4;stroke-opacity:1;stroke-dasharray:none"
       id="path4457"
       sodipodi:cx="330.68945"
       sodipodi:cy="700.79626"
       sodipodi:rx="7.8479114"
       sodipodi:ry="6.8733344"
       d="m 338.53736,700.79626 a 7.8479114,6.8733344 0 1 1 -15.69582,0 7.8479114,6.8733344 0 1 1 15.69582,0 z"
       transform="matrix(0.73277364,0.17964483,-0.27086265,1.1048523,276.24302,-136.8147)" />
    <path
       style="fill:none;stroke:#000000;stroke-width:2.5;stroke-linecap:butt;stroke-linejoin:miter;stroke-miterlimit:4;stroke-opacity:1;stroke-dasharray:none"
       d="m 309.30004,705.56657 c 1.43622,-14.87513 1.53881,-14.87513 1.53881,-14.87513 l 8.10438,0"
       id="path4455"
       inkscape:connector-curvature="0" />
    <path
       sodipodi:type="arc"
       style="fill:none;stroke:#000000;stroke-width:2;stroke-linecap:round;stroke-linejoin:round;stroke-miterlimit:4;stroke-opacity:1;stroke-dasharray:none"
       id="path4515"
       sodipodi:cx="359.97806"
       sodipodi:cy="701.92474"
       sodipodi:rx="18.465673"
       sodipodi:ry="10.361295"
       d="m 347.00588,709.29868 a 18.465673,10.361295 0 0 1 -0.17373,-14.65037"
       transform="matrix(1.4734888,0,0,0.95900389,-161.20578,24.212376)"
       sodipodi:start="2.349704"
       sodipodi:end="3.9201741"
       sodipodi:open="true" />
    <path
       style="fill:none;stroke:#000000;stroke-width:2.03688383;stroke-linecap:butt;stroke-linejoin:miter;stroke-miterlimit:4;stroke-opacity:1;stroke-dasharray:none"
       d="m 349.73779,690.31394 c 5.57826,-0.0841 5.70799,-0.16829 5.70799,-0.16829"
       id="path4523"
       inkscape:connector-curvature="0" />
    <path
       style="fill:none;stroke:#000000;stroke-width:2.03688383;stroke-linecap:butt;stroke-linejoin:miter;stroke-miterlimit:4;stroke-opacity:1;stroke-dasharray:none"
       d="m 349.01968,704.36837 c 5.57826,-0.0841 5.70799,-0.16829 5.70799,-0.16829"
       id="path4523-3"
       inkscape:connector-curvature="0" />
    <path
       sodipodi:type="arc"
       style="fill:none;stroke:#000000;stroke-width:2.65690517;stroke-linecap:butt;stroke-linejoin:miter;stroke-miterlimit:4;stroke-opacity:1;stroke-dasharray:none"
       id="path4549"
       sodipodi:cx="374.85318"
       sodipodi:cy="700.18073"
       sodipodi:rx="13.438908"
       sodipodi:ry="10.15612"
       d="m 374.52676,710.33385 a 13.438908,10.15612 0 0 1 0.58697,-20.30734"
       transform="matrix(0.7636923,0,0,0.71593171,84.687758,196.02781)"
       sodipodi:start="1.5950882"
       sodipodi:end="4.7317777"
       sodipodi:open="true" />
    <path
       style="fill:none;stroke:#000000;stroke-width:3;stroke-linecap:butt;stroke-linejoin:miter;stroke-miterlimit:4;stroke-opacity:1;stroke-dasharray:none"
       d="m 372.18592,682.33059 c -1.43622,23.38985 -1.43622,23.38985 -1.43622,23.38985"
       id="path4545"
       inkscape:connector-curvature="0" />
    <path
       style="fill:none;stroke:#000000;stroke-width:2.5;stroke-linecap:butt;stroke-linejoin:miter;stroke-miterlimit:4;stroke-opacity:1;stroke-dasharray:none"
       d="m 381.49718,699.69197 c 1.27938,-17.18036 1.27938,-17.18036 1.27938,-17.18036"
       id="path4587"
       inkscape:connector-curvature="0" />
    <path
       style="fill:none;stroke:#000000;stroke-width:2;stroke-linecap:butt;stroke-linejoin:miter;stroke-miterlimit:4;stroke-opacity:1;stroke-dasharray:none"
       d="m 393.47229,704.79716 c -7.8992,0.10259 -8.00179,0 -8.00179,0"
       id="path4607"
       inkscape:connector-curvature="0" />
    <path
       sodipodi:type="arc"
       style="fill:none;stroke:#000000;stroke-width:3.56657672;stroke-linecap:butt;stroke-linejoin:miter;stroke-miterlimit:4;stroke-opacity:1;stroke-dasharray:none"
       id="path4609"
       sodipodi:cx="399.73056"
       sodipodi:cy="704.43811"
       sodipodi:rx="13.285027"
       sodipodi:ry="10.925524"
       d="m 394.8761,714.6081 a 13.285027,10.925524 0 0 1 -8.43057,-10.16999"
       transform="matrix(0.52212198,0,0,0.6022612,179.73517,274.59144)"
       sodipodi:start="1.9448681"
       sodipodi:end="3.1415927"
       sodipodi:open="true" />
    <path
       style="fill:none;stroke:#000000;stroke-width:3;stroke-linecap:butt;stroke-linejoin:miter;stroke-miterlimit:4;stroke-opacity:1;stroke-dasharray:none"
       d="m 400.35001,690.48625 c -0.92328,15.59324 -0.8207,15.49065 -0.8207,15.49065"
       id="path4613"
       inkscape:connector-curvature="0" />
    <path
       style="fill:none;stroke:#000000;stroke-width:3;stroke-linecap:butt;stroke-linejoin:miter;stroke-miterlimit:4;stroke-opacity:1;stroke-dasharray:none"
       d="m 407.99051,690.28108 c -0.92328,15.59324 -0.8207,15.49065 -0.8207,15.49065"
       id="path4613-7"
       inkscape:connector-curvature="0" />
    <path
       style="fill:none;stroke:#000000;stroke-width:3;stroke-linecap:butt;stroke-linejoin:miter;stroke-miterlimit:4;stroke-opacity:1;stroke-dasharray:none"
       d="m 418.96733,690.17849 c -0.92328,15.59324 -0.8207,15.49065 -0.8207,15.49065"
       id="path4613-5"
       inkscape:connector-curvature="0" />
    <path
       style="fill:none;stroke:#000000;stroke-width:2.5;stroke-linecap:butt;stroke-linejoin:miter;stroke-miterlimit:4;stroke-opacity:1;stroke-dasharray:none"
       d="m 408.29657,690.12721 c 9.74577,0 9.74577,0 9.74577,0 l 0.20518,0"
       id="path4647"
       inkscape:connector-curvature="0" />
    <path
       style="fill:none;stroke:#000000;stroke-width:2.5;stroke-linecap:butt;stroke-linejoin:miter;stroke-miterlimit:4;stroke-opacity:1;stroke-dasharray:none"
       d="m 427.17259,682.228 c -1.12845,23.69762 -1.12845,23.69762 -1.12845,23.69762"
       id="path4649"
       inkscape:connector-curvature="0" />
    <path
       style="fill:none;stroke:#000000;stroke-width:1.79999995;stroke-linecap:butt;stroke-linejoin:miter;stroke-miterlimit:4;stroke-opacity:1;stroke-dasharray:none"
       d="m 438.66235,690.12721 c -11.9001,14.46478 -12.00269,14.46478 -12.00269,14.46478"
       id="path4651"
       inkscape:connector-curvature="0" />
    <path
       style="fill:none;stroke:#000000;stroke-width:3;stroke-linecap:butt;stroke-linejoin:miter;stroke-miterlimit:4;stroke-opacity:1;stroke-dasharray:none"
       d="m 433.46509,696.72746 c 3.52118,8.65054 3.52118,8.65054 3.52118,8.65054"
       id="path4653"
       inkscape:connector-curvature="0" />
    <path
       transform="translate(-0.35905964,0.10260744)"
       sodipodi:type="arc"
       style="fill:#000000;fill-rule:evenodd;stroke:#000000;stroke-width:1px;stroke-linecap:butt;stroke-linejoin:miter;stroke-opacity:1"
       id="path4655"
       sodipodi:cx="340.53781"
       sodipodi:cy="682.84351"
       sodipodi:rx="3.0263188"
       sodipodi:ry="2.9750254"
       d="m 343.56413,682.84351 a 3.0263188,2.9750254 0 1 1 -6.05264,0 3.0263188,2.9750254 0 1 1 6.05264,0 z" />
    <path
       transform="translate(0.4140545,-0.13221499)"
       sodipodi:type="arc"
       style="fill:#000000;fill-rule:evenodd;stroke:#000000;stroke-width:1px;stroke-linecap:butt;stroke-linejoin:miter;stroke-opacity:1"
       id="path4657"
       sodipodi:cx="354.18188"
       sodipodi:cy="674.73914"
       sodipodi:rx="3.0263188"
       sodipodi:ry="2.8724382"
       d="m 357.2082,674.73914 a 3.0263188,2.8724382 0 1 1 -6.05263,0 3.0263188,2.8724382 0 1 1 6.05263,0 z" />
    <path
       transform="translate(0.41035295,-1.0771744)"
       sodipodi:type="arc"
       style="fill:#000000;fill-rule:evenodd;stroke:#000000;stroke-width:1px;stroke-linecap:butt;stroke-linejoin:miter;stroke-opacity:1"
       id="path4659"
       sodipodi:cx="367.15915"
       sodipodi:cy="671.30249"
       sodipodi:rx="1.9491545"
       sodipodi:ry="2.1030352"
       d="m 369.1083,671.30249 a 1.9491545,2.1030352 0 1 1 -3.89831,0 1.9491545,2.1030352 0 1 1 3.89831,0 z" />
    <path
       transform="translate(-0.10257981,-0.20518719)"
       sodipodi:type="arc"
       style="fill:#000000;fill-rule:evenodd;stroke:#000000;stroke-width:1px;stroke-linecap:butt;stroke-linejoin:miter;stroke-opacity:1"
       id="path4661"
       sodipodi:cx="379.16183"
       sodipodi:cy="670.12274"
       sodipodi:rx="1.4362191"
       sodipodi:ry="1.4362191"
       d="m 380.59805,670.12274 a 1.4362191,1.4362191 0 1 1 -2.87243,0 1.4362191,1.4362191 0 1 1 2.87243,0 z" />
    <path
       transform="translate(-0.04759968,0.2268234)"
       sodipodi:type="arc"
       style="fill:#000000;fill-rule:evenodd;stroke:#000000;stroke-width:1px;stroke-linecap:butt;stroke-linejoin:miter;stroke-opacity:1"
       id="path4663"
       sodipodi:cx="388.90762"
       sodipodi:cy="672.22577"
       sodipodi:rx="0.9232837"
       sodipodi:ry="0.87199014"
       d="m 389.83091,672.22577 a 0.9232837,0.87199014 0 1 1 -1.84657,0 0.9232837,0.87199014 0 1 1 1.84657,0 z" />
    <path
       transform="translate(-0.40665757,0.226835)"
       sodipodi:type="arc"
       style="fill:#000000;fill-rule:evenodd;stroke:#000000;stroke-width:1px;stroke-linecap:butt;stroke-linejoin:miter;stroke-opacity:1"
       id="path4665"
       sodipodi:cx="395.42191"
       sodipodi:cy="676.94476"
       sodipodi:rx="0.46164185"
       sodipodi:ry="0.46164185"
       d="m 395.88355,676.94476 a 0.46164185,0.46164185 0 1 1 -0.92329,0 0.46164185,0.46164185 0 1 1 0.92329,0 z" />
    <path
       transform="translate(-0.41033652,-0.30776183)"
       sodipodi:type="arc"
       style="fill:#000000;fill-rule:evenodd;stroke:#000000;stroke-width:1px;stroke-linecap:butt;stroke-linejoin:miter;stroke-opacity:1"
       id="path4667"
       sodipodi:cx="401.73099"
       sodipodi:cy="683.97198"
       sodipodi:rx="1.333632"
       sodipodi:ry="1.333632"
       d="m 403.06462,683.97198 a 1.333632,1.333632 0 1 1 -2.66726,0 1.333632,1.333632 0 1 1 2.66726,0 z" />
    <path
       style="fill:none;stroke:#000000;stroke-width:2;stroke-linecap:butt;stroke-linejoin:miter;stroke-miterlimit:4;stroke-opacity:1;stroke-dasharray:none"
       d="m 418.14493,477.4642 101.97156,99.71464"
       id="path4261"
       inkscape:connector-curvature="0" />
    <path
       style="fill:none;stroke:#000000;stroke-width:2;stroke-linecap:butt;stroke-linejoin:miter;stroke-miterlimit:4;stroke-opacity:1;stroke-dasharray:none"
       d="m 416.09319,482.1832 98.89394,98.68877"
       id="path4263"
       inkscape:connector-curvature="0" />
    <path
       style="fill:none;stroke:#000000;stroke-width:2;stroke-linecap:butt;stroke-linejoin:miter;stroke-miterlimit:4;stroke-opacity:1;stroke-dasharray:none"
       d="m 409.32244,487.7229 96.8422,98.89395 0,0 0,0"
       id="path4265"
       inkscape:connector-curvature="0" />
  </g>
</svg>
