<?xml version="1.0" encoding="UTF-8" standalone="no"?>
<!-- Created with Inkscape (http://www.inkscape.org/) -->

<svg
   xmlns:dc="http://purl.org/dc/elements/1.1/"
   xmlns:cc="http://creativecommons.org/ns#"
   xmlns:rdf="http://www.w3.org/1999/02/22-rdf-syntax-ns#"
   xmlns:svg="http://www.w3.org/2000/svg"
   xmlns="http://www.w3.org/2000/svg"
   xmlns:sodipodi="http://sodipodi.sourceforge.net/DTD/sodipodi-0.dtd"
   xmlns:inkscape="http://www.inkscape.org/namespaces/inkscape"
   width="470"
   height="463"
   id="svg2"
   version="1.1"
   inkscape:version="0.48.4 r9939"
   sodipodi:docname="hysen4.svg">
  <defs
     id="defs4" />
  <sodipodi:namedview
     id="base"
     pagecolor="#ffffff"
     bordercolor="#666666"
     borderopacity="1.0"
     inkscape:pageopacity="0.0"
     inkscape:pageshadow="2"
     inkscape:zoom="1"
     inkscape:cx="186.79474"
     inkscape:cy="154.80484"
     inkscape:document-units="px"
     inkscape:current-layer="layer2"
     showgrid="true"
     inkscape:window-width="1920"
     inkscape:window-height="1060"
     inkscape:window-x="-2"
     inkscape:window-y="-3"
     inkscape:window-maximized="1"
     showguides="false"
     inkscape:snap-bbox="true"
     inkscape:snap-page="true"
     fit-margin-top="1"
     fit-margin-left="1"
     fit-margin-right="1"
     fit-margin-bottom="1"
     borderlayer="false"
     inkscape:showpageshadow="false"
     showborder="false">
    <sodipodi:guide
       position="-45.071426,-5.4285929"
       orientation="0,744.09448"
       id="guide7702" />
    <sodipodi:guide
       position="474.92857,474.5714"
       orientation="-1052.3622,0"
       id="guide7704" />
    <sodipodi:guide
       position="-5.071426,464.5714"
       orientation="0,-744.09448"
       id="guide7706" />
    <sodipodi:guide
       position="-5.071426,484.5714"
       orientation="1052.3622,0"
       id="guide7708" />
    <sodipodi:guide
       position="-45.071426,-566.14283"
       orientation="0,744.09448"
       id="guide7710" />
    <sodipodi:guide
       position="699.02305,-566.14283"
       orientation="-1052.3622,0"
       id="guide7712" />
    <sodipodi:guide
       position="699.02305,486.21937"
       orientation="0,-744.09448"
       id="guide7714" />
    <sodipodi:guide
       position="-45.071426,486.21937"
       orientation="1052.3622,0"
       id="guide7716" />
    <inkscape:grid
       type="xygrid"
       id="grid7790"
       empspacing="5"
       visible="true"
       enabled="true"
       snapvisiblegridlinesonly="true"
       originx="-45.071426px"
       originy="-1155.4286px" />
    <sodipodi:guide
       position="-45.071426,-566.14283"
       orientation="0,744.09448"
       id="guide7893" />
    <sodipodi:guide
       position="699.02305,-566.14283"
       orientation="-1052.3622,0"
       id="guide7895" />
    <sodipodi:guide
       position="699.02305,486.21937"
       orientation="0,-744.09448"
       id="guide7897" />
    <sodipodi:guide
       position="-45.071426,486.21937"
       orientation="1052.3622,0"
       id="guide7899" />
    <sodipodi:guide
       position="-45.071426,-566.14283"
       orientation="0,744.09448"
       id="guide7901" />
    <sodipodi:guide
       position="699.02305,-566.14283"
       orientation="-1052.3622,0"
       id="guide7903" />
    <sodipodi:guide
       position="699.02305,486.21937"
       orientation="0,-744.09448"
       id="guide7905" />
    <sodipodi:guide
       position="-45.071426,486.21937"
       orientation="1052.3622,0"
       id="guide7907" />
  </sodipodi:namedview>
  <metadata
     id="metadata7">
    <rdf:RDF>
      <cc:Work
         rdf:about="">
        <dc:format>image/svg+xml</dc:format>
        <dc:type
           rdf:resource="http://purl.org/dc/dcmitype/StillImage" />
        <dc:title />
      </cc:Work>
    </rdf:RDF>
  </metadata>
  <g
     inkscape:groupmode="layer"
     id="layer2"
     inkscape:label="svg"
     transform="translate(-45.071426,-23.219329)">
    <g
       id="g7718">
      <path
         style="fill:none;stroke:#000000;stroke-width:5;stroke-linecap:butt;stroke-linejoin:miter;stroke-miterlimit:4;stroke-opacity:1"
         d="m 97.142853,75.576462 368.571437,0 0,274.285708 -368.571437,0 z"
         id="rect5027"
         inkscape:connector-curvature="0" />
      <path
         transform="translate(22.857142,-11.642862)"
         style="fill:none;stroke:#000000;stroke-width:5;stroke-linecap:round;stroke-linejoin:miter;stroke-miterlimit:4;stroke-opacity:1"
         d="m 115.71428,430.21933 c 0,7.49529 -5.75634,13.57143 -12.85714,13.57143 -7.100804,0 -12.857143,-6.07614 -12.857143,-13.57143 0,-7.49529 5.756339,-13.57143 12.857143,-13.57143 7.1008,0 12.85714,6.07614 12.85714,13.57143 z"
         id="path5029"
         inkscape:connector-curvature="0" />
      <path
         transform="matrix(0.81137204,0,0,-0.73708275,53.296293,733.78393)"
         style="fill:none;stroke:#000000;stroke-width:5;stroke-linecap:round;stroke-linejoin:miter;stroke-miterlimit:4;stroke-opacity:1"
         d="m 190,435.21933 c 0,6.31183 -5.43654,11.42857 -12.14285,11.42857 -6.70632,0 -12.14286,-5.11674 -12.14286,-11.42857 0,-0.26181 0.01,-0.52354 0.0287,-0.78473"
         id="path5031"
         inkscape:connector-curvature="0" />
      <path
         transform="translate(24.119833,-8.632709)"
         style="fill:none;stroke:#000000;stroke-width:5;stroke-linecap:round;stroke-linejoin:miter;stroke-miterlimit:4;stroke-opacity:1"
         d="m 164.65487,424.17355 c 0,0.90658 -0.56532,1.6415 -1.26269,1.6415 -0.69736,0 -1.26269,-0.73492 -1.26269,-1.6415 0,-0.0376 9.9e-4,-0.0752 0.003,-0.11271"
         id="path5661"
         inkscape:connector-curvature="0" />
      <path
         transform="matrix(0.7569222,0,0,0.71324816,72.080883,109.78564)"
         style="fill:none;stroke:#000000;stroke-width:5;stroke-linecap:round;stroke-linejoin:miter;stroke-miterlimit:4;stroke-opacity:1"
         d="m 190,435.21933 c 0,6.31183 -5.43654,11.42857 -12.14285,11.42857 -6.70632,0 -12.14286,-5.11674 -12.14286,-11.42857 0,-0.26181 0.01,-0.52354 0.0287,-0.78473"
         id="path5031-3"
         inkscape:connector-curvature="0" />
      <path
         transform="translate(52.372364,-7.75559)"
         style="fill:none;stroke:#000000;stroke-width:5;stroke-linecap:round;stroke-linejoin:miter;stroke-miterlimit:4;stroke-opacity:1"
         d="m 164.65487,424.17355 c 0,0.90658 -0.56532,1.6415 -1.26269,1.6415 -0.69736,0 -1.26269,-0.73492 -1.26269,-1.6415 0,-0.0376 9.9e-4,-0.0752 0.003,-0.11271"
         id="path5661-6"
         inkscape:connector-curvature="0" />
      <path
         transform="translate(175.34015,-14.958304)"
         style="fill:none;stroke:#000000;stroke-width:5;stroke-linecap:round;stroke-linejoin:miter;stroke-miterlimit:4;stroke-opacity:1"
         d="m 115.71428,430.21933 c 0,7.49529 -5.75634,13.57143 -12.85714,13.57143 -7.100804,0 -12.857143,-6.07614 -12.857143,-13.57143 0,-7.49529 5.756339,-13.57143 12.857143,-13.57143 7.1008,0 12.85714,6.07614 12.85714,13.57143 z"
         id="path5029-7"
         inkscape:connector-curvature="0" />
      <path
         inkscape:connector-curvature="0"
         id="path5723"
         d="m 278.67828,417.41458 0,-14.89975"
         style="fill:none;stroke:#000000;stroke-width:3;stroke-linecap:butt;stroke-linejoin:miter;stroke-miterlimit:4;stroke-opacity:1;stroke-dasharray:none" />
      <path
         inkscape:connector-curvature="0"
         id="path5725"
         d="m 278.88731,415.91966 6.90555,0"
         style="fill:none;stroke:#000000;stroke-width:3.20221806;stroke-linecap:butt;stroke-linejoin:miter;stroke-miterlimit:4;stroke-opacity:1;stroke-dasharray:none" />
      <path
         inkscape:connector-curvature="0"
         id="path5727"
         d="m 125.64016,417.93996 0,-11.61675"
         style="fill:none;stroke:#000000;stroke-width:3;stroke-linecap:butt;stroke-linejoin:miter;stroke-miterlimit:4;stroke-opacity:1;stroke-dasharray:none" />
      <path
         inkscape:connector-curvature="0"
         id="path5731"
         d="m 342.218,423.59569 12.82669,-15.35207"
         style="fill:none;stroke:#000000;stroke-width:4.80022144;stroke-linecap:butt;stroke-linejoin:miter;stroke-miterlimit:4;stroke-opacity:1;stroke-dasharray:none" />
      <path
         inkscape:connector-curvature="0"
         id="path5733"
         d="M 365.38539,423.58235 352.58543,408.00444"
         style="fill:none;stroke:#000000;stroke-width:5.1238718;stroke-linecap:butt;stroke-linejoin:miter;stroke-miterlimit:4;stroke-opacity:1;stroke-dasharray:none" />
      <path
         inkscape:connector-curvature="0"
         id="path5735"
         d="m 346.10596,418.95012 0,0 14.14214,0"
         style="fill:none;stroke:#000000;stroke-width:3;stroke-linecap:butt;stroke-linejoin:miter;stroke-miterlimit:4;stroke-opacity:1;stroke-dasharray:none" />
      <path
         inkscape:connector-curvature="0"
         id="path5733-3"
         d="M 433.36508,423.18323 420.56512,407.60532"
         style="fill:none;stroke:#000000;stroke-width:5.1238718;stroke-linecap:butt;stroke-linejoin:miter;stroke-miterlimit:4;stroke-opacity:1;stroke-dasharray:none" />
      <path
         inkscape:connector-curvature="0"
         id="path5731-5"
         d="m 431.11142,423.84823 12.82669,-15.35207"
         style="fill:none;stroke:#000000;stroke-width:4.80022144;stroke-linecap:butt;stroke-linejoin:miter;stroke-miterlimit:4;stroke-opacity:1;stroke-dasharray:none" />
      <path
         inkscape:connector-curvature="0"
         id="path5735-6"
         d="m 425.40294,411.62651 0,0 14.14214,0"
         style="fill:none;stroke:#000000;stroke-width:3;stroke-linecap:butt;stroke-linejoin:miter;stroke-miterlimit:4;stroke-opacity:1;stroke-dasharray:none" />
      <g
         style="font-size:72px;font-style:italic;font-variant:normal;font-weight:bold;font-stretch:normal;text-align:start;line-height:125%;letter-spacing:0px;word-spacing:0px;writing-mode:lr-tb;text-anchor:start;fill:#000000;fill-opacity:1;stroke:none;font-family:'It wasn\'t me';-inkscape-font-specification:'It wasn\'t me Bold Italic'"
         id="text7532">
        <path
           d="m 173.0134,237.75058 1.33593,-6.78516 c 0.21093,-1.05467 0.59765,-1.67576 1.16016,-1.86328 0.58593,-0.18748 1.0664,-0.28123 1.44141,-0.28125 l 12.97265,0 c 0.5156,2e-5 1.04295,-0.0586 1.58203,-0.17578 0.56248,-0.14061 1.0781,-0.36326 1.54688,-0.66797 0.46872,-0.30467 0.87888,-0.72654 1.23047,-1.26562 0.35153,-0.56248 0.62106,-1.30077 0.80859,-2.21485 l 2.53125,-12.6914 c 0.18747,-0.91403 0.21091,-1.64059 0.0703,-2.17969 -0.11722,-0.56247 -0.35159,-0.99606 -0.70312,-1.30078 -0.35159,-0.30465 -0.78519,-0.51559 -1.30078,-0.63281 -0.49222,-0.11715 -0.99613,-0.17575 -1.51172,-0.17579 l -21.62109,0 -0.87891,4.28907 17.29687,0 c 0.18748,3e-5 0.39842,0.0118 0.63282,0.0351 0.23435,0.0235 0.44528,0.11722 0.63281,0.28125 0.18747,0.14066 0.33982,0.3516 0.45703,0.63282 0.11716,0.28128 0.11716,0.69143 0,1.23046 l -1.65234,8.33204 c -0.11721,0.53908 -0.293,0.96095 -0.52735,1.26562 -0.21096,0.28127 -0.44533,0.49221 -0.70312,0.63281 -0.2344,0.14065 -0.48049,0.22268 -0.73828,0.2461 -0.2344,0.0234 -0.44534,0.0352 -0.63282,0.0351 l -12.97265,0 c -1.10157,2e-5 -2.15626,0.28127 -3.16406,0.84375 -0.98438,0.53908 -1.65235,1.69924 -2.00391,3.48047 l -2.21484,11.07422 c -0.18751,0.91407 -0.22266,1.65235 -0.10547,2.21484 0.14062,0.53907 0.38671,0.97266 0.73828,1.30079 0.35156,0.30468 0.77343,0.51562 1.26562,0.63281 0.51562,0.11719 1.03125,0.17578 1.54688,0.17578 l 21.62109,0 0.87891,-4.32422 -17.29688,0 c -0.18751,10e-6 -0.41016,-0.0117 -0.66797,-0.0352 -0.23438,-0.0234 -0.44532,-0.10546 -0.63281,-0.24609 -0.18751,-0.14062 -0.33985,-0.35156 -0.45703,-0.63281 -0.0938,-0.30468 -0.082,-0.71484 0.0352,-1.23047"
           id="path7800"
           inkscape:connector-curvature="0" />
        <path
           d="m 195.19699,239.89511 c -0.1875,0.91407 -0.22266,1.65235 -0.10547,2.21484 0.14063,0.53907 0.38672,0.97266 0.73828,1.30079 0.35156,0.30468 0.77344,0.51562 1.26563,0.63281 0.51562,0.11719 1.03124,0.17578 1.54687,0.17578 l 17.29688,0 c 0.5156,0 1.04294,-0.0586 1.58203,-0.17578 0.56248,-0.11719 1.0781,-0.32813 1.54687,-0.63281 0.46873,-0.32813 0.87888,-0.76172 1.23047,-1.30079 0.37498,-0.56249 0.65623,-1.30077 0.84375,-2.21484 l 5.58985,-28.08984 c 0.18746,-0.91403 0.2109,-1.64059 0.0703,-2.17969 -0.11722,-0.56247 -0.3516,-0.99606 -0.70313,-1.30078 -0.35159,-0.30465 -0.78518,-0.51559 -1.30078,-0.63281 -0.49221,-0.11715 -0.99612,-0.17575 -1.51172,-0.17579 l -17.29687,0 c -1.10157,4e-5 -2.15626,0.28129 -3.16406,0.84375 -1.00782,0.5391 -1.68751,1.68754 -2.03907,3.44532 l -5.58984,28.08984 m 20.32031,-15.1875 -10.79297,0 2.14454,-10.72266 c 0.21092,-1.05465 0.59764,-1.67574 1.16015,-1.86328 0.56249,-0.2109 1.03124,-0.31637 1.40625,-0.3164 l 8.64844,0 c 0.18748,3e-5 0.39841,0.0118 0.63281,0.0351 0.23435,0.0235 0.44529,0.11722 0.63281,0.28125 0.18748,0.14066 0.33982,0.3516 0.45704,0.63282 0.11716,0.28128 0.11716,0.69143 0,1.23046 l -4.7461,23.76563 c -0.11721,0.51563 -0.29299,0.92579 -0.52734,1.23047 -0.21096,0.28125 -0.44533,0.49219 -0.70313,0.63281 -0.23439,0.14063 -0.46877,0.22266 -0.70312,0.24609 -0.2344,0.0234 -0.44533,0.0352 -0.63281,0.0352 l -8.64844,0 c -0.18751,10e-6 -0.41017,-0.0117 -0.66797,-0.0352 -0.23438,-0.0234 -0.44532,-0.10546 -0.63281,-0.24609 -0.18751,-0.14062 -0.33985,-0.35156 -0.45703,-0.63281 -0.0938,-0.30468 -0.082,-0.71484 0.0352,-1.23047 l 1.72266,-8.64844 10.79297,0 0.8789,-4.39453"
           id="path7802"
           inkscape:connector-curvature="0" />
        <path
           d="m 225.53683,244.21933 0.87891,-4.39453 6.46875,0 -0.87891,4.39453 -6.46875,0"
           id="path7804"
           inkscape:connector-curvature="0" />
        <path
           d="m 239.98605,244.21933 17.29688,0 c 0.5156,0 1.04294,-0.0586 1.58203,-0.17578 0.56248,-0.11719 1.0781,-0.32813 1.54687,-0.63281 0.46873,-0.32813 0.87888,-0.76172 1.23047,-1.30079 0.37498,-0.56249 0.65623,-1.30077 0.84375,-2.21484 l 2.14453,-10.79297 c 0.18748,-0.91404 0.21091,-1.64061 0.0703,-2.17969 -0.14066,-0.56248 -0.38675,-0.99607 -0.73828,-1.30078 -0.32816,-0.3281 -0.75003,-0.55076 -1.26563,-0.66797 -0.49221,-0.11716 -0.99612,-0.17576 -1.51172,-0.17578 l -12.97265,0 c -0.18752,2e-5 -0.41017,-0.0117 -0.66797,-0.0351 -0.23439,-0.0234 -0.44533,-0.10545 -0.63282,-0.2461 -0.18751,-0.1406 -0.33985,-0.35154 -0.45703,-0.63281 -0.0938,-0.30467 -0.082,-0.71482 0.0352,-1.23047 l 3.02344,-15.11719 -6.50391,0 -3.44531,17.26172 c -0.18751,0.91408 -0.22266,1.65237 -0.10547,2.21485 0.14062,0.53908 0.38671,0.97267 0.73828,1.30078 0.35156,0.3047 0.77343,0.51564 1.26563,0.63281 0.51561,0.1172 1.03124,0.1758 1.54687,0.17578 l 12.97266,0 c 0.18748,2e-5 0.39841,0.0117 0.63281,0.0352 0.23435,0.0234 0.44529,0.10548 0.63281,0.24609 0.18748,0.14064 0.3281,0.3633 0.42188,0.66797 0.11716,0.28126 0.12888,0.6797 0.0351,1.19531 l -1.30078,6.50391 c -0.11721,0.51563 -0.29299,0.92579 -0.52734,1.23047 -0.21096,0.28125 -0.44533,0.49219 -0.70313,0.63281 -0.23439,0.14063 -0.46877,0.22266 -0.70312,0.24609 -0.2344,0.0234 -0.44533,0.0352 -0.63281,0.0352 l -8.64844,0 c -0.18751,1e-5 -0.41017,-0.0117 -0.66797,-0.0352 -0.23438,-0.0234 -0.44532,-0.10546 -0.63281,-0.24609 -0.18751,-0.14062 -0.33985,-0.35156 -0.45703,-0.63281 -0.0938,-0.30468 -0.082,-0.71484 0.0352,-1.23047 l 0.52735,-2.74219 -6.50391,0 -0.94922,4.88672 c -0.1875,0.91407 -0.22266,1.65235 -0.10547,2.21484 0.14063,0.53907 0.38672,0.97266 0.73828,1.30079 0.35156,0.30468 0.77344,0.51562 1.26563,0.63281 0.51562,0.11719 1.03124,0.17578 1.54687,0.17578 m 10.79297,-32.41406 17.19141,0 0.8789,-4.28907 -17.1914,0 -0.87891,4.28907"
           id="path7806"
           inkscape:connector-curvature="0" />
      </g>
      <g
         style="font-size:72px;font-style:italic;font-variant:normal;font-weight:bold;font-stretch:normal;text-align:start;line-height:125%;letter-spacing:0px;word-spacing:0px;writing-mode:lr-tb;text-anchor:start;fill:#000000;fill-opacity:1;stroke:none;font-family:'It wasn\'t me';-inkscape-font-specification:'It wasn\'t me Bold Italic'"
         id="text7565">
        <path
           d="m 351.5134,237.75058 1.33593,-6.78516 c 0.21093,-1.05467 0.59765,-1.67576 1.16016,-1.86328 0.58593,-0.18748 1.0664,-0.28123 1.44141,-0.28125 l 12.97265,0 c 0.5156,2e-5 1.04295,-0.0586 1.58203,-0.17578 0.56248,-0.14061 1.0781,-0.36326 1.54688,-0.66797 0.46872,-0.30467 0.87888,-0.72654 1.23047,-1.26562 0.35153,-0.56248 0.62106,-1.30077 0.80859,-2.21485 l 2.53125,-12.6914 c 0.18747,-0.91403 0.21091,-1.64059 0.0703,-2.17969 -0.11722,-0.56247 -0.35159,-0.99606 -0.70312,-1.30078 -0.35159,-0.30465 -0.78519,-0.51559 -1.30078,-0.63281 -0.49222,-0.11715 -0.99613,-0.17575 -1.51172,-0.17579 l -21.62109,0 -0.87891,4.28907 17.29687,0 c 0.18748,3e-5 0.39842,0.0118 0.63282,0.0351 0.23435,0.0235 0.44528,0.11722 0.63281,0.28125 0.18747,0.14066 0.33982,0.3516 0.45703,0.63282 0.11716,0.28128 0.11716,0.69143 0,1.23046 l -1.65234,8.33204 c -0.11721,0.53908 -0.293,0.96095 -0.52735,1.26562 -0.21096,0.28127 -0.44533,0.49221 -0.70312,0.63281 -0.2344,0.14065 -0.48049,0.22268 -0.73828,0.2461 -0.2344,0.0234 -0.44534,0.0352 -0.63282,0.0351 l -12.97265,0 c -1.10157,2e-5 -2.15626,0.28127 -3.16406,0.84375 -0.98438,0.53908 -1.65235,1.69924 -2.00391,3.48047 l -2.21484,11.07422 c -0.18751,0.91407 -0.22266,1.65235 -0.10547,2.21484 0.14062,0.53907 0.38671,0.97266 0.73828,1.30079 0.35156,0.30468 0.77343,0.51562 1.26562,0.63281 0.51562,0.11719 1.03125,0.17578 1.54688,0.17578 l 21.62109,0 0.87891,-4.32422 -17.29688,0 c -0.18751,10e-6 -0.41016,-0.0117 -0.66797,-0.0352 -0.23438,-0.0234 -0.44532,-0.10546 -0.63281,-0.24609 -0.18751,-0.14062 -0.33985,-0.35156 -0.45703,-0.63281 -0.0938,-0.30468 -0.082,-0.71484 0.0352,-1.23047"
           id="path7809"
           inkscape:connector-curvature="0" />
        <path
           d="m 380.62277,237.75058 1.33594,-6.78516 c 0.21093,-1.05467 0.59765,-1.67576 1.16016,-1.86328 0.58592,-0.18748 1.06639,-0.28123 1.4414,-0.28125 l 12.97266,0 c 0.5156,2e-5 1.04294,-0.0586 1.58203,-0.17578 0.56247,-0.14061 1.0781,-0.36326 1.54687,-0.66797 0.46873,-0.30467 0.87888,-0.72654 1.23047,-1.26562 0.35154,-0.56248 0.62107,-1.30077 0.8086,-2.21485 l 2.53125,-12.6914 c 0.18746,-0.91403 0.2109,-1.64059 0.0703,-2.17969 -0.11722,-0.56247 -0.3516,-0.99606 -0.70313,-1.30078 -0.35159,-0.30465 -0.78518,-0.51559 -1.30078,-0.63281 -0.49221,-0.11715 -0.99612,-0.17575 -1.51172,-0.17579 l -21.62109,0 -0.87891,4.28907 17.29688,0 c 0.18748,3e-5 0.39841,0.0118 0.63281,0.0351 0.23435,0.0235 0.44529,0.11722 0.63281,0.28125 0.18748,0.14066 0.33982,0.3516 0.45704,0.63282 0.11716,0.28128 0.11716,0.69143 0,1.23046 l -1.65235,8.33204 c -0.11721,0.53908 -0.29299,0.96095 -0.52734,1.26562 -0.21096,0.28127 -0.44534,0.49221 -0.70313,0.63281 -0.23439,0.14065 -0.48049,0.22268 -0.73828,0.2461 -0.23439,0.0234 -0.44533,0.0352 -0.63281,0.0351 l -12.97266,0 c -1.10157,2e-5 -2.15625,0.28127 -3.16406,0.84375 -0.98438,0.53908 -1.65235,1.69924 -2.00391,3.48047 l -2.21484,11.07422 c -0.1875,0.91407 -0.22266,1.65235 -0.10547,2.21484 0.14063,0.53907 0.38672,0.97266 0.73828,1.30079 0.35156,0.30468 0.77344,0.51562 1.26563,0.63281 0.51562,0.11719 1.03124,0.17578 1.54687,0.17578 l 21.6211,0 0.8789,-4.32422 -17.29687,0 c -0.18751,10e-6 -0.41017,-0.0117 -0.66797,-0.0352 -0.23438,-0.0234 -0.44532,-0.10546 -0.63281,-0.24609 -0.18751,-0.14062 -0.33985,-0.35156 -0.45703,-0.63281 -0.0938,-0.30468 -0.082,-0.71484 0.0351,-1.23047"
           id="path7811"
           inkscape:connector-curvature="0" />
        <path
           d="m 404.03683,244.21933 0.87891,-4.39453 6.46875,0 -0.87891,4.39453 -6.46875,0"
           id="path7813"
           inkscape:connector-curvature="0" />
        <path
           d="m 432.33762,239.89511 -6.50391,0 12.09375,-28.08984 0.87891,-4.28907 -12.97266,0 c -1.10157,4e-5 -2.15626,0.28129 -3.16406,0.84375 -1.00782,0.5391 -1.68751,1.68754 -2.03907,3.44532 l -6.46875,32.41406 6.50391,0 6.04688,-30.23438 c 0.21092,-1.05465 0.59764,-1.67574 1.16015,-1.86328 0.56249,-0.2109 1.03124,-0.31637 1.40625,-0.3164 l 6.46875,0 -12.05859,28.08984 -0.87891,4.32422 12.97266,0 c 0.5156,0 1.04294,-0.0586 1.58203,-0.17578 0.56248,-0.11719 1.0781,-0.32813 1.54687,-0.63281 0.46873,-0.32813 0.87888,-0.76172 1.23047,-1.30079 0.37498,-0.56249 0.65623,-1.30077 0.84375,-2.21484 l 6.46875,-32.37891 -6.5039,0 -6.04688,30.23438 c -0.11721,0.51563 -0.29299,0.92579 -0.52734,1.23047 -0.21096,0.28125 -0.44533,0.49219 -0.70313,0.63281 -0.23439,0.14063 -0.46877,0.22266 -0.70312,0.24609 -0.2344,0.0234 -0.44533,0.0352 -0.63281,0.0352"
           id="path7815"
           inkscape:connector-curvature="0" />
      </g>
      <g
         style="font-size:72px;font-style:italic;font-variant:normal;font-weight:bold;font-stretch:normal;text-align:start;line-height:125%;letter-spacing:0px;word-spacing:0px;writing-mode:lr-tb;text-anchor:start;fill:#000000;fill-opacity:1;stroke:none;font-family:'It wasn\'t me';-inkscape-font-specification:'It wasn\'t me Bold Italic'"
         id="text7569">
        <path
           d="m 115.5134,320.75058 1.33593,-6.78516 c 0.21093,-1.05467 0.59765,-1.67576 1.16016,-1.86328 0.58593,-0.18748 1.0664,-0.28123 1.44141,-0.28125 l 12.97265,0 c 0.5156,2e-5 1.04295,-0.0586 1.58203,-0.17578 0.56248,-0.14061 1.0781,-0.36326 1.54688,-0.66797 0.46872,-0.30467 0.87888,-0.72654 1.23047,-1.26562 0.35153,-0.56248 0.62106,-1.30077 0.80859,-2.21485 l 2.53125,-12.6914 c 0.18747,-0.91403 0.21091,-1.64059 0.0703,-2.17969 -0.11722,-0.56247 -0.35159,-0.99606 -0.70312,-1.30078 -0.35159,-0.30465 -0.78519,-0.51559 -1.30078,-0.63281 -0.49222,-0.11715 -0.99613,-0.17575 -1.51172,-0.17579 l -21.62109,0 -0.87891,4.28907 17.29687,0 c 0.18748,3e-5 0.39842,0.0118 0.63282,0.0351 0.23435,0.0235 0.44528,0.11722 0.63281,0.28125 0.18747,0.14066 0.33982,0.3516 0.45703,0.63282 0.11716,0.28128 0.11716,0.69143 0,1.23046 l -1.65234,8.33204 c -0.11721,0.53908 -0.293,0.96095 -0.52735,1.26562 -0.21096,0.28127 -0.44533,0.49221 -0.70312,0.63281 -0.2344,0.14065 -0.48049,0.22268 -0.73828,0.2461 -0.2344,0.0234 -0.44534,0.0352 -0.63282,0.0351 l -12.97265,0 c -1.10157,2e-5 -2.15626,0.28127 -3.16406,0.84375 -0.98438,0.53908 -1.65235,1.69924 -2.00391,3.48047 l -2.21484,11.07422 c -0.18751,0.91407 -0.22266,1.65235 -0.10547,2.21484 0.14062,0.53907 0.38671,0.97266 0.73828,1.30079 0.35156,0.30468 0.77343,0.51562 1.26562,0.63281 0.51562,0.11719 1.03125,0.17578 1.54688,0.17578 l 21.62109,0 0.87891,-4.32422 -17.29688,0 c -0.18751,10e-6 -0.41016,-0.0117 -0.66797,-0.0352 -0.23438,-0.0234 -0.44532,-0.10546 -0.63281,-0.24609 -0.18751,-0.14062 -0.33985,-0.35156 -0.45703,-0.63281 -0.0938,-0.30468 -0.082,-0.71484 0.0352,-1.23047"
           id="path7818"
           inkscape:connector-curvature="0" />
        <path
           d="m 154.99387,322.89511 -6.50391,0 12.09375,-28.08984 0.87891,-4.28907 -12.97266,0 c -1.10157,4e-5 -2.15626,0.28129 -3.16406,0.84375 -1.00782,0.5391 -1.68751,1.68754 -2.03907,3.44532 l -6.46875,32.41406 6.50391,0 6.04688,-30.23438 c 0.21092,-1.05465 0.59764,-1.67574 1.16015,-1.86328 0.56249,-0.2109 1.03124,-0.31637 1.40625,-0.3164 l 6.46875,0 -12.05859,28.08984 -0.87891,4.32422 12.97266,0 c 0.5156,0 1.04294,-0.0586 1.58203,-0.17578 0.56248,-0.11719 1.0781,-0.32813 1.54687,-0.63281 0.46873,-0.32813 0.87888,-0.76172 1.23047,-1.30079 0.37498,-0.56249 0.65623,-1.30077 0.84375,-2.21484 l 6.46875,-32.37891 -6.5039,0 -6.04688,30.23438 c -0.11721,0.51563 -0.29299,0.92579 -0.52734,1.23047 -0.21096,0.28125 -0.44533,0.49219 -0.70313,0.63281 -0.23439,0.14063 -0.46877,0.22266 -0.70312,0.24609 -0.2344,0.0234 -0.44533,0.0352 -0.63281,0.0352"
           id="path7820"
           inkscape:connector-curvature="0" />
        <path
           d="m 170.32199,307.28574 0.87891,-4.32422 6.5039,0 -0.8789,4.32422 -6.50391,0 m -2.56641,12.9375 0.84375,-4.32422 6.50391,0 -0.84375,4.32422 -6.50391,0"
           id="path7822"
           inkscape:connector-curvature="0" />
        <path
           d="m 186.21262,296.98495 c 0.11717,-0.53903 0.11717,-0.94918 0,-1.23046 -0.1172,-0.28122 -0.26955,-0.49216 -0.45704,-0.63282 -0.18751,-0.16403 -0.39844,-0.25778 -0.63281,-0.28125 -0.23438,-0.0234 -0.45704,-0.0351 -0.66797,-0.0351 l -1.79297,0 0.87891,-4.28907 6.11719,0 c 0.53905,4e-5 1.05467,0.0586 1.54687,0.17579 0.51561,0.11722 0.94921,0.32816 1.30078,0.63281 0.35155,0.30472 0.58592,0.73831 0.70313,1.30078 0.11717,0.5391 0.082,1.26566 -0.10547,2.17969 l -6.46875,32.41406 -6.46875,0 6.04688,-30.23438"
           id="path7824"
           inkscape:connector-curvature="0" />
        <path
           d="m 197.49777,320.75058 1.33594,-6.78516 c 0.21093,-1.05467 0.59765,-1.67576 1.16016,-1.86328 0.58592,-0.18748 1.06639,-0.28123 1.4414,-0.28125 l 12.97266,0 c 0.5156,2e-5 1.04294,-0.0586 1.58203,-0.17578 0.56247,-0.14061 1.0781,-0.36326 1.54687,-0.66797 0.46873,-0.30467 0.87888,-0.72654 1.23047,-1.26562 0.35154,-0.56248 0.62107,-1.30077 0.8086,-2.21485 l 2.53125,-12.6914 c 0.18746,-0.91403 0.2109,-1.64059 0.0703,-2.17969 -0.11722,-0.56247 -0.3516,-0.99606 -0.70313,-1.30078 -0.35159,-0.30465 -0.78518,-0.51559 -1.30078,-0.63281 -0.49221,-0.11715 -0.99612,-0.17575 -1.51172,-0.17579 l -21.62109,0 -0.87891,4.28907 17.29688,0 c 0.18748,3e-5 0.39841,0.0118 0.63281,0.0351 0.23435,0.0235 0.44529,0.11722 0.63281,0.28125 0.18748,0.14066 0.33982,0.3516 0.45704,0.63282 0.11716,0.28128 0.11716,0.69143 0,1.23046 l -1.65235,8.33204 c -0.11721,0.53908 -0.29299,0.96095 -0.52734,1.26562 -0.21096,0.28127 -0.44534,0.49221 -0.70313,0.63281 -0.23439,0.14065 -0.48049,0.22268 -0.73828,0.2461 -0.23439,0.0234 -0.44533,0.0352 -0.63281,0.0351 l -12.97266,0 c -1.10157,2e-5 -2.15625,0.28127 -3.16406,0.84375 -0.98438,0.53908 -1.65235,1.69924 -2.00391,3.48047 l -2.21484,11.07422 c -0.1875,0.91407 -0.22266,1.65235 -0.10547,2.21484 0.14063,0.53907 0.38672,0.97266 0.73828,1.30079 0.35156,0.30468 0.77344,0.51562 1.26563,0.63281 0.51562,0.11719 1.03124,0.17578 1.54687,0.17578 l 21.6211,0 0.8789,-4.32422 -17.29687,0 c -0.18751,10e-6 -0.41017,-0.0117 -0.66797,-0.0352 -0.23438,-0.0234 -0.44532,-0.10546 -0.63281,-0.24609 -0.18751,-0.14062 -0.33985,-0.35156 -0.45703,-0.63281 -0.0938,-0.30468 -0.082,-0.71484 0.0352,-1.23047"
           id="path7826"
           inkscape:connector-curvature="0" />
      </g>
      <path
         transform="matrix(0.67092747,0,0,0.64785067,82.11538,-99.5154)"
         style="fill:none;stroke:#000000;stroke-width:3.03357506;stroke-linecap:round;stroke-linejoin:miter;stroke-miterlimit:4;stroke-opacity:1"
         d="m 335.66523,303.23873 c 12.39639,-10.37446 29.11686,-9.91875 41.09159,1.11994"
         id="path3369"
         inkscape:connector-curvature="0" />
      <path
         transform="matrix(0.77242703,0,0,1.2921989,60.997353,-365.93505)"
         style="fill:none;stroke:#000000;stroke-width:2.00187325;stroke-linecap:round;stroke-linejoin:miter;stroke-miterlimit:4;stroke-opacity:1"
         d="m 329.33998,366.05962 c 5.05106,-2.16918 10.18694,-2.14812 15.23582,0.0625"
         id="path3373"
         inkscape:connector-curvature="0" />
      <path
         transform="matrix(0.19096612,0,0,0.16134747,263.80602,88.128088)"
         style="fill:#000000;fill-opacity:1;stroke:#000000;stroke-width:1;stroke-linecap:butt;stroke-linejoin:miter;stroke-miterlimit:4;stroke-opacity:1"
         d="m 314,150.86218 c 0,9.1127 -6.82766,16.5 -15.25,16.5 -8.42234,0 -15.25,-7.3873 -15.25,-16.5 0,-9.1127 6.82766,-16.5 15.25,-16.5 8.42234,0 15.25,7.3873 15.25,16.5 z"
         id="path7586"
         inkscape:connector-curvature="0" />
      <path
         transform="matrix(0.53465752,0,0,0.52000761,130.90624,-55.56327)"
         style="fill:none;stroke:#000000;stroke-width:3.79303908;stroke-linecap:round;stroke-linejoin:miter;stroke-miterlimit:4;stroke-opacity:1"
         d="m 335.66523,303.23873 c 12.39639,-10.37446 29.11686,-9.91875 41.09159,1.11994"
         id="path3369-6"
         inkscape:connector-curvature="0" />
      <path
         style="fill:none;stroke:#000000;stroke-width:5;stroke-linecap:butt;stroke-linejoin:miter;stroke-miterlimit:4;stroke-opacity:1"
         d="m 48.571426,27.005035 462.857144,0 0,455.714295 -462.857144,0 z"
         id="rect4248"
         inkscape:connector-curvature="0" />
    </g>
  </g>
</svg>
