<?xml version="1.0" encoding="utf-8"?>
<!-- Generator: Adobe Illustrator 17.0.0, SVG Export Plug-In . SVG Version: 6.00 Build 0)  -->
<!DOCTYPE svg PUBLIC "-//W3C//DTD SVG 1.1//EN" "http://www.w3.org/Graphics/SVG/1.1/DTD/svg11.dtd">
<svg version="1.1" id="Layer_1" xmlns="http://www.w3.org/2000/svg" xmlns:xlink="http://www.w3.org/1999/xlink" x="0px" y="0px"
	 width="662.199px" height="1299.196px" viewBox="0 0 662.199 1299.196" enable-background="new 0 0 662.199 1299.196"
	 xml:space="preserve">
<path fill-rule="evenodd" clip-rule="evenodd" d="M390.069,1256.651l0.1-0.004l-2.92,2.507
	c-7.165,6.265-14.629,12.436-22.105,18.414c-0.773,0.627-13.625,1.806-19.903,2.339l-2.985,0.312l-3.001-0.089
	c-6.398-0.062-19.302-0.284-20.022-0.856c-7.998-5.403-15.9-11.004-23.51-16.719l-3.185-2.28l0.201-0.007l0.099-0.004l0.099-0.004
	l0.097-0.003l0.201-0.008l0.102,0.094l0.1-0.004l0.098-0.003l0.2-0.008l0.099-0.004l0.099-0.003l0.098-0.004l0.201-0.008
	l0.098-0.003l0.099-0.004l0.098-0.004l0.102,0.096l0.099-0.004l0.098-0.003l0.098-0.003l0.099-0.005l0.098-0.003l0.099-0.004
	l0.099-0.003l0.098-0.004l0.202-0.007l0.097-0.004l0.099-0.004l0.101,0.094l0.202-0.008l0.098-0.004l0.098-0.003l0.201-0.008
	l0.099-0.003l0.098-0.003l0.098-0.003l0.201-0.008l0.1-0.003l0.102,0.095l0.098-0.004l0.099-0.003l0.098-0.004l0.098-0.004
	l0.099-0.004l0.201-0.007l0.099-0.004l0.098-0.004l0.2-0.007l0.099-0.004l0.099-0.003l0.102,0.096l0.202-0.007l0.098-0.004
	l0.099-0.004l0.202-0.007l0.098-0.004l0.098-0.004l0.099-0.003l0.097-0.004l0.1-0.003l0.099-0.004l0.099-0.004l0.202-0.007
	l0.003,0.098l0.097-0.003l0.099-0.004l0.201-0.008l0.099-0.004l0.098-0.003c12.407,0.339,25.895,0.238,40.768-0.315
	c14.875-0.553,28.235-1.449,40.581-2.708l0.202-0.008l0.099-0.004l0.098-0.004l0.099-0.003l0.1-0.004l0.094-0.102l0.098-0.003
	l0.099-0.004l0.2-0.008l0.098-0.004l0.099-0.003l0.202-0.008l0.099-0.004l0.097-0.003l0.098-0.004l0.202-0.008l0.099-0.003
	l0.096-0.103l0.098-0.004l0.098-0.004l0.098-0.004l0.599-0.022l0.201-0.007l0.099-0.003l0.099-0.004l0.093-0.102l0.202-0.007
	l0.098-0.004l0.1-0.004l0.201-0.007l0.099-0.004l0.201-0.007l0.098-0.003l0.202-0.007l0.094-0.102l0.099-0.003l0.099-0.004
	l0.098-0.004l0.099-0.003l0.098-0.004l0.201-0.008l0.098-0.004l0.099-0.004l0.099-0.003l0.2-0.008l0.098-0.004l0.095-0.103
	l0.099-0.003l0.2-0.007l0.098-0.004l0.099-0.004l0.1-0.004l0.199-0.007l0.099-0.004l0.098-0.004l0.099-0.004l0.198-0.105
	l0.099-0.004l0.1-0.003l0.098-0.004L390.069,1256.651z M107.878,115.675c-58.571,64.083-94.901,151.811-96.48,246.303
	c110.389-13.88,219.227-20.883,326.171-20.933c106.435-0.05,210.959,6.782,313.237,20.563
	c-1.436-98.409-35.513-184.986-90.554-247.455C503.778,50.056,425.193,11.339,337.2,11.339
	C246.929,11.339,166.322,51.731,107.878,115.675z M413.273,981.153c-12.302-0.111-24.583-0.198-36.841-0.259
	c0.586-99.582,11.483-209.192,22.673-321.722c9.023-90.739,18.234-183.371,22.412-274.259c23.944,0.863,47.787,2.087,71.528,3.672
	c-5.131,103.714-22.476,199.892-39.718,295.492c-16.858,93.471-33.616,186.393-38.875,285.442l-0.003,0
	c-0.064,1.068-0.125,2.454-0.181,3.764C414.128,976.494,414.019,979.005,413.273,981.153z M456.56,981.647
	c-10.323-0.142-20.625-0.267-30.906-0.374l-0.093-0.001c0.336-2.255,0.442-4.698,0.562-7.479c0.043-0.988,0.089-2.042,0.181-3.577
	v-0.047c5.221-98.423,21.907-190.939,38.691-284.001c17.3-95.923,34.704-192.426,39.887-296.764
	c20.974,1.508,41.868,3.299,62.683,5.372c-5.469,102.797-29.87,197.782-54.116,292.155
	c-24.051,93.614-47.947,186.633-53.319,286.455c-0.899,3.413-1.582,5.379-2.486,6.822
	C457.354,980.675,456.996,981.145,456.56,981.647z M508.015,982.498c-12.723-0.245-25.415-0.464-38.075-0.656
	c0.627-1.685,1.202-3.638,1.829-6.062l0.155-0.6l0.031-0.586c5.249-98.946,29.038-191.542,52.98-284.732
	c24.351-94.781,48.859-190.176,54.45-293.876c16.41,1.721,32.771,3.618,49.082,5.692c-2.183,38.766-7.814,80.223-16.893,124.367
	c-9.816,47.731-23.703,98.699-41.658,152.901l0.006,0.002c-16.917,49.499-30.246,98.45-39.983,146.854
	c-9.698,48.205-15.806,95.761-18.325,142.667C510.069,974.158,508.886,978.782,508.015,982.498z M337.12,383.367
	c14.467,0.011,28.899,0.151,43.296,0.421c9.764,0.183,19.51,0.426,29.241,0.728c-4.164,90.482-13.357,182.933-22.362,273.495
	c-11.234,112.978-22.175,223.024-22.765,322.832c-9.148-0.034-18.285-0.054-27.409-0.06V383.367z M251.099,384.813
	c23.807-0.814,47.522-1.284,71.143-1.411v597.381c-8.665,0.006-17.34,0.025-26.027,0.056
	c-0.59-99.793-11.525-209.728-22.755-322.604C264.456,567.722,255.262,475.312,251.099,384.813z M166.36,389.134
	c24.389-1.65,48.683-2.946,72.881-3.888c4.178,90.896,13.389,183.474,22.41,274.151c11.185,112.428,22.077,221.926,22.662,321.492
	c-12.26,0.06-24.541,0.145-36.845,0.255c-0.744-2.146-0.852-4.655-0.991-7.861c-0.057-1.309-0.117-2.696-0.181-3.764l-0.003,0
	c-5.264-99.151-22.354-191.969-39.546-285.335C189.178,588.764,171.502,492.764,166.36,389.134z M93.196,395.117
	c1.793-0.171,3.598-0.342,5.416-0.512c18.692-1.752,37.328-3.299,55.909-4.642c5.198,104.329,22.93,200.635,40.556,296.361
	c17.12,92.979,34.14,185.412,39.362,283.847v0.047c0.093,1.536,0.139,2.589,0.181,3.577c0.12,2.776,0.226,5.215,0.56,7.467
	l-1.179,0.012c-9.924,0.103-19.868,0.223-29.831,0.359c-0.429-0.496-0.783-0.962-1.072-1.423c-0.904-1.443-1.587-3.408-2.486-6.822
	c-5.371-99.823-29.268-192.841-53.319-286.455C123.075,592.663,98.7,497.783,93.196,395.117z M32.276,401.637
	c2.708-0.32,5.536-0.651,8.482-0.992c9.224-1.066,18.88-2.127,28.971-3.183c3.816-0.399,7.698-0.797,11.645-1.191
	c5.621,103.589,30.106,198.896,54.435,293.59c23.942,93.191,47.731,185.787,52.98,284.732l0.031,0.586l0.155,0.6
	c0.624,2.416,1.198,4.364,1.822,6.045c-11.612,0.175-23.25,0.373-34.915,0.592c-0.997-1.286-1.912-2.654-2.742-4.104
	c-1.698-2.967-3.035-6.248-4.011-9.843c-2.519-46.906-8.627-94.462-18.325-142.667c-9.737-48.403-23.066-97.355-39.983-146.854
	l0.007-0.002c-17.955-54.202-31.842-105.17-41.659-152.901C40.089,481.884,34.457,440.415,32.276,401.637z M466.027,1028.298
	H322.603H198.564c0.144,1.937,0.266,3.572,0.29,3.802c0.84,8.082,2.563,26.386,3.283,34.354
	c41.037,5.894,89.135,6.185,129.897,4.935c2.179-0.096,4.346-0.198,6.505-0.304l0.372,10.022l-4.21,0.182l-2.295,0.085l-2.395,0.088
	c-49.031,1.629-93.69-0.304-126.966-4.833l0.508,5.736l1.28,14.705c40.692,5.681,88.086,5.95,128.33,4.714
	c2.179-0.094,4.347-0.196,6.505-0.304l0.372,10.021l-4.209,0.182l-2.295,0.083l-2.395,0.089c-48.266,1.604-92.295-0.244-125.4-4.623
	c0.718,7.903,1.471,15.828,2.273,23.537c40.251,5.422,86.785,5.664,126.392,4.448c2.179-0.094,4.347-0.196,6.504-0.304l0.372,10.021
	l-4.209,0.182l-2.295,0.084l-2.395,0.089c-47.237,1.569-90.417-0.168-123.269-4.347c0.911,8.043,1.884,15.717,2.934,22.719
	c39.593,5.062,84.883,5.264,123.566,4.078c2.179-0.094,4.346-0.196,6.504-0.304l0.372,10.021l-4.209,0.182l-2.295,0.084
	l-2.395,0.089c-45.621,1.516-87.459-0.053-119.864-3.926c1.585,8.728,3.338,15.849,5.299,20.549
	c14.993,5.442,30.229,9.174,47.802,11.42c16.069,2.1,34.389,2.817,56.568,2.495l0.399-0.015l0.897-0.033l0.398-0.014l0.898-0.034
	l0.299-0.011l0.996-0.037l0.3-0.011l0.996-0.037l0.3-0.012l1,0.063l0.299-0.011l1.098-0.041l0.201-0.007l1.099-0.041l0.201-0.008
	l1.198-0.044l0.099-0.004l1.198-0.045l0.099-0.004l1.294-0.048l0.098-0.003l1.297-0.048l1.397-0.052l1.296-0.048l0.1-0.004
	l1.295-0.048l1.297-0.048l0.098-0.003l1.197-0.045l0.201-0.007l1.198-0.045l0.099-0.003l1.197-0.045l0.2-0.007l1.1-0.041l0.2-0.007
	l1.095-0.14l0.202-0.007l0.995-0.037l0.299-0.011l0.996-0.037l0.301-0.011l0.997-0.037l0.299-0.011l0.897-0.033l0.398-0.015
	c22.239-1.328,40.353-3.399,56.326-6.69c17.362-3.545,32.175-8.393,46.724-14.933c6.023-18.116,6.696-69.919,7.201-112.916
	c0.084-9.811,0.185-27.715,0.353-37.42C466.025,1034.827,466.026,1031.563,466.027,1028.298z M536.534,973.481l-1.341,2.758
	c-2.645,5.441-5.387,10.579-8.222,15.412c-2.829,4.821-5.757,9.342-8.783,13.561c-3.05,4.253-6.19,8.183-9.419,11.786
	c-3.236,3.611-6.565,6.902-9.985,9.868c-0.381,0.33-1.258,0.662-2.161,0.914c-0.992,0.276-2.144,0.507-2.606,0.516l-0.008,0
	l-0.021,0h-12.892c-0.004,3.445-0.008,6.975-0.018,7.465c-0.212,10.699-0.326,29.731-0.446,40.997
	c-0.432,34.102-0.862,73.599-4.304,99.417l-2.626,20.789c-1.571,3.458-8.64,12.316-19.899,24.03
	c-4.523,4.668-9.721,10.058-15.705,15.778l0.796-0.127l-19.718,18.123c-6.956,6.455-14.51,13.033-22.259,19.717
	c-7.066,6.159-14.633,12.339-22.595,18.733c-4.173,3.353-20.109,4.843-27.88,5.536c-1.194,0.141-2.092,0.175-3.089,0.316
	l-0.694,0.124l-0.603-0.076c-1-0.062-1.901-0.029-3.102-0.086c-7.801-0.11-23.804-0.417-28.317-3.447
	c-8.313-5.789-16.316-11.39-23.821-17.008c-8.323-6.087-16.243-12.09-23.66-18.01l-21.01-16.61l0.803,0.068
	c-6.391-5.26-12.077-10.246-16.934-14.566c-11.997-10.849-19.802-19.155-21.626-22.486l-3.929-19.647
	c-5.447-25.486-8.825-65.344-11.801-99.717c-1.407-16.53-3.865-43.414-5.266-55.773c-0.02-0.177-0.135-1.699-0.272-3.54h-14.708
	h-0.223l-0.217-0.07l-7.676-2.485l-0.283-0.092l-0.242-0.219c-3.14-2.841-6.188-5.943-9.145-9.305
	c-2.957-3.363-5.844-7.009-8.659-10.934c-3.023-4.216-5.947-8.734-8.773-13.55c-2.834-4.831-5.573-9.965-8.217-15.402l-3.085-6.346
	l-1.029-2.115l0.19-0.004c-0.272-0.587-0.532-1.189-0.78-1.805c-2.79-6.933-4.008-15.691-3.654-26.274
	c-0.655-34.219-5.602-72.695-14.844-115.426c-9.286-42.938-22.877-90.024-40.772-141.257l-0.022-0.022
	C40.2,622.691,26.305,570.186,17.095,524.97C7.876,479.713,3.374,441.854,1.359,410.821l-0.343-5.28l0.115-0.015
	c-0.646-11.151-0.97-21.381-1.083-30.716L0,374.816v-6.42l0.001-0.229L0,366.859h0.009c0.386-99.198,38.096-191.574,99.542-258.803
	C160.079,41.833,243.61,0,337.2,0c91.387,0,172.965,40.169,231.556,106.667c58.008,65.835,93.442,157.48,93.442,261.424v6.487
	l-0.137-0.019c-0.322,31.483-2.73,69.893-10.811,117.672c-8.72,51.561-24.074,114.039-50.602,190.493v0.022
	c-35.97,102.307-54.615,187.8-55.936,256.479c0.356,10.59-0.868,19.348-3.673,26.271
	C539.825,968.497,538.323,971.159,536.534,973.481z M21.214,414.388c-3.057,0.374-5.739,0.705-8.045,0.993l8.045-0.99
	c2.628,35.849,8.073,73.857,16.334,114.025c9.949,48.375,23.944,99.792,41.984,154.25l0.023,0.047
	c16.808,49.171,30.018,97.642,39.628,145.414c9.612,47.776,15.654,94.962,18.125,141.554l0.031,0.586l0.155,0.6
	c0.052,0.202-0.02,0.701,0.114,1.365c0.151,0.748,0.274,1.667,0.394,2.672c0.505,1.237,1.092,2.704,1.781,4.453
	c1.681,3.118,3.378,6.082,5.09,8.89c2.106,3.453,4.279,6.74,6.516,9.861c2.608,3.638,5.27,6.998,7.984,10.077
	c2.586,2.934,5.236,5.636,7.948,8.102h1.094h16.871h6.944h130.373h154.89h15.361c2.71-2.465,5.357-5.163,7.94-8.094
	c2.711-3.076,5.371-6.431,7.977-10.066c2.239-3.123,4.414-6.413,6.523-9.869c1.715-2.812,3.415-5.779,5.098-8.901l1.365-2.575
	c0.361-0.818,0.692-1.555,0.996-2.22c0.289-1.801,0.498-3.692,0.499-3.695l0.155-0.6l0.031-0.586
	c2.472-46.592,8.514-93.778,18.125-141.554c9.611-47.772,22.821-96.244,39.628-145.414l0.023-0.047
	c18.041-54.458,32.035-105.875,41.984-154.25c9.125-44.371,14.814-86.107,17.066-125.207c3.174,0.421,6.346,0.848,9.517,1.282
	c0.596-11.226,0.877-21.696,0.958-31.485c-102.303-13.852-206.804-20.717-313.167-20.667
	c-106.925,0.05-215.773,7.083-326.199,21.026c0.094,9.316,0.398,19.546,1.03,30.718c3.148-0.401,5.839-0.74,8.073-1.019
	C20.689,406.815,20.935,410.589,21.214,414.388z"/>
</svg>
